<svg xmlns="http://www.w3.org/2000/svg" width="1024" height="1024" viewBox="0 0 1024 1024" version="1.1"><path d="M 509.763 89.966 C 502.961 91.207, 496.299 93.595, 490.090 97.018 C 483.477 100.663, 484.121 100.671, 477.952 96.876 C 459.258 85.373, 433.672 88.480, 416.292 104.364 C 409.079 110.956, 406.448 115.588, 402.463 128.706 C 402.188 129.612, 400.942 129.518, 397.441 128.325 C 366.048 117.628, 330.262 151.619, 333.393 189.160 C 334.047 197, 334.047 197, 330.705 197 C 313.999 197, 294.510 212.399, 288.646 230.233 C 288.188 231.625, 287.431 231.821, 284.788 231.233 C 261.675 226.083, 237.548 241.852, 234.452 264.132 C 233.808 268.763, 233.808 268.763, 227.982 269.423 C 208.615 271.614, 193.913 288.209, 193.153 308.737 C 192.881 316.088, 192.418 319, 191.521 319 C 160.098 319, 144.943 371.274, 167.148 403.070 C 171.038 408.641, 171.038 408.641, 169.361 413.070 C 159.615 438.809, 179.375 472.543, 209.500 481.594 C 212.800 482.585, 215.667 483.512, 215.871 483.652 C 216.074 483.793, 214.753 485.786, 212.935 488.082 C 209.030 493.013, 210.494 495.561, 216.578 494.419 C 219.753 493.824, 219.753 493.824, 220.302 527.662 C 220.880 563.330, 221.270 566.824, 226.309 581.500 C 231.455 596.490, 240.533 610.468, 257.484 629.500 C 284.184 659.478, 288.304 664.878, 306.438 693.662 C 332.650 735.269, 359.085 753.432, 393.500 753.480 C 433.854 753.537, 444.750 704.557, 414.439 659.355 C 409.275 651.653, 409.329 651.826, 412.250 652.419 C 444.019 658.875, 444.839 659.370, 454.920 678.149 C 465.482 697.825, 467.156 705.615, 467.728 737.750 C 468.194 764, 468.194 764, 464.031 764 C 452.748 764, 453 762.640, 453 823.482 C 453 888.915, 451.381 884, 472.934 884 C 486 884, 486 884, 486 893 C 486 902, 486 902, 478.035 902 C 469.363 902, 468 902.874, 468 908.434 C 468 911, 468 911, 454.599 911 C 439.509 911, 437.486 912.178, 427.741 926.643 C 423.500 932.937, 423.500 932.937, 331.809 932.968 C 266.893 932.991, 239.922 933.317, 239.446 934.087 C 237.530 937.188, 241.469 937.344, 332.721 937.799 C 384.720 938.058, 424.747 938.642, 425.071 939.147 C 426.128 940.798, 590.302 940.307, 591.514 938.650 C 593.282 936.232, 610.176 937.878, 613.252 940.767 C 619.964 947.072, 651.556 946.477, 649.527 940.084 C 645.952 928.821, 617.140 922.015, 612.854 931.422 C 611.755 933.833, 611.555 933.872, 603.116 933.295 C 592.288 932.555, 591.084 932.106, 589.436 928.187 C 587.916 924.571, 686.632 922.853, 689.390 926.447 C 692.484 930.480, 764.351 928.519, 766.250 924.350 C 770.147 915.799, 733.167 907.061, 706 910.114 C 695.734 911.268, 680.596 912.652, 680.251 912.468 C 667.655 905.752, 681.539 893.996, 702.100 893.968 C 733.140 893.926, 731.651 895.219, 730.061 869.693 C 729.472 860.237, 728.296 839.225, 727.449 823 C 725.402 783.829, 728.350 788.511, 699.500 778.591 C 674.525 770.003, 674.104 769.926, 666 772.449 C 662.975 773.391, 648.826 777.041, 634.557 780.559 C 601.679 788.667, 605.744 780.113, 605.663 841.367 C 605.579 904.244, 602.715 897, 627.655 897 C 646 897, 646 897, 646 908.500 C 646 921.506, 589.830 927.365, 578.893 915.500 C 574.745 911, 574.745 911, 560.930 911 C 547.115 911, 547.115 911, 546.807 906.750 C 546.500 902.500, 546.500 902.500, 538.250 902.210 C 521.516 901.620, 526.134 884.552, 543.135 884.155 C 563.740 883.673, 562 889.174, 562 824.518 C 562 761.519, 562.592 764, 547.550 764 C 539.437 764, 538.029 718.789, 544.911 679.270 C 548.224 660.241, 547.727 661.149, 557.655 656 C 562.427 653.525, 568.394 649.651, 570.916 647.392 C 574.856 643.860, 576.796 642.986, 584.732 641.163 C 654.282 625.191, 685.989 581.050, 685.997 500.187 C 686 471.873, 686 471.873, 689.250 472.187 C 692.500 472.500, 692.500 472.500, 693 518.701 C 693.504 565.231, 693.780 568.490, 697.056 566.465 C 698.018 565.871, 698.127 555.602, 697.557 519.361 C 696.827 473.016, 696.827 473.016, 699.664 472.028 C 701.224 471.485, 703.774 470.356, 705.331 469.520 C 706.888 468.684, 708.576 468, 709.081 468 C 710.742 468, 710.205 527.861, 708.438 539.763 C 703.919 570.194, 691.785 586.034, 654.042 610.769 C 630.206 626.391, 616.592 638.305, 606.636 652.257 C 576.380 694.657, 580.201 753.851, 613.203 753.978 C 628.439 754.037, 638.923 742.869, 656.596 707.757 C 675.892 669.420, 685.064 657.092, 713.891 630.745 C 756.575 591.735, 768.986 565.948, 768.996 516.250 C 769 497, 769 497, 772.378 497 C 777.992 497, 778.526 495.003, 774.345 489.637 C 770.207 484.325, 770.281 484.040, 776.003 483.273 C 778.987 482.872, 780.386 482.130, 780.932 480.656 C 781.609 478.825, 782.617 478.578, 790.096 478.415 C 823.552 477.687, 848.866 441.807, 838.656 409.591 C 836.995 404.351, 837.349 402.804, 840.956 399.540 C 854.248 387.511, 860.269 356.158, 853.011 336.760 C 847.389 321.734, 828.258 303.019, 818.500 303 C 817.902 302.998, 817.500 299.080, 817.500 293.249 C 817.500 270.573, 800.571 253.054, 777.785 252.150 C 768.958 251.799, 768.958 251.799, 765.909 247.367 C 756.511 233.708, 734.233 226.748, 721.015 233.343 C 716.814 235.438, 716.949 235.773, 718.668 227.500 C 726.666 189.018, 681.254 153.242, 647.884 171.736 C 647.545 171.924, 646.992 170.350, 646.654 168.239 C 642.641 143.144, 603.231 118.157, 584.366 128.748 C 582.387 129.859, 581.952 129.465, 578.366 123.317 C 564.185 98.999, 535.826 85.213, 509.763 89.966 M 511 94.955 C 484.504 99.969, 444.471 140, 465.951 140 C 479.074 140, 491.265 145.295, 501.240 155.326 C 508.027 162.152, 508.027 162.152, 513.110 160.464 C 524.755 156.596, 542.973 160.022, 554.202 168.191 C 556.470 169.841, 557.137 168.968, 557.747 163.549 C 558.029 161.047, 558.652 159, 559.130 159 C 560.406 159, 560.193 168.407, 558.887 169.713 C 557.587 171.013, 558.528 173, 560.445 173 C 562.318 173, 565 166.876, 565 162.599 C 565 160.067, 565.445 159, 566.500 159 C 568.873 159, 568.357 165.955, 565.576 171.448 C 563.267 176.009, 563.104 179, 565.163 179 C 568.492 179, 572.542 161.069, 571.672 150.184 C 571.130 143.394, 570.128 139.669, 566.238 129.983 C 562.600 120.926, 551.806 111.024, 540.750 106.602 C 536.849 105.042, 535.604 102, 538.866 102 C 565.109 102, 584.695 150.195, 570.087 178.829 C 567.737 183.436, 567.384 186.363, 569.250 185.769 C 573.740 184.342, 580 164.591, 580 151.850 C 580 116.282, 546.082 88.314, 511 94.955 M 439.500 96.352 C 418.630 103.265, 408.266 116.230, 406.209 138 C 405.319 147.412, 403.095 148.408, 401.519 140.100 C 400.295 133.646, 397.042 131.927, 386 131.901 C 359.746 131.838, 338.074 155.198, 338.015 183.625 C 337.990 195.362, 338.525 196.751, 343.361 197.520 C 356.514 199.612, 369.595 211.038, 370.294 221.044 C 370.670 226.434, 371.552 224.111, 372.683 214.750 C 375.575 190.818, 392.451 174, 413.575 174 C 417.955 174, 417.983 173.978, 421.064 167.874 C 426.766 156.577, 437.065 147.615, 449.564 143.072 C 455.627 140.868, 455.627 140.868, 456.845 134.970 C 458.395 127.465, 465.822 116.139, 474.112 108.637 C 483.890 99.789, 457.453 90.406, 439.500 96.352 M 587 133.324 C 584.141 134.314, 583.544 134.990, 583.739 137.018 C 586.006 160.564, 584.410 170.883, 576.492 183.867 C 571.900 191.398, 571.565 192.734, 572.638 199.228 C 573.255 202.956, 573.255 202.956, 578.325 198.398 C 600.008 178.903, 639.066 186.021, 652.452 211.907 C 653.368 213.678, 654.653 214.901, 655.309 214.623 C 670.046 208.388, 685.247 210.734, 696.337 220.957 C 701.703 225.903, 702.125 225.493, 700.962 216.460 C 699.803 207.464, 699.806 207, 701.025 207 C 702.905 207, 704.201 212.415, 704.354 220.918 C 704.526 230.485, 706.401 233.179, 707.550 225.512 C 708.775 217.345, 705.588 205.621, 699.892 197.342 C 695.842 191.457, 696.767 187.089, 700.986 192.174 C 709.240 202.122, 713.690 223.123, 709.637 233 C 708.704 235.273, 710.707 237.956, 711.924 236.064 C 719.109 224.897, 713.536 200.061, 700.788 186.432 C 684.454 168.971, 648.725 166.097, 647.805 182.169 C 647.206 192.640, 643.643 189.636, 642.862 178 C 640.883 148.547, 611.323 124.906, 587 133.324 M 451.843 147.392 C 440.079 151.544, 430.954 159.312, 425.638 169.700 C 423.335 174.200, 423.452 174.439, 428.625 175.822 C 446.010 180.472, 458.957 199.571, 458.988 220.611 C 459 228.721, 459 228.721, 468.250 228.244 C 476.399 227.824, 478.449 228.087, 485.477 230.453 C 490.638 232.190, 493.582 232.754, 493.817 232.050 C 500.433 212.200, 534.178 202.196, 552.908 214.532 C 559.276 218.725, 559.092 218.709, 558.350 215 C 557.871 212.607, 558.094 212, 559.451 212 C 560.815 212, 561.096 212.786, 560.867 215.957 C 560.710 218.134, 560.925 220.258, 561.345 220.678 C 562.465 221.799, 563.967 218.934, 563.985 215.643 C 563.996 213.526, 564.386 212.934, 565.490 213.358 C 567.583 214.161, 568.361 210.290, 567.769 202.019 C 566.087 178.505, 541.646 159.857, 518.123 164.138 C 510.764 165.478, 510.470 165.889, 512.500 172 C 513.694 175.595, 513.901 177.499, 513.177 178.223 C 511.375 180.025, 509.146 178.255, 508.038 174.142 C 502.460 153.427, 473.628 139.702, 451.843 147.392 M 404.500 180.353 C 373.747 190.431, 368.044 229.318, 393.626 254.494 C 423.093 283.494, 468.543 240.372, 449.949 201.056 C 441.837 183.903, 421.683 174.722, 404.500 180.353 M 596 193.827 C 580.881 198.858, 574.493 205.315, 569.025 221.096 C 566.739 227.691, 566.739 227.691, 569.512 234.596 C 571.596 239.783, 572.408 243.800, 572.779 250.750 C 573.050 255.838, 573.452 260, 573.671 260 C 573.891 260, 575.116 259.315, 576.394 258.477 C 596.035 245.608, 634.071 258.894, 646.992 283.136 C 649.943 288.673, 650.445 289.138, 652.860 288.572 C 665.321 285.648, 675.126 287.381, 683.870 294.053 C 689.240 298.151, 689.240 298.151, 694.870 295.183 C 697.966 293.551, 702.075 291.908, 704 291.533 C 710.798 290.208, 710.791 290.215, 712.430 283.007 C 718.303 257.188, 706.968 230.138, 685.768 219.378 C 675.276 214.052, 657.534 215.543, 656.811 221.810 C 656.286 226.352, 653.821 224.839, 650.249 217.783 C 640.067 197.672, 616.164 187.117, 596 193.827 M 325.003 202.684 C 309.100 205.997, 293.440 222.645, 292.204 237.553 C 291.755 242.973, 290.051 245.768, 287.979 244.487 C 287.369 244.110, 287.012 242.404, 287.185 240.696 C 287.593 236.673, 281.805 234.587, 272.434 235.378 C 248.920 237.364, 234.909 257.008, 239.976 280.885 C 241.719 289.101, 241.820 289.192, 247.033 287.261 C 253.033 285.039, 270.817 284.980, 276.684 287.163 C 280.868 288.720, 280.868 288.720, 282.047 283.805 C 285.593 269.023, 301.133 256.711, 318.031 255.294 C 325.250 254.689, 325.250 254.689, 327.252 250.094 C 333.034 236.825, 347.509 225.629, 360.635 224.274 C 365.642 223.757, 366.103 223.508, 365.592 221.602 C 365.281 220.446, 365.021 218.918, 365.014 218.207 C 364.916 208.963, 340.441 199.467, 325.003 202.684 M 524.355 213.986 C 491.259 220.965, 484.057 265.758, 512.084 290.297 C 525.882 302.377, 538.841 301.211, 553.451 286.575 C 583.223 256.750, 562.830 205.872, 524.355 213.986 M 673.500 222 C 672.608 223.443, 673.835 225, 675.863 225 C 692.425 225, 710.621 258.803, 704.917 278.976 C 704.657 279.896, 705.318 280.578, 706.671 280.785 C 710.917 281.437, 711.186 261.779, 707.079 250.960 C 700.823 234.481, 677.969 214.770, 673.500 222 M 356.465 229.883 C 322.910 241.989, 319.812 282.260, 350.807 303.438 C 362.911 311.708, 370.376 311.920, 371.311 304.020 C 372.081 297.522, 376.168 289.363, 381.637 283.406 C 384.068 280.758, 385.839 278.023, 385.572 277.328 C 385.306 276.633, 385.518 275.798, 386.044 275.473 C 386.570 275.148, 387 275.359, 387 275.941 C 387 276.523, 387.675 277, 388.500 277 C 389.325 277, 390 276.325, 390 275.500 C 390 274.675, 389.512 274, 388.917 274 C 388.321 274, 388.008 273.477, 388.221 272.837 C 388.738 271.287, 392.121 270.856, 393.672 272.143 C 395.162 273.380, 397 272.440, 397 270.441 C 397 268.716, 398.596 268.537, 399.594 270.151 C 400.085 270.947, 400.729 270.723, 401.677 269.426 C 402.831 267.849, 403.364 267.746, 405.025 268.783 C 406.111 269.462, 407 269.635, 407 269.169 C 407 267.622, 401.794 265.806, 400.648 266.952 C 399.089 268.511, 398.001 268.223, 397.994 266.250 C 397.990 265.288, 396.705 263.771, 395.138 262.879 C 388.738 259.239, 377.947 243.090, 373.669 230.750 C 373.214 229.436, 371.953 229, 368.613 229 C 366.166 229, 363.564 228.790, 362.832 228.533 C 362.099 228.277, 359.234 228.884, 356.465 229.883 M 460.973 234.086 C 458.105 234.905, 457.029 236.001, 455.216 239.953 C 449.574 252.252, 437.141 263.742, 425.750 267.184 C 421.860 268.359, 420.696 269.999, 423.750 270.001 C 435.876 270.006, 454.869 290.686, 456.670 305.844 C 457.223 310.500, 457.223 310.500, 465.361 310.663 C 479.014 310.937, 490.433 315.480, 499.715 324.330 C 504.403 328.799, 504.437 328.661, 501.907 315.604 C 501.385 312.911, 501.146 310.521, 501.375 310.292 C 502.583 309.083, 505.313 317.648, 506.305 325.760 C 507.668 336.913, 509.540 337.603, 509.410 326.904 C 509.327 320.154, 508.864 318.538, 504.160 308.611 C 498.828 297.359, 498.370 296, 499.907 296 C 505.572 296, 515.434 330.080, 511.425 335.803 C 508.704 339.689, 510.293 340.095, 516.581 337.121 C 526.186 332.578, 530.424 323.637, 526.830 315.500 C 525.569 312.646, 525.490 312.883, 525.208 320.352 C 524.859 329.604, 521.002 336.019, 515.800 335.999 C 515.635 335.998, 515.499 331.611, 515.498 326.249 C 515.496 316.212, 512.234 307.170, 504.888 296.846 C 502.817 293.935, 502.562 293, 503.839 293 C 508.684 293, 518.256 313.520, 518.397 324.208 C 518.454 328.489, 518.822 331.994, 519.215 331.996 C 521.321 332.008, 522.239 327.081, 521.728 318.516 C 521.256 310.604, 521.432 309.084, 523.070 306.953 C 525.429 303.883, 525.469 303.006, 523.250 302.978 C 522.288 302.966, 520.375 302.076, 519 301 C 515.287 298.096, 513.341 298.346, 515.385 301.465 C 517.581 304.816, 517.416 305.686, 515 303.500 C 513.900 302.505, 513 300.914, 513 299.966 C 513 299.017, 510.091 295.275, 506.536 291.649 C 493.618 278.474, 486.696 256.588, 490.779 241.829 C 492.522 235.531, 473.354 230.552, 460.973 234.086 M 724.826 236.921 C 718.452 238.983, 713.855 242.359, 714.549 244.468 C 719.199 258.609, 720.199 271.406, 717.520 282.500 C 716.723 285.800, 716.055 288.837, 716.036 289.250 C 716.016 289.663, 717.688 290.005, 719.750 290.012 C 721.813 290.018, 725.845 290.648, 728.711 291.411 C 733.108 292.582, 734.099 292.586, 735.053 291.436 C 738.087 287.781, 752.264 281.952, 759.637 281.329 C 768.407 280.588, 768.496 280.440, 767.793 267.694 C 766.619 246.396, 744.502 230.555, 724.826 236.921 M 772.562 269.474 C 772.623 282.180, 772.623 282.180, 777.749 283.915 C 783.607 285.898, 792.909 293.394, 796.789 299.258 C 799.333 303.101, 799.537 303.198, 803.844 302.608 C 806.283 302.274, 809.395 302, 810.759 302 C 817.841 302, 811.611 276.384, 802.376 267.536 C 786.260 252.094, 772.482 252.990, 772.562 269.474 M 588 260.135 C 579.870 261.468, 572.346 265.567, 571.015 269.388 C 570.419 271.100, 567.278 276.550, 564.034 281.500 C 557.587 291.336, 553.508 301.792, 554.393 306.213 C 554.817 308.337, 554.568 309, 553.343 309 C 552.043 309, 551.840 308.228, 552.280 304.951 C 552.737 301.543, 552.599 301.088, 551.411 302.074 C 550.233 303.052, 549.998 302.523, 549.989 298.872 C 549.977 294.139, 547.409 296.112, 542.778 304.414 C 541.109 307.405, 541.036 307.431, 540.412 305.250 C 540.057 304.012, 539.105 303, 538.297 303 C 537.259 303, 537.727 304.224, 539.891 307.166 C 541.904 309.903, 542.773 312.058, 542.424 313.446 C 540.638 320.561, 552.153 342.520, 562.510 351.751 C 582.333 369.419, 615.429 370.644, 627.431 354.154 C 629.340 351.531, 629.340 351.519, 627.431 353.107 C 624.827 355.275, 613.947 360.280, 613.283 359.617 C 612.032 358.366, 614.069 355.887, 615.877 356.461 C 617.069 356.839, 617.979 356.497, 618.350 355.530 C 618.673 354.688, 619.851 354, 620.969 354 C 622.086 354, 623 353.580, 623 353.067 C 623 352.554, 623.864 351.861, 624.919 351.526 C 630.440 349.773, 643.348 332.881, 646.335 323.500 C 657.893 287.200, 627.079 253.729, 588 260.135 M 310.254 261.438 C 273.222 273.204, 281.764 333.176, 320.977 336.732 C 332.196 337.749, 357.454 318.398, 353.422 311.874 C 352.349 310.138, 351.133 311.067, 350.006 314.482 C 347.376 322.451, 331.679 334.917, 329.962 330.400 C 329.397 328.913, 329.139 327.203, 329.388 326.599 C 329.638 325.994, 329.878 326.288, 329.921 327.250 C 330.018 329.396, 331.363 329.494, 333.357 327.500 C 334.182 326.675, 335.329 326, 335.906 326 C 336.482 326, 337.691 324.875, 338.592 323.500 C 339.493 322.125, 340.784 321, 341.460 321 C 343.237 321, 346 317.653, 346 315.500 C 346 314.487, 346.701 312.883, 347.558 311.935 C 348.996 310.347, 348.538 309.635, 341.659 302.756 C 330.841 291.938, 323.086 274.629, 324.176 263.736 C 324.560 259.901, 318.327 258.873, 310.254 261.438 M 408.255 274.119 C 391.244 276.186, 377.740 290.320, 375.543 308.356 C 374.830 314.211, 374.830 314.211, 380.165 313.356 C 401.576 309.922, 421.367 322.337, 425.479 341.781 C 426.173 345.062, 426.173 345.062, 429.246 340.781 C 430.937 338.426, 432.586 336.275, 432.912 336 C 433.598 335.420, 435.555 331.320, 436.402 328.687 C 436.723 327.689, 437.439 327.153, 437.993 327.496 C 439.297 328.301, 439.302 331, 438 331 C 437.450 331, 437 331.727, 437 332.616 C 437 333.505, 434.750 337.095, 432 340.595 C 429.250 344.094, 427 347.525, 427 348.218 C 427 351.207, 439.668 334.634, 440.161 331 C 440.666 327.275, 444.569 327.485, 444.315 331.223 C 444.091 334.538, 433.373 348.927, 429.641 350.924 C 428.189 351.702, 427 352.966, 427 353.733 C 427 356.365, 435.104 350.749, 440.324 344.500 C 466.230 313.485, 446.192 269.508, 408.255 274.119 M 223.929 275.367 C 200.176 281.772, 186.009 316.081, 206.630 317.260 C 212.059 317.570, 217.232 318.116, 218.127 318.472 C 219.315 318.945, 219.934 318.400, 220.423 316.449 C 221.913 310.513, 225.732 304.262, 231.793 297.837 C 238.182 291.064, 238.182 291.064, 236.640 286.282 C 235.792 283.652, 234.801 279.813, 234.438 277.750 C 233.686 273.482, 232.185 273.142, 223.929 275.367 M 756 287.064 C 751.029 288.072, 739 293.651, 739 294.948 C 739 297.244, 743.908 299.040, 744.936 297.120 C 746.049 295.041, 753.593 291.630, 755.066 292.541 C 757.079 293.785, 755.972 296.790, 753.250 297.470 C 747.146 298.993, 746.665 300.738, 750.935 305.868 C 758.030 314.396, 762 325.310, 762 336.291 C 762 339.645, 762.254 340.106, 763.750 339.466 C 790.056 328.229, 816.872 345.251, 819.631 374.939 C 820.186 380.916, 820.572 382, 822.144 382 C 823.165 382, 824 382.689, 824 383.531 C 824 384.374, 824.675 385.322, 825.500 385.638 C 826.325 385.955, 827 386.841, 827 387.607 C 827 390.385, 828.868 388.901, 830.911 384.500 C 832.060 382.025, 833.968 377.918, 835.151 375.373 C 837.169 371.031, 837.446 369.732, 837.843 362.750 C 838.082 358.551, 840 359.475, 840 363.790 C 840 369.661, 837.251 378.864, 833.404 385.870 C 829.848 392.345, 829.590 394.403, 832.648 391.893 C 837.549 387.868, 842.975 370.310, 842.992 358.417 C 843.001 352.773, 843.658 351.471, 845.658 353.131 C 849.897 356.649, 844.801 380.150, 837.423 391.115 C 833.230 397.345, 832.650 402.248, 836.696 397.250 C 860.570 367.764, 854.726 325.806, 824.686 311.017 C 815.006 306.252, 799.829 305.786, 801.565 310.308 C 802.221 312.019, 799.242 314.670, 798.081 313.408 C 797.621 312.908, 796.443 310.028, 795.461 307.006 C 790.941 293.086, 772.429 283.731, 756 287.064 M 249.909 291.832 C 227.139 299.379, 216.979 325.377, 227.575 348.987 C 231.339 357.374, 231.600 357.471, 238.315 352.957 C 249.795 345.240, 264.592 344.023, 276.706 349.800 C 279.956 351.349, 280.228 351.344, 281.146 349.704 C 281.683 348.744, 282.567 348.232, 283.110 348.568 C 283.734 348.954, 283.654 349.713, 282.891 350.631 C 282.020 351.681, 281.988 352.388, 282.775 353.175 C 284.463 354.863, 287.168 353.298, 286.961 350.754 C 286.578 346.020, 287.038 344, 288.500 344 C 289.325 344, 290 344.675, 290 345.500 C 290 346.325, 289.541 347, 288.981 347 C 288.393 347, 288.228 348.059, 288.591 349.507 C 288.980 351.057, 288.620 352.931, 287.647 354.416 C 286.321 356.440, 286.289 356.995, 287.447 357.956 C 288.982 359.230, 292 355.921, 292 352.965 C 292 352.091, 292.900 349.513, 294 347.236 C 295.100 344.959, 296 341.919, 296 340.479 C 296 338.336, 296.408 337.919, 298.250 338.180 C 302.122 338.730, 301.376 347.264, 296.813 354.614 C 293.169 360.484, 289.535 363.707, 292.020 358.866 C 293.174 356.616, 293.146 356.583, 291.453 358.200 C 288.644 360.881, 291.381 363.856, 294.283 361.275 C 297.463 358.448, 303 346.025, 303 341.719 C 303 339.416, 303.400 338.129, 304 338.500 C 305.757 339.586, 305.077 345.465, 302.446 351.940 C 299.271 359.754, 299.776 360.773, 303.335 353.738 C 307.593 345.323, 307.162 338.797, 302.129 335.467 C 292.588 329.153, 282.593 311.964, 281.306 299.657 C 280.379 290.789, 264.784 286.902, 249.909 291.832 M 654.693 293.181 C 652.178 294.098, 651.960 294.532, 652.594 297.352 C 655.155 308.740, 651.296 329.930, 645.380 336.960 C 643.973 338.632, 643.286 340, 643.852 340 C 644.419 340, 645.142 339.580, 645.459 339.066 C 646.856 336.807, 657.583 334.793, 666.081 335.194 C 687.251 336.195, 701.474 351.672, 701.491 373.727 C 701.500 384.955, 701.500 384.955, 703.912 382.543 C 706.069 380.386, 706.299 379.372, 706.092 372.963 C 705.933 368.073, 706.199 366.005, 706.930 366.456 C 707.518 366.820, 708 369.807, 708 373.094 C 708 378.809, 708.090 379.022, 710.050 377.973 C 712.949 376.422, 714.623 372.455, 713.135 370.662 C 712.246 369.591, 712.291 369.003, 713.330 368.141 C 715.108 366.666, 716 367.677, 716 371.167 C 716 376.143, 720.077 374, 720.331 368.891 C 720.444 366.618, 720.995 365.500, 722 365.500 C 723.025 365.500, 723.438 366.392, 723.303 368.313 C 723.152 370.478, 723.497 371.050, 724.803 370.794 C 725.736 370.612, 726.546 369.571, 726.602 368.481 C 726.809 364.466, 727.023 363.896, 728.081 364.550 C 728.676 364.918, 728.899 366.267, 728.577 367.548 C 727.932 370.120, 729.307 371.553, 731.250 370.334 C 731.938 369.903, 733.259 369.675, 734.186 369.827 C 737.381 370.352, 748.356 354.118, 749.952 346.506 C 750.978 341.612, 754.465 341.708, 753.546 346.605 C 752.465 352.367, 742.931 368.420, 739.750 369.833 C 738.444 370.414, 738.940 372, 740.427 372 C 751.791 372, 760.835 334.651, 753.315 318.777 C 738.346 287.178, 688.488 287.477, 679.942 319.217 C 678.505 324.554, 675.396 324.189, 675.719 318.722 C 675.980 314.304, 677.931 310.287, 682.148 305.485 C 688.866 297.833, 667.812 288.398, 654.693 293.181 M 355.258 319.365 C 350.446 327.411, 342.119 335.324, 334.536 339.057 C 327.915 342.317, 327.915 342.317, 331.070 345.572 C 334.629 349.244, 334.264 351, 329.941 351 C 327 351, 327 351, 327.032 368.250 C 327.063 385.500, 327.063 385.500, 329.214 382.500 C 333.655 376.304, 340.756 370.292, 346.396 367.955 C 351.638 365.782, 352.100 365.344, 351.580 363.035 C 348.763 350.525, 349.798 340.333, 354.696 332.369 C 361.632 321.088, 364.112 315.689, 362.753 314.826 C 360.093 313.137, 358.353 314.191, 355.258 319.365 M 531.652 324.656 C 529.954 352.400, 530.583 358.678, 535.129 359.405 C 544.351 360.879, 556.701 369.891, 560.304 377.774 C 560.875 379.025, 562.278 380.214, 563.421 380.416 C 574.532 382.383, 577.831 383.294, 583.308 385.908 C 586.785 387.568, 592.637 391.682, 596.315 395.051 C 603 401.177, 603 401.177, 603.009 397.339 C 603.013 395.227, 603.301 391.137, 603.648 388.250 C 604.279 383, 604.279 383, 600.608 383 C 595.625 383, 595.096 380.920, 598.904 376.300 C 602.999 371.333, 602.873 371, 596.894 371 C 570.911 371, 542.495 345.492, 538.453 318.538 C 536.888 308.097, 532.419 312.116, 531.652 324.656 M 458.890 315.597 C 457.783 315.938, 456.933 318.186, 456.170 322.794 C 453.977 336.028, 443.160 352.324, 433.447 357.026 C 427.886 359.718, 428.030 359.886, 437.256 361.489 C 460.273 365.486, 475 383.881, 475 408.636 C 475 414.563, 475.155 415.002, 477.250 415.022 C 478.488 415.034, 481.480 415.942, 483.899 417.040 C 489.366 419.520, 489.169 419.927, 486.823 411 C 481.921 392.339, 489.624 372.857, 505.606 363.491 C 513.504 358.862, 508.466 340.540, 495.642 327.256 C 487.496 318.817, 468.258 312.714, 458.890 315.597 M 376.739 319.374 C 356.910 326.745, 349.429 347.580, 359.197 368.233 C 375.344 402.374, 407.383 399.171, 420.123 362.142 C 429.084 336.097, 402.431 309.823, 376.739 319.374 M 196.500 322.738 C 164.485 327.415, 149.702 367.926, 169.022 398.035 C 172.318 403.171, 172.318 403.171, 177.693 397.138 C 187.322 386.327, 199.004 381, 213.082 381 C 220.801 381, 220.801 381, 221.955 376.188 C 222.590 373.541, 224.388 369.153, 225.951 366.438 C 228.792 361.500, 228.792 361.500, 225.447 355.496 C 221.209 347.887, 219 339.438, 219 330.837 C 219 322.353, 213.266 320.288, 196.500 322.738 M 650.782 341.938 C 626.892 351.278, 621.307 378.579, 638.498 401.997 C 651.937 420.305, 667.842 421.308, 683.612 404.842 C 712.837 374.327, 688.282 327.278, 650.782 341.938 M 772.500 341.870 C 766.117 343.536, 760 348.053, 760 351.102 C 760 353.505, 753.584 365.654, 749.853 370.316 C 748.174 372.415, 746.957 374.267, 747.150 374.432 C 747.342 374.597, 749.191 375.520, 751.257 376.483 C 761.237 381.136, 769.981 395.590, 770.911 408.974 C 772.587 433.088, 806.828 415.109, 813.031 386.859 C 819.074 359.333, 797.470 335.352, 772.500 341.870 M 252.223 352.052 C 223.425 357.795, 216.450 396.584, 239.979 420.134 C 254.262 434.430, 268.134 434.509, 282.493 420.378 C 310.368 392.944, 289.002 344.717, 252.223 352.052 M 310.436 357.250 C 308.319 360.688, 304.613 365.616, 302.201 368.203 C 297.814 372.906, 297.814 372.906, 298.907 378.002 C 299.508 380.805, 300 386.045, 300 389.646 C 300 396.194, 300 396.194, 304.827 400.535 C 310.530 405.662, 315.596 414.653, 317.154 422.415 C 318.367 428.452, 319.139 429.495, 323.143 430.500 C 325.775 431.160, 325.775 431.160, 324.403 425.330 C 323.383 420.994, 323.027 410.724, 323.016 385.250 C 322.998 346.553, 320.477 340.943, 310.436 357.250 M 518 363.879 C 488.217 370.463, 480.669 409.800, 504.598 433.729 C 518.252 447.382, 534.486 447.537, 547.674 434.139 C 576.416 404.941, 555.566 355.575, 518 363.879 M 617.263 367.500 C 610.050 370.969, 610.034 371.007, 614 375.157 C 618.316 379.674, 617.620 382, 611.953 382 C 602.662 382, 607.657 413.499, 618.700 424.542 C 627.870 433.712, 649.874 439.526, 655.212 434.188 C 656.129 433.271, 656.013 433, 654.700 433 C 652.348 433, 652.566 431.613, 655.646 426.958 C 657.102 424.759, 658.114 422.798, 657.896 422.600 C 657.678 422.402, 655.028 420.998, 652.006 419.480 C 636.270 411.572, 625.416 394.047, 624.148 374.500 C 623.500 364.500, 623.500 364.500, 617.263 367.500 M 421.943 372.114 C 417.546 380.823, 407.324 391.223, 399.256 395.195 C 392.907 398.320, 392.907 398.320, 396.568 402.070 C 400.935 406.542, 400.412 408, 394.441 408 C 384.322 408, 392.646 432.114, 406.746 443.643 C 439.513 470.436, 484.593 426.148, 465.021 386.391 C 455.862 367.787, 428.675 358.776, 421.943 372.114 M 346 373.103 C 310.297 394.483, 332.716 476.216, 370.812 463.563 C 379.911 460.540, 395.259 444.806, 394.251 439.533 C 393.562 435.928, 392.203 436.401, 391.431 440.514 C 391.069 442.447, 390.227 444.359, 389.561 444.764 C 388.894 445.169, 388.060 446.288, 387.706 447.250 C 387.352 448.212, 386.374 449, 385.531 449 C 384.689 449, 383.982 449.788, 383.961 450.750 C 383.885 454.182, 371 461.953, 371 458.567 C 371 457.705, 371.689 457, 372.531 457 C 373.374 457, 374.322 456.325, 374.638 455.500 C 374.955 454.675, 375.650 454, 376.184 454 C 377.564 454, 383.556 447.809, 383.221 446.728 C 383.068 446.233, 383.856 445.589, 384.971 445.297 C 386.104 445.001, 387 443.935, 387 442.883 C 387 441.848, 387.450 441, 388 441 C 388.550 441, 389 439.913, 389 438.583 C 389 437.254, 389.557 435.981, 390.238 435.754 C 391.208 435.431, 391.185 434.709, 390.131 432.421 C 387.797 427.354, 386 419.100, 386 413.451 C 386 408, 386 408, 381.969 408 C 376.801 408, 376.040 406.126, 379.412 401.705 C 382.757 397.318, 382.915 397.705, 376.250 393.960 C 373.087 392.184, 367.462 387.574, 363.750 383.716 C 360.038 379.859, 357 377.219, 357 377.851 C 357 378.483, 356.052 379, 354.894 379 C 353.736 379, 351.083 380.350, 349 382 C 344.834 385.300, 343 385.771, 343 383.540 C 343 381.298, 348.066 377.080, 352.291 375.804 C 354.888 375.019, 355.912 374.214, 355.541 373.247 C 355.244 372.471, 355 371.648, 355 371.418 C 355 370.176, 349.019 371.296, 346 373.103 M 719.257 378.119 C 689.870 389.414, 691.208 435.801, 721.365 451.186 C 741.880 461.652, 770.302 432.931, 765.952 406.129 C 762.336 383.856, 739.684 370.268, 719.257 378.119 M 205.780 386.020 C 177.529 390.843, 163.581 423.053, 177.860 450.497 C 194.034 481.585, 235.448 486.630, 253.330 459.691 C 259.004 451.142, 258.797 447.920, 252.536 447.354 C 246.212 446.782, 246.339 447.104, 250.059 441.059 C 251.805 438.221, 253.068 435.777, 252.867 435.628 C 252.665 435.478, 250.287 434.088, 247.582 432.538 C 233.695 424.579, 221 404.683, 221 390.878 C 221 388.810, 220.662 386.924, 220.250 386.686 C 218.471 385.663, 210.124 385.278, 205.780 386.020 M 564.548 386.750 C 573.621 407.587, 556.339 441.523, 532.643 449.402 C 530.985 449.953, 531.181 450.458, 534.455 454.082 C 538.822 458.915, 538.045 461, 531.878 461 C 527.646 461, 527.277 461.721, 529.418 465.800 C 535.141 476.702, 552.725 484.433, 566.311 482.022 C 609.853 474.292, 622.516 411.544, 584.519 391.793 C 574.714 386.696, 563.266 383.805, 564.548 386.750 M 817.062 391.250 C 812.611 406.326, 800.174 419.886, 786.666 424.390 C 784.993 424.948, 785.091 425.329, 787.784 428.751 C 795.037 437.965, 797.104 455.061, 792.138 464.750 C 790.940 467.087, 790.386 469, 790.907 469 C 792.775 469, 797.355 457.526, 797.800 451.734 C 798.387 444.090, 800.006 443.315, 799.978 450.691 C 799.964 454.310, 799.207 458.151, 797.969 460.880 C 796.765 463.533, 796.503 464.827, 797.305 464.162 C 799.122 462.654, 803.864 451.914, 804.662 447.500 C 805.364 443.616, 806.011 442.611, 807.106 443.706 C 807.826 444.426, 807.803 446.092, 807.031 449.123 C 804.745 458.101, 802.535 462.114, 796.656 467.962 C 790.624 473.963, 790.951 474.640, 798.898 472.605 C 834.174 463.567, 847.333 421.474, 824.018 392.250 C 818.959 385.908, 818.652 385.864, 817.062 391.250 M 298.305 403.750 C 292.824 418.913, 281.782 430.916, 269.500 435.059 C 263.516 437.077, 263.269 437.650, 266.802 441.296 C 270.496 445.107, 270.872 447, 267.934 447 C 264.451 447, 262 448.901, 262 451.601 C 262 452.993, 261.484 455.095, 260.854 456.272 C 259.835 458.176, 260.231 458.886, 264.435 462.692 C 291.212 486.935, 327.753 438.336, 305.488 408.091 C 300.793 401.714, 299.355 400.844, 298.305 403.750 M 687.994 407.507 C 684.867 410.835, 684.621 463.417, 687.721 465.750 C 693.142 469.829, 716 461.021, 716 454.852 C 716 453.025, 713.343 454.221, 710.048 457.532 C 706.652 460.944, 705 461.807, 705 460.169 C 705 459.712, 706.130 458.733, 707.512 457.994 C 709.184 457.099, 709.842 456.079, 709.482 454.943 C 709.156 453.915, 709.588 452.988, 710.571 452.611 C 711.878 452.110, 711.062 450.754, 706.463 445.787 C 697.121 435.697, 691.372 421.273, 692.160 409.906 C 692.547 404.324, 691.533 403.740, 687.994 407.507 M 677.640 416.844 C 676.068 418.491, 673.705 420.108, 672.390 420.438 C 669.262 421.223, 669.375 422.221, 673 425.846 C 677.812 430.658, 676.693 433, 669.585 433 C 662.473 433, 665.917 447.611, 675.301 457.250 C 682.037 464.168, 682.016 464.208, 681.876 444.750 C 681.674 416.765, 681.131 413.188, 677.640 416.844 M 472.375 421.750 C 469.402 431.002, 465.045 437.745, 457.216 445.213 C 454.023 448.258, 449.490 451.730, 447.141 452.928 C 442.872 455.106, 442.872 455.106, 445.436 459.481 C 448.170 464.146, 448.614 466, 447 466 C 446.450 466, 444.762 463.756, 443.250 461.014 C 440.850 456.664, 437 454.088, 437 456.834 C 437 459.299, 452.511 474.103, 457.784 476.670 C 484.117 489.493, 516.216 462.532, 502.038 439.500 C 493.623 425.831, 474.702 414.509, 472.375 421.750 M 769.146 426.908 C 765.635 438.627, 744.991 459, 736.628 459 C 735.733 459, 735 459.380, 735 459.845 C 735 461.275, 738.669 464.100, 740.125 463.792 C 740.976 463.611, 741.620 464.547, 741.816 466.250 C 742.058 468.348, 741.702 469.008, 740.316 469.033 C 737.377 469.087, 742.325 472.725, 751 476.889 C 773.290 487.588, 793.909 469.515, 789.013 443.570 C 786.345 429.428, 782.115 433.918, 781.777 451.250 C 781.522 464.362, 781.352 465.500, 779.645 465.500 C 777.918 465.500, 777.801 464.515, 777.943 451.196 C 778.095 436.892, 778.095 436.892, 774.733 437.522 C 769.427 438.518, 768.225 436.189, 771.426 431.117 C 774.782 425.800, 774.895 424.961, 772.384 423.986 C 770.545 423.271, 770.121 423.654, 769.146 426.908 M 658.820 435.250 C 657.936 441.472, 638.980 442.645, 627.998 437.157 C 620.203 433.262, 618.112 462.161, 625.820 467.262 C 642.277 478.153, 672.091 467.148, 665.123 452.755 C 663.980 450.394, 662.504 444.983, 661.843 440.731 C 660.655 433.088, 659.440 430.885, 658.820 435.250 M 402 461.837 C 402 471.455, 402.401 478.130, 403 478.500 C 403.648 478.900, 404 474.344, 404 465.559 C 404 454.173, 404.240 452, 405.500 452 C 406.759 452, 407 454.167, 407 465.500 C 407 473.833, 407.383 479, 408 479 C 408.611 479, 409 474.314, 409 466.941 C 409 459.156, 409.354 455.101, 410 455.500 C 410.565 455.849, 411 460.718, 411 466.681 C 411 479.629, 413.687 480.450, 414.208 467.662 C 414.488 460.804, 414.560 460.616, 415.905 463.238 C 417.310 465.975, 417.310 465.975, 420.613 462.238 C 424.848 457.446, 424.849 457.451, 419.349 456.066 C 413.441 454.579, 409.927 452.753, 405.513 448.878 C 402 445.793, 402 445.793, 402 461.837 M 334.492 457.645 C 331.882 462.490, 325.854 467.455, 319.262 470.187 C 310.896 473.655, 311.785 552.475, 320.451 575.500 C 330.043 600.988, 357.407 626.898, 382.806 634.542 C 389.053 636.422, 389.065 636.464, 380.428 626.391 C 353.513 595.001, 346.393 571.360, 350.402 526.700 C 353.537 491.776, 352.733 478, 347.559 478 C 341.592 478, 341.148 476.685, 345.493 471.876 C 349.151 467.827, 349.151 467.827, 342.870 461.164 C 339.415 457.499, 336.549 454.405, 336.501 454.289 C 336.452 454.174, 335.548 455.684, 334.492 457.645 M 603.626 461.122 C 596.703 473.438, 585.072 482.625, 571.448 486.537 C 563.943 488.692, 564.175 488.297, 567.915 492.556 C 571.751 496.925, 570.742 499.422, 565.392 498.798 C 562.173 498.422, 562.173 498.422, 561.727 557.461 C 561.349 607.344, 561.028 617.575, 559.654 623.431 C 557.602 632.183, 557.731 632.241, 562.906 624.903 C 573.836 609.405, 589.894 592.984, 605.500 581.347 C 611.967 576.525, 615.810 572.939, 616.377 571.195 C 625.768 542.320, 614.187 442.336, 603.626 461.122 M 717.606 461.041 C 714.142 464.082, 714.142 464.082, 713.734 503.791 C 713.082 567.398, 705.841 582.317, 661.461 611.497 C 623.592 636.397, 608.271 652.147, 598.481 676.239 C 583.355 713.465, 590.550 749, 613.215 749 C 626.989 749, 636.307 738.356, 654.822 701.474 C 672.032 667.190, 676.894 660.770, 711.971 626 C 744.586 593.671, 752.020 583.145, 759.434 558.796 C 764.664 541.617, 766.907 496.215, 762.500 496.737 C 755.945 497.514, 754.903 495.698, 758.572 489.886 C 759.987 487.645, 760.999 485.695, 760.822 485.553 C 760.645 485.411, 758.250 484.746, 755.500 484.074 C 749.591 482.632, 741.974 478.212, 736.750 473.195 C 733 469.594, 733 469.594, 733 505.370 C 733 538.905, 732.890 541.126, 731.250 540.810 C 729.634 540.499, 729.462 537.759, 729 504.987 C 728.500 469.500, 728.500 469.500, 723.500 469.190 C 716.722 468.770, 716.163 467.845, 719.865 463.171 C 724.712 457.051, 723.477 455.886, 717.606 461.041 M 252.500 467.731 C 247.212 473.737, 239.971 478.514, 232.272 481.076 C 224.994 483.498, 225.036 483.410, 229.132 487.636 C 232.874 491.497, 232.420 493.739, 227.807 494.182 C 224.500 494.500, 224.500 494.500, 224.654 524.500 C 224.951 582.251, 228.578 590.895, 273.389 640.633 C 286.574 655.268, 293.355 664.395, 307.049 685.939 C 324.957 714.113, 335.116 725.982, 348.840 734.761 C 380.174 754.805, 412.892 753.805, 422.621 732.506 C 434.440 706.631, 416.456 652.227, 395.774 651.286 C 341.413 648.813, 288.625 607.133, 278.331 558.557 C 277.260 553.502, 276.684 542.208, 276.300 518.750 C 275.765 486, 275.765 486, 273.317 486 C 268.002 486, 266.473 484.169, 269.276 481.161 C 274.069 476.018, 274.359 474.391, 270.752 472.897 C 268.992 472.168, 265.184 469.643, 262.290 467.286 C 259.396 464.929, 256.909 463.042, 256.764 463.094 C 256.619 463.146, 254.700 465.233, 252.500 467.731 M 670.920 467.112 C 668.947 469.884, 668.288 470.168, 664.891 469.712 C 662.245 469.357, 660.703 469.653, 659.852 470.678 C 659.177 471.491, 656.443 473.262, 653.776 474.614 C 648.548 477.263, 648.552 477.206, 653.168 483.144 C 657.047 488.135, 656.855 489.806, 652.361 490.190 C 648.722 490.500, 648.722 490.500, 648.900 507.500 C 649.231 539.114, 644.904 552.253, 628.879 568.281 C 620.914 576.248, 619.957 577.621, 618.557 583.083 C 614.623 598.440, 605.284 614.815, 592.543 628.695 C 574.714 648.118, 630.277 620.123, 650.679 599.403 C 674.375 575.338, 680.672 555.892, 681.084 505.500 C 681.410 465.720, 681.676 468.596, 677.443 466.099 C 673.033 463.497, 673.552 463.416, 670.920 467.112 M 520.032 467.941 C 519.460 469.008, 516.069 471.804, 512.496 474.153 C 505.374 478.836, 501.643 614.101, 508.342 624.770 C 509.630 626.821, 512.353 632.325, 514.393 637 C 516.433 641.675, 518.467 646.180, 518.911 647.012 C 519.356 647.844, 520.570 651.219, 521.610 654.512 C 523.495 660.486, 523.501 660.269, 523.758 564.500 C 523.900 511.700, 523.801 467.938, 523.539 467.250 C 522.837 465.409, 521.216 465.728, 520.032 467.941 M 419.983 469.544 C 419.451 470.943, 418.741 473.182, 418.406 474.519 C 418.070 475.857, 415.976 479.017, 413.753 481.543 C 409.711 486.136, 409.711 486.136, 412.908 490.672 C 416.839 496.249, 416.639 498.389, 412.144 498.821 C 408.338 499.186, 407.665 573.670, 411.315 590.610 C 417.121 617.560, 438.134 653.188, 451.076 658.029 C 458.683 660.873, 471.262 668.356, 477.679 673.853 C 483.522 678.859, 483.721 677.984, 483.891 646.474 C 484.104 607.212, 480.064 588.321, 468.611 575.022 C 431.682 532.140, 423.896 514.759, 426.992 482.110 C 428.487 466.348, 428.596 467, 424.475 467 C 421.619 467, 420.767 467.483, 419.983 469.544 M 431.636 471.640 C 428.357 495.562, 432.412 516.583, 444.083 536.161 C 450.723 547.300, 472.932 575, 475.222 575 C 475.650 575, 476 556.942, 476 534.872 C 476 494.744, 476 494.744, 472.117 495.365 C 466.050 496.335, 464.878 494.042, 469.026 489.318 C 472.278 485.614, 472.278 485.614, 466.889 484.485 C 457.762 482.572, 445.469 475.652, 439.595 469.119 C 436.002 465.122, 432.372 466.272, 431.636 471.640 M 360 470.917 C 360 471.421, 361.198 472.706, 362.662 473.773 C 366.242 476.380, 365.253 479, 360.690 479 C 357.317 479, 357.317 479, 356.648 498.250 C 356.279 508.837, 355.541 521.550, 355.007 526.500 C 350.469 568.545, 358.711 594.867, 386.100 625.808 C 394.745 635.573, 397.070 637.065, 406.655 638.997 C 410.097 639.690, 417.536 642.807, 424.750 646.577 C 431.488 650.099, 437 652.800, 437 652.580 C 437 652.360, 433.562 647.302, 429.361 641.340 C 408.681 611.995, 405.006 597.044, 404.989 542.178 C 404.976 500.707, 404.824 499.006, 401.119 498.985 C 396.452 498.957, 395.253 497.535, 397.165 494.292 C 402.626 485.032, 402.666 484.908, 400.616 483.653 C 399.580 483.019, 396.629 480.870, 394.058 478.878 C 380.015 467.998, 379.002 471.057, 378.985 524.377 C 378.976 552.772, 378.583 573.112, 378.026 573.992 C 375.340 578.241, 374.829 572.869, 374.875 540.864 C 374.958 484.184, 374.379 475.169, 370.638 474.805 C 368.260 474.574, 367.423 473.955, 367.180 472.250 C 366.856 469.965, 360 468.691, 360 470.917 M 621.795 519.767 C 621.633 546.570, 621.654 568.725, 621.843 569 C 623.211 570.994, 637.869 549.919, 640.820 541.716 C 645.508 528.682, 645.445 489.506, 640.737 490.390 C 635.554 491.362, 634.301 489.290, 636.941 484.116 C 639.661 478.784, 639.570 478.277, 635.750 477.484 C 633.962 477.113, 630.158 475.510, 627.295 473.922 C 622.090 471.033, 622.090 471.033, 621.795 519.767 M 285.750 473.692 C 283.359 474.313, 283.529 475.133, 286.943 479.429 C 290.636 484.075, 290.035 486, 284.893 486 C 277.509 486, 279.425 552.442, 287.394 572.741 C 302.494 611.202, 355.780 647.488, 396.381 646.959 C 401.768 646.889, 394.482 641.629, 387.095 640.255 C 361.777 635.547, 328.295 606.900, 317.250 580.497 C 310.924 565.374, 310.652 562.980, 310.053 517.075 C 309.500 474.649, 309.500 474.649, 300 474.552 C 294.775 474.499, 289.825 474.181, 289 473.846 C 288.175 473.512, 286.712 473.442, 285.750 473.692 M 527.989 565.750 C 527.983 616.763, 527.693 660.300, 527.345 662.500 C 526.712 666.500, 526.712 666.500, 531.313 660.305 C 535.576 654.566, 544.882 647, 547.678 647 C 549.521 647, 549.958 645.841, 553.259 632.192 C 558.474 610.625, 558.741 497.843, 553.574 498.682 C 548.722 499.469, 547.938 497.140, 551.383 492.169 C 554.738 487.328, 554.766 487.430, 549.682 486.150 C 543.885 484.691, 536.989 480.729, 532.875 476.495 C 531.019 474.585, 529.163 473.017, 528.750 473.011 C 528.337 473.005, 527.995 514.737, 527.989 565.750 M 496.736 478.534 C 495.216 479.851, 492.066 481.446, 489.736 482.078 C 487.406 482.711, 484.938 483.388, 484.250 483.583 C 482.375 484.115, 482.723 485.517, 485.572 488.903 C 488.613 492.517, 488.229 493.547, 483.511 494.432 C 475.642 495.908, 478.518 580.923, 486.783 591.126 C 490.513 595.732, 495.079 601.623, 496.929 604.218 C 501.916 611.212, 501.789 612.990, 501.327 542.766 C 500.870 473.457, 500.971 474.865, 496.736 478.534 M 606.508 586.140 C 589.469 599.040, 553.205 640.539, 556.284 643.617 C 565.277 652.610, 602.047 616.765, 611.979 589.323 C 615.140 580.591, 614.404 580.163, 606.508 586.140 M 484.355 599.500 C 488.207 621.930, 488.392 624.131, 488.356 647 C 488.336 659.925, 487.871 673.315, 487.324 676.755 C 486.330 683.010, 486.330 683.010, 491.733 691.080 C 497.408 699.557, 500.667 706.245, 501.814 711.768 C 502.191 713.585, 502.339 694.245, 502.142 668.790 C 501.735 616.193, 502.496 620.852, 491.776 605.294 C 484.995 595.452, 483.453 594.248, 484.355 599.500 M 506.509 685.750 C 506.839 735.056, 507.036 740.299, 508.895 749.170 C 511.973 763.858, 512.023 764, 514.108 764 C 516.394 764, 516.412 763.300, 514.444 751 C 510.148 724.156, 511.607 700.690, 518.574 684.574 C 520.458 680.215, 522 675.695, 522 674.531 C 522 668.903, 508.839 632.022, 506.825 632.006 C 506.454 632.003, 506.312 656.188, 506.509 685.750 M 454.673 669.250 C 467.655 688.514, 471.693 704.423, 472.669 740.156 C 473.640 775.717, 477.289 777.056, 478.371 742.250 C 478.743 730.288, 479.760 712.415, 480.630 702.534 C 482.462 681.740, 479.834 677.518, 458.283 666.635 C 451.036 662.974, 450.638 663.262, 454.673 669.250 M 536.756 667.395 C 527.363 673.898, 528 672.108, 528 691.993 C 528 749.322, 529.052 764, 533.161 764 C 537 764, 537 764, 537.002 738.250 C 537.006 704.961, 538.849 681.483, 542.655 666.250 C 543.397 663.280, 542.427 663.468, 536.756 667.395 M 520.272 692.046 C 515.729 705.208, 515.013 717.777, 517.568 739.500 C 518.409 746.650, 519.363 755.087, 519.688 758.250 C 523 790.529, 525.959 737.199, 523.167 695.546 C 522.500 685.592, 522.500 685.592, 520.272 692.046 M 486.020 692.500 C 485.995 693.050, 485.315 700.250, 484.508 708.500 C 481.376 740.517, 482.439 764, 487.018 764 C 490.956 764, 492.128 733.074, 489.392 701.346 C 488.957 696.306, 486.174 689.004, 486.020 692.500 M 494.368 716.500 C 494.711 723.650, 494.994 737.263, 494.996 746.750 C 495 764, 495 764, 497.953 764 C 502.527 764, 502.929 736.728, 498.631 718 C 494.696 700.851, 493.598 700.465, 494.368 716.500 M 459.571 770.571 C 456.640 773.503, 457.260 876.369, 460.223 878.443 C 462.154 879.796, 468.340 880, 507.500 880 C 546.660 880, 552.846 879.796, 554.777 878.443 C 557.740 876.369, 558.360 773.503, 555.429 770.571 C 553.046 768.189, 461.954 768.189, 459.571 770.571 M 319.761 777.092 C 291.909 786.586, 291.121 786.906, 289.886 789.213 C 289.286 790.334, 288.192 803.008, 287.455 817.376 C 286.719 831.744, 285.604 853.240, 284.978 865.144 C 283.854 886.500, 284.172 890.377, 287.276 893.204 C 287.399 893.317, 298.300 893.654, 311.500 893.954 C 335.500 894.500, 335.500 894.500, 335.789 903.250 C 336.072 911.837, 322.444 917.059, 316.968 910.462 C 312.085 904.578, 269.798 910.134, 251.500 919.063 C 236.991 926.143, 279.769 931.600, 318 927.546 C 326.594 926.635, 362.590 925.175, 378.628 925.088 C 391.448 925.018, 395.003 924.701, 395.964 923.544 C 398.387 920.623, 396.009 920, 382.441 920 C 369 920, 369 920, 368.999 908.250 C 368.998 896.500, 368.998 896.500, 386.956 896.793 C 411.856 897.200, 409.007 904.388, 408.968 841.250 C 408.931 780.417, 410.551 786.832, 394.360 783.422 C 387.837 782.048, 375.300 779.089, 366.500 776.847 C 357.700 774.604, 348.142 772.188, 345.261 771.477 C 340.022 770.185, 340.022 770.185, 319.761 777.092 M 465.078 775.629 C 462.305 779.153, 462.234 818.500, 465 818.500 C 466.272 818.500, 466.541 815.586, 466.771 799.355 C 467.114 775.140, 461.980 777.855, 507.797 777.661 C 555.167 777.460, 549 770.516, 549 824.051 C 549 878.139, 555.239 871.137, 507.358 870.784 C 465.047 870.471, 467.046 870.798, 467.015 864.180 C 467.002 861.313, 466.693 860.904, 464.750 861.180 C 460.832 861.737, 461.777 871.740, 465.959 873.978 C 470.820 876.579, 548.184 875.270, 550.914 872.541 C 554.760 868.695, 555.045 779.601, 551.223 775.778 C 547.299 771.852, 468.156 771.715, 465.078 775.629 M 335 777.028 C 334.175 777.576, 324.950 780.769, 314.500 784.124 C 290.301 791.892, 293.656 781.318, 289.870 861.734 C 288.438 892.128, 285.949 889, 311.563 889 C 335.934 889, 332.533 895.257, 334.986 845.904 C 338.793 769.334, 338.792 774.507, 335 777.028 M 342.610 784.250 C 342.297 788.788, 341.115 813.425, 339.983 839 C 338.850 864.575, 337.829 886.390, 337.712 887.477 C 337.458 889.848, 341.765 890.682, 356.845 891.181 C 365.141 891.455, 373.894 790.494, 366.238 782.838 C 365.453 782.053, 345.875 776, 344.121 776 C 343.603 776, 342.923 779.712, 342.610 784.250 M 664 778.237 C 647.022 782.465, 649 774.696, 649 837.157 C 649 892.237, 649 892.237, 657.750 891.597 C 679.667 889.996, 678.134 890.690, 677.514 882.648 C 677.211 878.717, 676.266 860.425, 675.414 842 C 672.289 774.417, 672.590 776.097, 664 778.237 M 677.310 788.829 C 680.783 860.806, 682.143 886.693, 682.507 887.750 C 683.382 890.291, 723.685 889.458, 725.069 886.870 C 726.242 884.680, 725.875 874.917, 722.467 817.500 C 721.684 804.300, 721.033 793.174, 721.021 792.776 C 720.980 791.386, 714.861 788.901, 695.846 782.551 C 676.699 776.157, 676.699 776.157, 677.310 788.829 M 313.507 788.063 C 294.864 794.132, 296.574 790.908, 295.140 822.703 C 294.476 837.441, 293.458 856.621, 292.879 865.325 C 291.488 886.213, 290.420 885, 310.200 885 C 330.080 885, 329.483 885.548, 330.429 866.425 C 330.808 858.766, 331.766 841.025, 332.558 827 C 334.576 791.287, 334.507 785.342, 332.066 784.035 C 329.568 782.699, 330.813 782.429, 313.507 788.063 M 371.698 783.636 C 359.859 795.474, 373.512 892, 387.025 892 C 407.049 892, 404.943 898.229, 404.909 839.076 C 404.881 791.116, 404.881 791.116, 401.691 790.104 C 399.936 789.548, 393.159 787.912, 386.632 786.470 C 380.105 785.027, 374.231 783.642, 373.580 783.392 C 372.929 783.142, 372.082 783.252, 371.698 783.636 M 625 787.855 C 600.070 794.122, 602.605 891.375, 627.709 891.773 C 645.529 892.057, 648.324 876.219, 644.367 797.373 C 643.574 781.570, 645.750 782.640, 625 787.855 M 681.812 786.512 C 680.475 789.447, 684.506 878.208, 686.113 881.211 C 691.423 891.134, 723.546 885.841, 722.561 875.205 C 722.270 872.067, 721.328 854.650, 720.468 836.500 C 718.692 799.052, 718.380 795.560, 716.678 794.148 C 710.206 788.776, 683.451 782.917, 681.812 786.512 M 315.796 792.410 C 299.415 797.684, 301.127 793.724, 299.501 830.098 C 298.730 847.369, 297.824 865.663, 297.489 870.750 C 296.879 880, 296.879 880, 308.875 880 C 326.986 880, 325.614 881.535, 326.471 860.322 C 326.867 850.520, 327.765 830.575, 328.466 816 C 329.974 784.697, 331.415 787.381, 315.796 792.410 M 685.715 789.618 C 685.375 789.958, 685.297 792.995, 685.540 796.368 C 685.784 799.741, 686.677 816.450, 687.526 833.500 C 690.065 884.524, 688.061 878.636, 703.177 879.472 C 719.899 880.397, 718.529 883.482, 716.565 849.338 C 715.653 833.477, 714.631 815.391, 714.295 809.147 C 713.592 796.100, 714.356 796.840, 696.205 791.655 C 685.639 788.637, 686.525 788.809, 685.715 789.618 M 388.200 845.200 C 386.510 846.890, 386.510 882.110, 388.200 883.800 C 390.735 886.335, 399.886 885.301, 400.615 882.397 C 401.297 879.681, 400.167 846.080, 399.350 844.757 C 398.592 843.531, 389.508 843.892, 388.200 845.200 M 490.413 888.917 C 483.339 896.048, 491.134 902, 507.548 902 C 525.095 902, 525.095 902, 524.798 895.750 C 524.540 890.336, 494.857 884.437, 490.413 888.917 M 474 909 C 474 910.961, 474.667 911, 508 911 C 541.333 911, 542 910.961, 542 909 C 542 907.039, 541.333 907, 508 907 C 474.667 907, 474 907.039, 474 909 M 154.676 919.402 C 153.710 921.921, 154.917 922, 194.167 922 C 232.333 922, 233 921.966, 233 920 C 233 917.376, 155.680 916.786, 154.676 919.402 M 780 920 C 780 922.001, 780.427 922.016, 831.250 921.759 C 876.024 921.533, 882.500 921.310, 882.500 920 C 882.500 918.690, 876.024 918.467, 831.250 918.241 C 780.427 917.984, 780 917.999, 780 920 M 430 933.500 C 430 934.820, 439.278 935, 507.500 935 C 575.722 935, 585 934.820, 585 933.500 C 585 932.180, 575.722 932, 507.500 932 C 439.278 932, 430 932.180, 430 933.500 M 676.345 934.543 C 675.398 937.012, 673.370 936.932, 750.175 937.436 C 825.903 937.933, 828.852 937.806, 826.594 934.152 C 825.358 932.152, 677.114 932.538, 676.345 934.543 M 236.627 949.529 C 235.703 951.936, 235.605 951.931, 288.500 952.224 C 337.925 952.497, 338.500 952.477, 338.500 950.500 C 338.500 947.742, 237.682 946.781, 236.627 949.529 M 356.190 950.750 C 356.496 952.337, 673.353 954.716, 678 953.167 C 690.288 949.069, 687.624 949, 517.427 949 C 364.086 949, 355.871 949.089, 356.190 950.750 M 545.340 964.557 C 544.081 967.838, 546.664 968.021, 590.561 967.761 C 633.746 967.504, 634.500 967.466, 634.500 965.500 C 634.500 962.717, 546.403 961.785, 545.340 964.557 M 642.380 964.452 C 641.093 967.806, 642.935 968, 675.809 967.985 C 708.393 967.969, 711.841 967.635, 710.677 964.601 C 709.791 962.292, 643.265 962.147, 642.380 964.452" stroke="none" fill="#252625" fill-rule="evenodd"/></svg>