<svg xmlns="http://www.w3.org/2000/svg" width="872" height="921" viewBox="0 0 872 921" version="1.1"><path d="M 0.496 461 C 0.496 714.275, 0.610 817.887, 0.750 691.250 C 0.890 564.612, 0.890 357.387, 0.750 230.750 C 0.610 104.112, 0.496 207.725, 0.496 461 M 391 149.334 C 391 149.828, 389.875 150.018, 388.500 149.755 C 387.125 149.492, 386 149.665, 386 150.139 C 386 150.612, 385.358 151, 384.573 151 C 383.788 151, 380.075 152.607, 376.323 154.571 C 369.560 158.110, 369.405 158.138, 358.749 157.821 C 352.836 157.644, 347.998 157.889, 347.999 158.363 C 347.999 158.838, 346.653 159.029, 345.008 158.788 C 343.362 158.546, 342.261 158.595, 342.562 158.895 C 343.397 159.730, 332.896 163.054, 331.720 162.327 C 331.152 161.976, 330.990 162.175, 331.360 162.773 C 331.735 163.381, 331.035 164.171, 329.765 164.574 C 328.519 164.969, 325.813 166.357, 323.750 167.659 C 321.688 168.960, 320 169.787, 320 169.496 C 320 167.325, 304.871 184.773, 302 190.256 C 298.500 196.940, 298.500 196.940, 288.939 196.910 C 282.949 196.891, 277.746 197.442, 275.006 198.386 C 272.602 199.214, 270.267 199.665, 269.817 199.387 C 269.368 199.109, 269 199.286, 269 199.780 C 269 200.275, 267.899 201.181, 266.554 201.794 C 265.208 202.407, 262.350 204.496, 260.202 206.436 C 258.055 208.376, 255.968 209.635, 255.565 209.232 C 255.163 208.829, 254.961 208.950, 255.116 209.500 C 255.272 210.050, 253.944 212.750, 252.165 215.500 C 250.386 218.250, 248.425 222.188, 247.807 224.250 C 247.189 226.313, 246.417 228, 246.092 227.999 C 245.260 227.998, 246.560 249.087, 247.535 251.411 C 248.208 253.014, 247.996 253.232, 246.217 252.767 C 245.050 252.462, 243.962 252.583, 243.798 253.036 C 243.634 253.489, 242.150 254.004, 240.500 254.180 C 238.850 254.356, 237.275 254.725, 237 255 C 235.477 256.523, 226.704 259.935, 225.780 259.364 C 225.167 258.985, 224.975 259.150, 225.340 259.741 C 225.882 260.618, 224.828 261.421, 222 262.281 C 220.334 262.788, 206.212 277.294, 203.537 281.246 C 201.770 283.856, 200.123 285.790, 199.877 285.543 C 199.630 285.297, 199.364 285.861, 199.285 286.798 C 199.206 287.734, 197.996 291.650, 196.596 295.500 C 195.197 299.350, 194.040 304.525, 194.025 307 C 194.005 310.477, 193.087 312.978, 189.988 318 C 185.728 324.904, 182 333.789, 182 337.038 C 182 338.117, 181.523 339, 180.941 339 C 180.359 339, 180.090 339.337, 180.343 339.750 C 185.247 347.723, 178.532 371.681, 172.588 367.422 C 172.265 367.190, 172.213 367.288, 172.474 367.641 C 172.735 367.993, 171.047 369.488, 168.724 370.962 C 163.162 374.493, 155.720 382.866, 152.899 388.769 C 151.655 391.371, 150.382 393.725, 150.069 394 C 149.179 394.782, 148.851 398.658, 148.716 410 C 148.534 425.356, 153.104 435.919, 165.598 449.017 C 170.982 454.662, 170.982 454.662, 167.009 459.988 C 164.823 462.918, 162.770 466.150, 162.446 467.172 C 162.121 468.193, 161.369 468.728, 160.773 468.360 C 160.136 467.966, 159.979 468.157, 160.391 468.823 C 160.776 469.446, 160.395 472.297, 159.545 475.159 C 156.611 485.039, 157.935 501.179, 162.385 509.779 C 163.318 511.583, 163.766 513.608, 163.381 514.279 C 162.995 514.951, 163.037 515.177, 163.474 514.782 C 163.912 514.387, 165.551 515.998, 167.117 518.363 C 168.683 520.727, 172.719 525.289, 176.086 528.501 C 182.208 534.340, 182.208 534.340, 181.104 539.837 C 176.009 565.206, 193.061 592.434, 218.250 599.149 C 220.862 599.845, 223 600.757, 223 601.176 C 223 601.595, 223.598 601.708, 224.329 601.427 C 225.607 600.937, 229.820 608.474, 229.250 610.230 C 229.113 610.653, 229.390 611, 229.867 611 C 230.764 611, 236.420 618.922, 236.471 620.250 C 236.487 620.663, 236.790 620.888, 237.145 620.750 C 238.323 620.293, 241.964 624.249, 241.322 625.288 C 240.975 625.850, 241.160 626.019, 241.732 625.666 C 242.305 625.312, 243.334 625.697, 244.018 626.522 C 245.867 628.750, 258.835 636.593, 264 638.607 C 269.928 640.919, 270.098 641.253, 269.822 650.010 C 269.692 654.140, 269.930 658.078, 270.352 658.760 C 270.773 659.442, 270.866 660, 270.559 660 C 270.252 660, 270.788 660.829, 271.750 661.843 C 273.006 663.165, 274.630 663.601, 277.500 663.387 C 282.899 662.983, 284.084 662.750, 283.535 662.202 C 283.280 661.946, 283.730 660.796, 284.535 659.646 C 285.448 658.343, 286.011 655.097, 286.030 651.027 C 286.058 645.112, 287.057 644.143, 288.177 648.947 C 288.355 649.710, 289.065 651.046, 289.757 651.917 C 298.063 662.384, 302.528 667.087, 308 671.135 C 311.575 673.780, 315.196 676.519, 316.047 677.222 C 316.898 677.925, 318.248 678.583, 319.047 678.685 C 319.846 678.787, 322.525 679.633, 325 680.564 C 329.531 682.270, 349 684.094, 349 682.812 C 349 682.434, 349.867 682.190, 350.926 682.269 C 352.758 682.407, 357.863 691.230, 357.250 693.198 C 357.113 693.639, 357.438 694, 357.974 694 C 359.132 694, 362.124 699.470, 361.460 700.373 C 361.207 700.718, 361.284 700.791, 361.631 700.536 C 361.978 700.280, 363.891 702.754, 365.881 706.033 C 367.871 709.312, 372.196 715.709, 375.492 720.248 C 378.788 724.786, 381.338 728.950, 381.159 729.500 C 380.980 730.050, 381.099 730.234, 381.424 729.909 C 384.409 726.924, 412.923 761.198, 415.012 770.280 C 421.611 798.983, 448.141 800.879, 456.620 773.253 C 460.540 760.479, 460.886 759.978, 477.647 742.754 C 486.091 734.077, 493 726.506, 493 725.930 C 493 725.353, 493.563 725.206, 494.250 725.601 C 494.938 725.997, 495.179 725.965, 494.787 725.531 C 494.396 725.097, 495.914 722.212, 498.162 719.121 C 505.431 709.122, 510.820 700.469, 515.348 691.525 C 519.780 682.769, 519.780 682.769, 531.640 682.586 C 542.021 682.426, 544.311 682.066, 550 679.696 C 553.575 678.206, 556.900 677.029, 557.388 677.079 C 557.877 677.130, 558.552 676.780, 558.888 676.302 C 559.225 675.825, 561.780 673.783, 564.568 671.766 C 570.993 667.114, 583.053 654.055, 583.806 650.934 C 585.252 644.933, 587.022 644.768, 586.767 650.657 C 586.620 654.044, 586.837 656.605, 587.250 656.348 C 587.663 656.092, 588 656.776, 588 657.868 C 588 660.286, 592.480 664.002, 595.385 663.993 C 597.909 663.986, 603.303 660.637, 602.341 659.675 C 601.970 659.304, 602.079 659.001, 602.583 659.001 C 603.087 659.002, 603.500 654.844, 603.500 649.760 C 603.500 640.517, 603.500 640.517, 609.427 638.162 C 626.105 631.536, 640.738 616.999, 646.599 601.235 C 646.653 601.089, 649.353 600.293, 652.599 599.467 C 666.314 595.975, 679.270 586.490, 685.677 575.251 C 687.323 572.365, 688.924 570.257, 689.235 570.568 C 689.546 570.879, 689.774 570.541, 689.742 569.817 C 689.608 566.745, 690.055 564.916, 690.824 565.391 C 691.277 565.671, 691.647 565.135, 691.646 564.200 C 691.639 559.054, 692.092 555.939, 692.785 556.367 C 693.713 556.941, 692.434 541.830, 691.187 537.500 C 690.379 534.693, 690.724 534.131, 696.564 528.751 C 703.451 522.406, 708.954 514.748, 711.762 507.600 C 712.771 505.031, 713.848 503.181, 714.156 503.489 C 714.796 504.130, 714.891 502.197, 714.863 489 C 714.836 476.366, 714.651 474, 713.691 474 C 713.246 474, 713.160 473.550, 713.500 473 C 713.840 472.450, 713.690 472, 713.167 472 C 712.645 472, 711.941 470.900, 711.603 469.556 C 711.266 468.212, 708.967 464.157, 706.495 460.546 C 701.082 452.639, 701.100 453.778, 706.316 449.796 C 708.690 447.983, 710.769 446.050, 710.935 445.500 C 711.521 443.560, 713.688 441.019, 714.340 441.506 C 714.703 441.778, 714.807 441.732, 714.571 441.405 C 714.336 441.077, 715.649 438.040, 717.489 434.655 C 724.233 422.252, 725.963 407.485, 722.120 395.136 C 721.085 391.813, 720.485 388.848, 720.786 388.547 C 721.087 388.246, 720.850 388, 720.260 388 C 719.668 388, 719.408 386.992, 719.680 385.750 C 720.046 384.083, 719.920 383.859, 719.194 384.885 C 718.406 385.999, 717.965 385.804, 716.939 383.885 C 716.236 382.573, 715.851 381.425, 716.081 381.333 C 716.311 381.242, 716.090 380.792, 715.590 380.333 C 715.062 379.850, 714.977 380.019, 715.389 380.734 C 715.779 381.412, 713.671 379.541, 710.706 376.575 C 707.591 373.461, 702.338 369.684, 698.268 367.635 C 691.223 364.087, 691.223 364.087, 691.331 352.294 C 691.471 336.932, 690.127 332.294, 680.519 315 C 679.755 313.625, 678.458 308.767, 677.637 304.204 C 675.017 289.634, 667.749 277.035, 656.600 267.734 C 653.245 264.936, 650.624 262.242, 650.775 261.748 C 650.926 261.255, 650.628 261.112, 650.113 261.430 C 648.735 262.282, 642.922 258.700, 643.441 257.319 C 643.702 256.624, 643.158 256.277, 642.122 256.476 C 639.837 256.917, 627.724 253.609, 628.560 252.773 C 628.911 252.423, 628.253 252.383, 627.099 252.684 C 625.606 253.075, 625 252.766, 625 251.617 C 625 250.727, 625.376 250, 625.835 250 C 626.294 250, 626.631 244.914, 626.585 238.698 C 626.395 213.353, 611.343 198.050, 585.753 197.186 C 574.005 196.789, 574.005 196.789, 570.773 190.645 C 566.348 182.231, 553.358 169.425, 545.298 165.531 C 541.919 163.897, 539.413 162.140, 539.731 161.626 C 540.049 161.112, 539.834 160.985, 539.253 161.344 C 538.242 161.969, 525.036 159.057, 524 157.980 C 523.725 157.695, 519.225 157.738, 514 158.077 C 504.500 158.693, 504.500 158.693, 495.371 154.213 C 482.990 148.138, 471.768 147.254, 460 151.428 C 455.875 152.891, 451.957 154.143, 451.294 154.211 C 450.631 154.278, 450.264 154.618, 450.479 154.967 C 450.695 155.315, 449.953 156.173, 448.831 156.874 C 447.156 157.920, 446.914 157.911, 447.482 156.824 C 448.414 155.040, 445.440 158.491, 440.111 165.377 C 435.723 171.049, 435.723 171.049, 434.193 168.775 C 432.423 166.141, 422.776 155.740, 421.418 155 C 420.913 154.725, 420.607 154.179, 420.738 153.786 C 420.869 153.393, 420.233 153.357, 419.324 153.706 C 418.257 154.115, 417.915 153.947, 418.358 153.230 C 418.761 152.577, 418.314 152.121, 417.272 152.121 C 416.297 152.121, 413.250 151.474, 410.500 150.685 C 404.586 148.986, 391 148.045, 391 149.334 M 426.653 623.831 C 425.741 624.838, 425.222 625.963, 425.498 626.331 C 425.774 626.699, 425.694 626.769, 425.319 626.486 C 424.276 625.698, 418.986 631.168, 419.690 632.308 C 420.030 632.858, 419.865 633.034, 419.322 632.699 C 418.778 632.363, 416.701 633.198, 414.705 634.555 C 412.709 635.911, 409.934 637.455, 408.538 637.986 C 406.724 638.675, 406 639.688, 406 641.534 C 406 643.233, 406.396 643.874, 407.155 643.405 C 407.858 642.970, 408.038 643.129, 407.616 643.813 C 406.710 645.278, 408.016 655.108, 409.033 654.480 C 409.462 654.214, 409.580 654.891, 409.294 655.984 C 409.008 657.076, 409.096 658.764, 409.489 659.735 C 409.882 660.706, 410.371 663.436, 410.575 665.802 C 410.780 668.169, 411.282 670.644, 411.693 671.302 C 412.103 671.961, 412.301 673.563, 412.133 674.862 C 411.917 676.534, 412.190 677.001, 413.068 676.458 C 413.869 675.963, 414.055 676.102, 413.594 676.848 C 412.600 678.456, 414.011 687.111, 415.152 686.406 C 415.692 686.072, 415.805 686.930, 415.422 688.457 C 414.959 690.301, 415.318 691.714, 416.631 693.212 C 417.659 694.385, 417.938 695.015, 417.250 694.613 C 416.472 694.158, 416 694.471, 416 695.441 C 416 696.298, 416.388 697, 416.861 697 C 417.335 697, 417.508 698.125, 417.245 699.500 C 416.982 700.875, 417.221 702, 417.776 702 C 418.332 702, 419.054 702.698, 419.382 703.552 C 419.723 704.442, 419.555 704.843, 418.989 704.493 C 418.445 704.157, 418 704.584, 418 705.441 C 418 706.298, 418.477 707, 419.059 707 C 419.641 707, 419.845 707.442, 419.511 707.983 C 419.176 708.524, 419.223 710.661, 419.614 712.733 C 420.005 714.805, 420.515 715.935, 420.748 715.244 C 420.980 714.553, 421.584 714.243, 422.088 714.554 C 422.643 714.897, 422.636 715.811, 422.072 716.866 C 420.955 718.952, 421.912 727.760, 423.054 725.912 C 423.478 725.227, 423.410 723.579, 422.905 722.250 C 422.399 720.920, 422.311 719.307, 422.708 718.666 C 423.105 718.025, 423.727 715.700, 424.090 713.500 C 424.750 709.500, 424.750 709.500, 424.875 713.857 C 424.973 717.290, 425.318 718.092, 426.500 717.638 C 427.325 717.322, 428 717.499, 428 718.031 C 428 718.564, 427.325 719, 426.500 719 C 425.196 719, 424.300 723.566, 424.882 727.250 C 424.947 727.663, 424.550 728, 424 728 C 422.413 728, 422.840 731.725, 424.500 732.362 C 425.382 732.700, 425.951 734.082, 425.882 735.719 C 425.763 738.500, 425.763 738.500, 425 735.500 C 424.305 732.770, 424.231 732.725, 424.179 735 C 424.055 740.435, 427.824 749.095, 428.097 744 C 428.319 739.835, 428.617 622.001, 428.405 622 C 428.353 622, 427.564 622.824, 426.653 623.831 M 444 684.309 C 444 718.789, 444.248 747, 444.551 747 C 446.468 747, 454.790 710.500, 453.587 707.366 C 453.240 706.463, 453.445 706.157, 454.118 706.573 C 454.878 707.042, 454.995 706.253, 454.500 704 C 454.050 701.953, 454.150 700.975, 454.768 701.357 C 455.981 702.106, 457.252 694.821, 456.329 692.415 C 455.853 691.175, 456.021 690.895, 456.911 691.445 C 457.762 691.971, 458.088 691.623, 457.928 690.359 C 457.798 689.337, 457.958 687.825, 458.283 687 C 459.018 685.134, 465.049 650.131, 465.692 644 C 466.164 639.500, 466.164 639.500, 461.290 636.809 C 458.610 635.330, 454.358 632.307, 451.842 630.092 C 449.326 627.878, 446.910 626.388, 446.474 626.783 C 446.037 627.177, 445.937 627.045, 446.251 626.489 C 446.565 625.933, 446.188 624.609, 445.411 623.548 C 444.191 621.879, 444 630.089, 444 684.309 M 386.638 640.500 C 386.322 641.325, 386.350 642.749, 386.701 643.664 C 387.089 644.674, 386.937 645.079, 386.316 644.695 C 385.351 644.099, 379.296 657.587, 379.781 659.250 C 379.902 659.663, 379.614 660, 379.142 660 C 378.205 660, 370.825 670.701, 371.243 671.452 C 371.384 671.706, 370.636 672.546, 369.579 673.319 C 366.459 675.600, 367.643 684, 371.085 684 C 371.653 684, 371.850 684.434, 371.523 684.964 C 371.195 685.493, 371.806 686.806, 372.880 687.880 C 373.954 688.954, 374.571 690.096, 374.250 690.417 C 373.929 690.737, 374.218 691, 374.892 691 C 375.566 691, 375.892 691.366, 375.616 691.812 C 374.871 693.018, 378.512 698.142, 379.486 697.258 C 379.945 696.841, 379.955 697.131, 379.508 697.902 C 379 698.777, 379.259 699.716, 380.196 700.402 C 381.023 701.006, 381.824 701.950, 381.977 702.500 C 382.736 705.231, 383.300 705.933, 384.259 705.340 C 384.837 704.983, 385.022 705.156, 384.671 705.723 C 383.950 706.889, 390.541 716, 392.105 716 C 392.662 716, 392.882 716.382, 392.593 716.849 C 391.910 717.955, 405.918 733.169, 407.002 732.498 C 407.457 732.217, 408.019 732.328, 408.251 732.744 C 408.483 733.160, 408.521 732.901, 408.336 732.168 C 408.151 731.436, 408 729.918, 408 728.796 C 408 727.152, 407.725 726.983, 406.589 727.926 C 405.509 728.823, 405.004 728.815, 404.435 727.894 C 403.981 727.160, 404.113 726.952, 404.773 727.360 C 405.375 727.732, 406.158 727.078, 406.535 725.890 C 406.945 724.598, 406.725 723.448, 405.979 722.987 C 405.300 722.567, 405.012 721.790, 405.339 721.260 C 405.667 720.730, 405.348 717.421, 404.631 713.906 C 403.914 710.392, 403.103 707.963, 402.828 708.508 C 402.553 709.054, 402.477 708.905, 402.660 708.178 C 402.929 707.110, 392.312 649.507, 390.325 641.250 C 389.710 638.696, 387.503 638.247, 386.638 640.500 M 481.106 644.250 C 479.273 653.544, 477.938 661.806, 478.130 662.665 C 478.233 663.124, 478.057 664.175, 477.739 665 C 476.532 668.130, 472.944 691.101, 473.518 692.029 C 473.848 692.563, 473.718 693, 473.229 693 C 472.159 693, 468.637 710.603, 469.445 711.911 C 469.757 712.416, 469.582 712.980, 469.055 713.165 C 468.528 713.349, 467.936 715.092, 467.740 717.037 C 467.543 718.982, 467.026 721.149, 466.591 721.853 C 466.156 722.557, 466.066 723.399, 466.391 723.725 C 466.716 724.050, 466.577 724.807, 466.081 725.408 C 463.440 728.606, 463.667 734.562, 466.336 732.105 C 467.767 730.787, 468.658 729.255, 468.315 728.700 C 467.972 728.145, 468.151 727.976, 468.714 728.323 C 472.821 730.861, 509.376 678.259, 505.500 675.390 C 504.675 674.779, 504 673.973, 504 673.598 C 504 673.223, 503.057 671.923, 501.905 670.708 C 496.566 665.079, 486 645.815, 486 641.710 C 486 640.489, 484.070 639, 482.489 639 C 482.298 639, 481.676 641.362, 481.106 644.250" stroke="none" fill="#ffffff" fill-rule="evenodd"/><path d="M 391 166.034 C 389.745 166.874, 389.990 167.400, 392.500 169.252 C 405.791 179.062, 415.085 193.393, 417.470 207.750 C 417.858 210.088, 418.586 212, 419.088 212 C 419.590 212, 419.888 212.515, 419.750 213.144 C 419.504 214.273, 425.786 216.548, 426.679 215.654 C 429.413 212.920, 427.496 190.348, 423.800 181.757 C 418.657 169.803, 399.263 160.506, 391 166.034 M 465.358 166.091 C 451.690 170.051, 445.601 180.904, 445.270 201.895 C 445.126 211.019, 445.383 215.955, 445.954 215.048 C 446.457 214.249, 446.646 213.237, 446.375 212.798 C 446.104 212.359, 446.359 212, 446.941 212 C 447.523 212, 448 212.675, 448 213.500 C 448 214.433, 448.944 215, 450.500 215 C 452.557 215, 453.003 214.513, 453.015 212.250 C 453.026 210.365, 453.296 209.919, 453.875 210.833 C 454.587 211.954, 456.082 205.918, 456.435 200.500 C 456.471 199.950, 456.725 199.275, 457 199 C 457.275 198.725, 459.142 195.125, 461.148 191 C 465.481 182.093, 469.916 176.736, 477.973 170.679 C 483.295 166.679, 483.686 166.150, 481.708 165.619 C 478.501 164.760, 469.008 165.033, 465.358 166.091 M 344.105 175.583 C 317.807 182.654, 303.214 213.235, 314.081 238.500 C 317.062 245.431, 316.934 245.404, 328 241.416 C 338.334 237.692, 352.394 237.048, 362.991 239.813 C 370.483 241.768, 370.483 241.768, 376.266 236.414 C 382.145 230.971, 393.033 223.930, 398.535 222.012 C 401.569 220.954, 401.569 220.954, 400.885 212.990 C 398.582 186.193, 371.353 168.255, 344.105 175.583 M 504 175.433 C 476.280 183.158, 460.301 215.840, 479.567 225.404 C 485.879 228.537, 490.682 231.840, 495.052 236.050 C 501.388 242.155, 501.388 242.155, 507.444 240.349 C 517.936 237.221, 534.357 237.835, 545.500 241.771 C 556.056 245.499, 556.039 245.508, 559.982 234.339 C 571.900 200.578, 538.790 165.737, 504 175.433 M 275.491 214.865 C 254.453 224.423, 258.544 256.586, 280.750 256.199 C 282.538 256.168, 284 256.546, 284 257.040 C 284 257.533, 283.438 257.815, 282.750 257.666 C 282.063 257.517, 282.512 257.843, 283.750 258.391 C 284.988 258.938, 286 259.735, 286 260.162 C 286 260.588, 286.749 260.650, 287.664 260.299 C 288.702 259.900, 289.082 260.058, 288.674 260.719 C 288.314 261.301, 289.600 262.983, 291.532 264.457 C 293.465 265.931, 294.923 266.543, 294.773 265.818 C 294.623 265.093, 295.072 264.616, 295.772 264.757 C 296.472 264.899, 297.450 263.948, 297.945 262.644 C 298.441 261.340, 299.444 260.044, 300.173 259.764 C 302.818 258.751, 300.607 247, 297.772 247 C 297.282 247, 297.151 246.565, 297.479 246.034 C 297.807 245.503, 297.311 242.466, 296.375 239.284 C 295.333 235.738, 294.641 229.748, 294.587 223.802 C 294.508 214.989, 294.317 214.055, 292.500 213.566 C 288.255 212.423, 279.373 213.102, 275.491 214.865 M 579.750 213.562 C 579.337 213.986, 578.992 217.296, 578.983 220.917 C 578.973 224.537, 578.175 231.325, 577.208 236 C 576.242 240.675, 575.513 245.512, 575.589 246.750 C 575.665 247.988, 575.290 249, 574.756 249 C 574.223 249, 574.086 248.213, 574.452 247.250 C 575.507 244.479, 573.530 247.148, 572.182 250.314 C 571.229 252.553, 571.242 253.003, 572.242 252.517 C 572.934 252.182, 572.487 252.658, 571.250 253.576 C 568.977 255.261, 568.183 258, 569.968 258 C 570.500 258, 571.607 259.238, 572.428 260.750 C 573.249 262.262, 573.938 262.938, 573.960 262.250 C 573.982 261.563, 574.408 261, 574.906 261 C 575.405 261, 575.595 261.832, 575.329 262.850 C 574.936 264.352, 575.376 264.667, 577.673 264.528 C 579.811 264.399, 580.421 263.915, 580.175 262.543 C 579.942 261.242, 580.296 260.899, 581.425 261.333 C 582.291 261.665, 583 261.475, 583 260.910 C 583 260.344, 583.450 260.160, 584 260.500 C 584.550 260.840, 585 260.641, 585 260.059 C 585 259.477, 585.788 258.996, 586.750 258.990 C 587.712 258.985, 590.756 257.930, 593.513 256.646 C 596.270 255.362, 600.245 253.989, 602.346 253.595 C 611.823 251.817, 613.701 230.928, 605.284 220.925 C 600.528 215.273, 583 210.219, 579.750 213.562 M 334.488 256.931 C 318.525 262.617, 307.042 274.562, 304.503 288.122 C 303.826 291.744, 303.826 291.744, 311.078 293.381 C 320.597 295.531, 331.231 300.770, 337.750 306.523 C 340.910 309.311, 343 310.573, 343 309.693 C 343 299.524, 362.739 277.991, 377.584 271.966 C 394.516 265.094, 352.614 250.475, 334.488 256.931 M 511.265 256.542 C 493.115 261.429, 487.184 268.116, 496.652 273.015 C 506.278 277.997, 520.208 289.336, 522.191 293.804 C 522.361 294.187, 522.871 294.376, 523.324 294.225 C 523.778 294.074, 523.926 294.310, 523.654 294.750 C 523.383 295.190, 524.676 298.672, 526.530 302.488 C 529.084 307.748, 530.063 308.998, 530.579 307.656 C 530.952 306.682, 531.863 306.117, 532.602 306.401 C 533.341 306.684, 534.633 305.935, 535.473 304.736 C 536.313 303.536, 537 302.847, 537 303.205 C 537 303.562, 539.587 302.296, 542.750 300.391 C 548.573 296.884, 558.029 293.499, 565.212 292.350 C 569.873 291.605, 569.848 290.474, 564.944 280.341 C 555.663 261.159, 532.405 250.848, 511.265 256.542 M 385 286.038 C 367.974 292.123, 357.617 306.720, 356.289 326.500 C 355.778 334.128, 357.785 346.461, 359.784 347.962 C 360.178 348.258, 360.545 349.063, 360.600 349.750 C 360.836 352.695, 361.061 353.080, 362.155 352.405 C 362.835 351.984, 363.039 352.128, 362.651 352.755 C 360.611 356.056, 363.128 356.724, 368.805 354.389 C 371.937 353.101, 375.959 351.762, 377.741 351.414 C 379.524 351.066, 380.789 350.468, 380.553 350.086 C 380.023 349.228, 407.093 349.619, 412.242 350.545 C 414.477 350.946, 415.723 351.639, 415.336 352.266 C 414.925 352.930, 415.479 353.108, 416.844 352.751 C 418.030 352.441, 419 352.622, 419 353.153 C 419 353.684, 419.450 353.840, 420 353.500 C 420.550 353.160, 421 353.359, 421 353.941 C 421 354.523, 421.702 355, 422.559 355 C 423.416 355, 423.869 355.403, 423.565 355.895 C 423.260 356.388, 423.669 357.043, 424.474 357.352 C 426.745 358.223, 427.062 356.705, 425.910 350.473 C 425.255 346.926, 425.205 344.480, 425.781 344.107 C 427.614 342.918, 428.247 311.054, 426.550 305.414 C 421.486 288.582, 402.567 279.759, 385 286.038 M 466.500 284.938 C 452.430 288.379, 444.899 299.373, 444.632 316.863 C 444.224 343.587, 444.953 358.441, 446.574 356.441 C 447.440 355.374, 447.857 355.073, 447.501 355.772 C 447.119 356.525, 448.722 356.137, 451.427 354.823 C 453.942 353.601, 456 352.255, 456 351.832 C 456 351.409, 456.675 351.322, 457.500 351.638 C 458.325 351.955, 459 351.730, 459 351.138 C 459 350.546, 459.748 350.350, 460.664 350.701 C 461.685 351.093, 462.080 350.939, 461.687 350.302 C 461.252 349.599, 465.954 349.338, 476.273 349.492 C 492.004 349.728, 496.245 350.533, 504.844 354.920 C 508.951 357.016, 508.951 357.016, 510.861 353.258 C 528.251 319.028, 500.688 276.578, 466.500 284.938 M 225.591 306.118 C 218.934 307.679, 211.140 312.861, 206.410 318.868 C 192.394 336.671, 194.579 369.384, 209.500 365.119 C 210.050 364.962, 210.178 365.156, 209.784 365.550 C 208.834 366.499, 221.763 374.265, 223.010 373.494 C 223.542 373.165, 223.737 373.522, 223.443 374.288 C 223.149 375.053, 223.691 376.314, 224.646 377.090 C 225.769 378.001, 226.118 378.058, 225.633 377.250 C 225.169 376.477, 225.441 376, 226.347 376 C 227.276 376, 227.637 376.672, 227.333 377.833 C 227.014 379.053, 227.395 379.667, 228.470 379.667 C 229.374 379.667, 229.869 379.101, 229.594 378.384 C 229.276 377.555, 229.649 377.312, 230.652 377.697 C 231.504 378.024, 232.600 377.663, 233.086 376.896 C 233.825 375.727, 233.974 375.744, 234 377 C 234.027 378.309, 234.149 378.313, 234.958 377.034 C 235.467 376.228, 237.538 375.463, 239.560 375.334 C 241.581 375.204, 243.409 374.924, 243.622 374.711 C 244.281 374.053, 241.856 368, 240.934 368 C 240.455 368, 240.314 367.347, 240.620 366.548 C 240.926 365.749, 240.827 364.530, 240.400 363.837 C 235.979 356.684, 242.890 328.646, 252.123 316.280 C 256.020 311.059, 256.020 311.059, 253.573 309.456 C 247.670 305.588, 234.531 304.021, 225.591 306.118 M 627.230 306.486 C 616.023 309.640, 615.403 310.424, 619.865 315.789 C 629.442 327.303, 634.371 345.805, 631.905 360.980 C 631.323 364.566, 630.730 368.513, 630.588 369.752 C 630.446 370.990, 630.031 372.302, 629.665 372.668 C 628.650 373.683, 628.872 375, 630.059 375 C 630.641 375, 630.830 374.535, 630.479 373.966 C 630.128 373.397, 631.307 373.824, 633.099 374.914 C 634.892 376.004, 636.758 376.650, 637.246 376.348 C 637.734 376.046, 638.696 376.570, 639.384 377.511 C 640.537 379.087, 640.762 379.095, 642.254 377.603 C 643.160 376.697, 644.130 376.401, 644.457 376.931 C 644.779 377.451, 644.308 378.288, 643.412 378.790 C 641.942 379.612, 641.937 379.762, 643.357 380.307 C 644.421 380.715, 645.350 380.042, 646.217 378.235 C 646.922 376.763, 648.550 375.035, 649.834 374.395 C 651.118 373.755, 652.693 372.663, 653.334 371.969 C 654.229 371, 654.210 370.871, 653.250 371.412 C 652.563 371.800, 652 371.647, 652 371.070 C 652 370.494, 653.040 370.108, 654.311 370.214 C 655.582 370.319, 657.945 369.465, 659.561 368.315 C 661.178 367.166, 664.458 365.640, 666.850 364.925 C 673.014 363.081, 674.226 360.671, 674.764 349.189 C 676.144 319.738, 653.242 299.164, 627.230 306.486 M 290 309.362 C 268.234 314.091, 253.517 335.696, 257.040 357.749 C 258.213 365.092, 261.274 373, 262.944 373 C 263.525 373, 264 373.445, 264 373.989 C 264 375.467, 267.270 379, 268.639 379 C 269.296 379, 269.983 379.356, 270.167 379.791 C 270.659 380.961, 278.125 386.450, 279.402 386.582 C 280.006 386.644, 281.111 386.764, 281.857 386.848 C 282.607 386.932, 282.965 387.648, 282.658 388.449 C 282.287 389.416, 282.582 389.714, 283.545 389.344 C 284.339 389.040, 284.769 388.435, 284.500 388 C 283.941 387.095, 287.014 385.681, 287.810 386.476 C 288.098 386.764, 287.861 387, 287.283 387 C 286.706 387, 285.998 387.900, 285.710 389 C 285.423 390.100, 285.622 391, 286.153 391 C 286.684 391, 286.859 391.419, 286.543 391.931 C 286.226 392.443, 286.425 393.144, 286.984 393.490 C 287.543 393.835, 288 393.615, 288 393 C 288 392.385, 288.430 392.148, 288.956 392.473 C 289.482 392.798, 289.673 393.837, 289.381 394.782 C 288.896 396.348, 288.949 396.345, 289.978 394.743 C 290.875 393.347, 291.517 393.206, 293.109 394.058 C 294.210 394.648, 295.648 394.911, 296.305 394.644 C 297.194 394.282, 297.180 394.138, 296.250 394.079 C 295.563 394.036, 295 393.559, 295 393.020 C 295 392.465, 297.056 392.206, 299.750 392.423 C 302.363 392.633, 303.512 392.596, 302.305 392.340 C 300.900 392.042, 300.309 391.359, 300.662 390.438 C 301.285 388.816, 304 388.460, 304 390 C 304 390.550, 304.900 391, 306 391 C 307.619 391, 308 390.333, 308 387.500 C 308 385.575, 308.450 384, 309 384 C 309.550 384, 310 385.575, 310 387.500 C 310 391, 310 391, 315.500 391 C 318.525 391, 321 391.394, 321 391.875 C 321 392.356, 322.159 392.750, 323.575 392.750 C 325.411 392.750, 325.842 392.442, 325.075 391.675 C 323.561 390.161, 323.702 383.998, 325.250 384.008 C 327.367 384.021, 329.194 389.055, 327.734 390.854 C 326.704 392.123, 326.785 392.268, 328.221 391.730 C 329.239 391.348, 330.646 391.783, 331.665 392.792 C 333.262 394.375, 333.341 394.376, 332.750 392.815 C 332.399 391.888, 332.650 390.870, 333.306 390.554 C 333.963 390.237, 333.526 390.156, 332.336 390.373 C 330.852 390.644, 330.018 390.177, 329.680 388.885 C 329.044 386.451, 330.658 385.471, 332.620 387.100 C 334.559 388.709, 336.025 386.810, 335.220 383.733 C 334.825 382.225, 335.030 381.900, 335.997 382.498 C 336.847 383.023, 337.068 382.918, 336.624 382.200 C 335.315 380.083, 337.050 375.797, 338.672 377.142 C 339.464 377.800, 340.034 377.925, 339.938 377.419 C 339.560 375.433, 340.044 373.909, 340.887 374.430 C 341.374 374.731, 342.387 374.222, 343.137 373.297 C 344.307 371.854, 344.288 371.724, 343 372.382 C 341.667 373.063, 341.667 373.001, 343 371.821 C 343.825 371.090, 344.579 370.044, 344.676 369.496 C 344.773 368.948, 345.187 367.639, 345.596 366.586 C 346.034 365.458, 345.953 364.911, 345.397 365.255 C 344.878 365.575, 344.407 364.187, 344.350 362.169 C 343.301 325.403, 320.068 302.831, 290 309.362 M 565.121 309.127 C 551.725 311.352, 538.455 321.837, 534.001 333.715 C 531.186 341.220, 526.115 366.953, 527.305 367.688 C 527.805 367.997, 527.662 368.591, 526.989 369.007 C 526.135 369.535, 527.057 371.057, 530.036 374.036 C 532.386 376.386, 533.789 377.987, 533.153 377.594 C 532.517 377.201, 533.229 379.342, 534.735 382.352 C 536.241 385.362, 537.770 387.642, 538.132 387.418 C 538.494 387.195, 539.057 387.707, 539.384 388.558 C 539.724 389.443, 539.555 389.843, 538.989 389.493 C 537.370 388.493, 537.865 390.611, 539.810 393.014 C 541.683 395.326, 547.114 396.158, 547.756 394.231 C 547.943 393.671, 549.045 393.460, 550.204 393.764 C 551.364 394.067, 552.060 393.907, 551.752 393.408 C 551.079 392.319, 570.033 392.285, 571.792 393.371 C 572.456 393.782, 573 393.698, 573 393.184 C 573 391.904, 577.881 391.999, 578.682 393.295 C 579.081 393.940, 578.691 394.096, 577.664 393.701 C 576.749 393.350, 576 393.499, 576 394.031 C 576 396.017, 581.773 395.422, 584.483 393.157 C 586.384 391.568, 586.407 391.582, 585.050 393.500 C 584.140 394.785, 584.551 394.606, 586.200 393 C 587.611 391.625, 588.706 390.050, 588.633 389.500 C 588.560 388.950, 589.400 388.500, 590.500 388.500 C 591.813 388.500, 592.610 387.727, 592.820 386.250 C 592.995 385.012, 593.783 384, 594.570 384 C 595.356 384, 596 383.592, 596 383.094 C 596 382.595, 596.849 382.409, 597.887 382.681 C 598.925 382.952, 600.120 382.616, 600.542 381.933 C 601.036 381.132, 600.899 380.945, 600.155 381.405 C 599.520 381.797, 599 381.608, 599 380.986 C 599 380.363, 599.788 380.019, 600.750 380.221 C 601.770 380.436, 603.274 379.527, 604.355 378.045 C 605.687 376.219, 606.028 376.049, 605.562 377.444 C 604.920 379.368, 604.935 379.369, 607.059 377.446 C 609.922 374.856, 612.250 370.213, 611.386 368.816 C 610.999 368.189, 611.136 367.966, 611.697 368.313 C 613.043 369.144, 615.131 361.963, 615.753 354.366 C 617.491 333.135, 601.147 312.501, 579.855 309.046 C 572.722 307.889, 572.572 307.890, 565.121 309.127 M 468.333 366.500 C 454.197 369.573, 445.499 378.471, 444.874 390.500 C 443.942 408.447, 444.976 410.073, 454.312 405.342 C 473.089 395.827, 495.477 397.971, 514.659 411.120 C 520.772 415.310, 525.245 411.438, 523.926 403.098 C 520.046 378.551, 493.446 361.040, 468.333 366.500 M 241 392.769 C 228.594 396.394, 220.132 409.592, 221.253 423.567 C 221.827 430.713, 226.261 441.575, 228.132 440.418 C 228.809 440, 229.044 440.120, 228.685 440.700 C 227.893 441.982, 233.128 447.842, 234.600 447.322 C 235.205 447.108, 236.330 447.736, 237.100 448.717 C 238.402 450.375, 238.364 450.395, 236.558 449 C 235.417 448.119, 234.925 448.014, 235.364 448.745 C 235.775 449.429, 237.041 450.487, 238.176 451.094 C 239.670 451.894, 240.053 451.895, 239.562 451.100 C 239.188 450.495, 239.471 449.993, 240.191 449.985 C 241.142 449.974, 241.090 449.704, 240 449 C 239.175 448.467, 238.915 448.024, 239.421 448.015 C 239.928 448.007, 241.243 448.788, 242.343 449.750 C 243.444 450.712, 243.996 450.907, 243.572 450.183 C 243.080 449.345, 243.290 448.934, 244.150 449.052 C 247.032 449.447, 249.091 448.956, 248.507 448.011 C 248.171 447.468, 248.482 447.238, 249.198 447.501 C 250.946 448.142, 259.105 445.640, 259.157 444.446 C 259.179 443.926, 259.619 442.712, 260.134 441.750 C 260.775 440.552, 260.705 440, 259.913 440 C 259.122 440, 259.071 439.604, 259.751 438.750 C 260.299 438.063, 261.041 435.472, 261.399 432.993 C 262.241 427.163, 266.192 418.692, 270.551 413.373 C 274.892 408.075, 274.863 406.961, 270.256 401.861 C 261.642 392.327, 252.371 389.445, 241 392.769 M 616.891 392.366 C 611.212 393.910, 604.801 398.517, 600.845 403.896 C 597.617 408.286, 597.624 408.329, 602.555 414.500 C 608.362 421.768, 612.168 432.242, 612.104 440.782 C 612.074 444.731, 612.301 445.110, 615.012 445.652 C 618.066 446.263, 619.655 445.966, 619.284 444.853 C 619.165 444.496, 620.041 444.460, 621.231 444.771 C 623.235 445.295, 623.256 445.384, 621.520 445.993 C 619.832 446.585, 619.813 446.714, 621.323 447.294 C 622.245 447.648, 623.788 447.655, 624.750 447.309 C 625.712 446.964, 626.149 447.066, 625.720 447.537 C 624.370 449.019, 631.962 452.091, 634.119 450.936 C 635.154 450.383, 636 449.694, 636 449.406 C 636 449.118, 635.592 449.134, 635.094 449.442 C 634.595 449.750, 634.702 448.911, 635.332 447.577 C 636.053 446.049, 636.733 445.569, 637.172 446.278 C 637.555 446.898, 637.638 447.876, 637.357 448.452 C 637.075 449.029, 639.127 447.068, 641.916 444.095 C 645.908 439.840, 646.746 438.399, 645.852 437.322 C 644.962 436.249, 645.048 436.081, 646.251 436.543 C 648.707 437.485, 651.507 428.865, 651.463 420.500 C 651.361 401.553, 634.266 387.640, 616.891 392.366 M 301.929 410.305 C 287.253 414.461, 279.031 424.646, 278.205 439.689 C 277.738 448.192, 280.184 458.622, 282.333 457.294 C 282.875 456.959, 282.991 457.206, 282.593 457.850 C 281.573 459.500, 285.893 466.739, 288.269 467.360 C 289.639 467.718, 290.060 468.401, 289.619 469.552 C 289.165 470.734, 289.395 471.062, 290.406 470.674 C 291.192 470.373, 292.094 470.801, 292.410 471.627 C 292.734 472.471, 293.501 472.809, 294.163 472.399 C 294.943 471.917, 295.137 472.201, 294.737 473.242 C 294.169 474.724, 295.707 476.666, 298.905 478.502 C 299.782 479.006, 300.070 478.923, 299.673 478.280 C 299.302 477.679, 300.071 477.250, 301.518 477.250 C 302.883 477.250, 304 477.659, 304 478.159 C 304 479.173, 308.526 478.807, 309.629 477.704 C 310.016 477.317, 311.185 477, 312.226 477 C 313.404 477, 313.848 476.563, 313.403 475.842 C 312.910 475.045, 313.376 474.865, 314.901 475.264 C 316.720 475.739, 316.906 475.591, 315.945 474.433 C 314.281 472.429, 317.371 471.393, 320.611 472.869 C 323.543 474.204, 324.296 474.288, 323.626 473.204 C 323.356 472.767, 324.342 472.448, 325.817 472.495 C 329.478 472.612, 333.003 470.222, 332.985 467.635 C 332.972 465.890, 332.792 465.774, 332 467 C 331.316 468.058, 331.026 466.684, 331.015 462.333 C 331.007 458.942, 331.337 456.017, 331.750 455.833 C 332.163 455.650, 333.249 451.816, 334.163 447.312 C 335.078 442.809, 337.186 436.294, 338.846 432.833 C 345.210 419.575, 321.116 404.872, 301.929 410.305 M 551.500 410.880 C 536.865 414.712, 529.321 425.001, 533.886 434.903 C 538.465 444.837, 540.411 455.566, 539.289 464.690 C 538.239 473.228, 537.843 472.696, 546.135 473.899 C 549.636 474.406, 553.400 475.129, 554.500 475.505 C 556.113 476.056, 556.209 475.980, 555 475.110 C 554.175 474.516, 554.007 474.024, 554.628 474.015 C 555.248 474.007, 556.332 474.695, 557.038 475.546 C 557.743 476.396, 558.890 476.872, 559.587 476.605 C 560.284 476.338, 561.392 476.767, 562.049 477.559 C 562.707 478.352, 564.090 479, 565.122 479 C 566.155 479, 567 479.422, 567 479.938 C 567 480.454, 567.900 480.808, 569 480.725 C 570.100 480.642, 571 480.220, 571 479.787 C 571 479.354, 571.563 478.990, 572.250 478.978 C 572.938 478.967, 574.846 477.392, 576.490 475.478 C 578.135 473.565, 580.074 472, 580.799 472 C 581.525 472, 581.840 471.550, 581.500 471 C 581.160 470.450, 581.540 470, 582.344 470 C 584.374 470, 590.699 460.168, 593.119 453.249 C 602.110 427.545, 578.735 403.749, 551.500 410.880 M 385.917 416.021 C 365.826 418.468, 349.923 437.036, 350.044 457.907 C 350.092 466.277, 352.699 475.678, 354.846 475.225 C 355.562 475.074, 355.908 475.340, 355.614 475.816 C 355.080 476.680, 360.184 481, 361.739 481 C 362.190 481, 363.190 481.876, 363.961 482.946 C 364.733 484.017, 365.802 484.622, 366.337 484.292 C 366.871 483.961, 367.028 484.145, 366.685 484.700 C 366.342 485.255, 367.173 486.753, 368.531 488.029 C 370.285 489.677, 371.020 489.936, 371.068 488.924 C 371.105 488.132, 371.617 488.498, 372.220 489.750 C 372.817 490.988, 373.713 492, 374.212 492 C 374.710 492, 374.844 492.443, 374.509 492.985 C 373.861 494.035, 379.410 500, 381.034 500 C 381.566 500, 381.887 500.338, 381.750 500.750 C 381.612 501.163, 381.950 501.500, 382.500 501.500 C 383.050 501.500, 383.438 500.942, 383.363 500.261 C 383.288 499.579, 383.578 499.239, 384.008 499.505 C 384.723 499.947, 386.205 497.610, 386.414 495.714 C 386.461 495.281, 387.120 494.544, 387.878 494.075 C 388.636 493.607, 388.966 492.754, 388.612 492.181 C 388.257 491.607, 388.432 490.851, 389 490.500 C 389.568 490.149, 389.805 489.494, 389.527 489.044 C 389.249 488.594, 389.579 488.246, 390.261 488.270 C 393.693 488.394, 395.439 487.930, 394.290 487.200 C 393.423 486.649, 393.665 486.066, 395.145 485.142 C 396.689 484.177, 397.018 484.162, 396.450 485.081 C 395.963 485.869, 396.105 486.053, 396.849 485.593 C 397.557 485.156, 397.747 483.832, 397.338 482.189 C 396.730 479.748, 396.825 479.629, 398.368 480.901 C 400.391 482.568, 405.421 480.540, 404.596 478.390 C 404.278 477.560, 404.898 477.295, 406.484 477.583 C 407.797 477.821, 409.531 477.326, 410.387 476.470 C 411.235 475.622, 412.170 474.945, 412.464 474.964 C 415.695 475.180, 416.403 474.813, 414.500 473.909 C 412.680 473.044, 412.710 472.999, 414.840 473.409 C 425.805 475.520, 430.949 462.303, 427.035 442.076 C 423.598 424.312, 406.548 413.508, 385.917 416.021 M 465.257 418.064 C 454.231 422.418, 446.956 431.685, 444.894 444 C 443.488 452.396, 444.840 470.999, 446.801 470.246 C 447.739 469.886, 448.072 470.075, 447.663 470.737 C 447.239 471.422, 447.725 471.623, 448.999 471.290 C 450.099 471.002, 451 471.233, 451 471.804 C 451 472.728, 455.665 474.371, 458.614 474.487 C 459.227 474.511, 460.465 475.141, 461.364 475.888 C 462.264 476.634, 463 476.933, 463 476.551 C 463 476.169, 463.711 476.568, 464.581 477.438 C 465.450 478.307, 466.524 478.794, 466.967 478.520 C 467.411 478.246, 468.325 478.687, 469 479.500 C 469.675 480.313, 470.695 480.688, 471.268 480.334 C 471.840 479.981, 472.019 480.160, 471.666 480.732 C 471.312 481.305, 471.778 482.387, 472.703 483.137 C 473.921 484.124, 474.173 484.149, 473.618 483.225 C 473.141 482.432, 473.332 482.054, 474.124 482.225 C 475.584 482.540, 479.427 486.775, 480.272 489 C 480.621 489.918, 480.873 490.015, 480.921 489.250 C 480.964 488.563, 481.436 488, 481.969 488 C 482.501 488, 482.650 488.749, 482.299 489.664 C 481.820 490.912, 482.015 491.114, 483.080 490.472 C 484.267 489.756, 484.287 489.879, 483.201 491.219 C 482.201 492.455, 482.179 492.992, 483.106 493.565 C 483.919 494.068, 484.069 493.854, 483.568 492.905 C 483.160 492.132, 483.730 492.612, 484.835 493.972 C 485.940 495.332, 486.627 496.794, 486.363 497.222 C 486.098 497.650, 486.421 498, 487.081 498 C 487.740 498, 488.855 498.787, 489.558 499.749 C 490.727 501.348, 490.896 501.263, 491.525 498.756 C 491.904 497.248, 492.588 496.246, 493.046 496.529 C 493.505 496.812, 495.671 495.234, 497.861 493.022 C 500.051 490.810, 501.541 488.998, 501.172 488.996 C 500.802 488.994, 501.850 488.163, 503.500 487.149 C 505.150 486.136, 507.962 483.932, 509.750 482.252 C 511.538 480.572, 513 479.409, 513 479.667 C 513 482.564, 519.276 474.858, 520.586 470.352 C 530.041 437.827, 496.199 405.844, 465.257 418.064 M 197.936 453.546 C 178.162 459.639, 168.025 484.223, 177.392 503.369 C 178.913 506.477, 180.459 508.838, 180.829 508.613 C 181.198 508.389, 182.379 509.397, 183.453 510.853 C 185.391 513.479, 185.391 513.488, 183.453 512.030 C 182.130 511.034, 182.281 511.437, 183.924 513.280 C 185.258 514.776, 187.369 516, 188.615 516 C 189.862 516, 191.207 516.526, 191.605 517.170 C 192.110 517.986, 191.750 518.120, 190.414 517.611 C 188.973 517.062, 188.782 517.166, 189.643 518.033 C 190.500 518.897, 191.317 518.901, 192.913 518.046 C 194.084 517.420, 195.485 517.182, 196.028 517.517 C 196.570 517.852, 197.284 517.423, 197.614 516.563 C 197.944 515.704, 198.841 515, 199.607 515 C 200.373 515, 200.888 514.494, 200.750 513.875 C 200.613 513.256, 201.125 512.523, 201.889 512.245 C 202.677 511.959, 203.002 512.188, 202.640 512.773 C 202.289 513.341, 204.111 513.005, 206.689 512.027 C 211.376 510.248, 211.376 510.248, 211.141 504.874 C 210.567 491.703, 214.193 479.037, 221.421 468.978 C 228.041 459.763, 211.990 449.215, 197.936 453.546 M 660.655 453.447 C 651.160 456.862, 647.973 463.062, 652.467 469.382 C 656.326 474.810, 661 485.836, 661 489.511 C 661 490.880, 661.337 491.999, 661.750 491.998 C 662.163 491.997, 662.434 495.259, 662.354 499.248 C 662.273 503.236, 662.397 505.150, 662.628 503.500 C 663.533 497.043, 664.021 496, 666.136 496 C 667.683 496, 668.107 496.484, 667.750 497.848 C 667.484 498.864, 667.885 500.777, 668.642 502.098 C 670.012 504.492, 670.015 504.490, 669.501 501.500 C 669.025 498.724, 669.127 498.789, 670.881 502.376 C 672.147 504.965, 672.609 507.494, 672.275 509.990 C 671.820 513.379, 672.020 513.788, 674.428 514.392 C 675.887 514.759, 676.812 515.495, 676.482 516.029 C 676.152 516.563, 676.610 517, 677.500 517 C 678.504 517, 678.850 517.474, 678.412 518.250 C 677.854 519.239, 677.983 519.244, 679.030 518.274 C 679.957 517.414, 680.727 517.358, 681.606 518.088 C 682.523 518.849, 683.162 518.566, 683.980 517.037 C 684.596 515.886, 685.462 515.168, 685.905 515.441 C 686.347 515.715, 687.777 514.802, 689.081 513.414 C 691.210 511.147, 691.251 510.952, 689.476 511.508 C 688.356 511.859, 688.658 511.454, 690.172 510.573 C 714.539 496.394, 687.381 443.835, 660.655 453.447 M 607.441 463.698 C 606.859 464.139, 604.682 467.568, 602.604 471.318 C 600.527 475.067, 596.871 480.536, 594.482 483.469 C 592.092 486.403, 590.331 489.073, 590.568 489.402 C 590.806 489.731, 590.704 489.779, 590.342 489.509 C 589.287 488.721, 586.958 491.123, 587.666 492.268 C 588.019 492.840, 587.840 493.019, 587.268 492.666 C 586.695 492.312, 585.753 492.593, 585.173 493.291 C 584.036 494.661, 587.313 501, 589.157 501 C 589.686 501, 589.871 501.399, 589.570 501.887 C 589.269 502.374, 589.692 503.329, 590.511 504.009 C 591.330 504.689, 592 505.865, 592 506.622 C 592 507.380, 592.477 508, 593.059 508 C 593.641 508, 593.830 508.467, 593.477 509.037 C 593.125 509.607, 593.798 511.918, 594.973 514.173 C 596.148 516.427, 596.870 518.896, 596.577 519.659 C 596.285 520.421, 596.823 521.826, 597.773 522.781 C 599.482 524.498, 600.049 528.284, 598.787 529.546 C 596.982 531.351, 600.401 535, 603.911 535.015 C 606.393 535.026, 607.067 535.305, 606.097 535.919 C 605.223 536.472, 607.193 536.684, 611.317 536.481 C 614.960 536.302, 618.372 535.888, 618.901 535.561 C 619.429 535.235, 620.158 535.447, 620.520 536.032 C 621.236 537.191, 624 535.485, 624 533.885 C 624 532.600, 628.198 528, 629.371 528 C 629.927 528, 629.553 528.607, 628.538 529.348 C 627.481 530.121, 627.010 531.207, 627.433 531.892 C 627.840 532.550, 627.571 533.855, 626.836 534.794 C 625.629 536.335, 625.671 536.366, 627.273 535.109 C 628.363 534.253, 628.818 533.003, 628.455 531.859 C 628.010 530.456, 628.373 530, 629.933 530 C 631.070 530, 632.056 529.325, 632.125 528.500 C 632.194 527.675, 632.306 526.475, 632.375 525.833 C 632.539 524.299, 635 523.495, 635 524.976 C 635 525.604, 634.438 525.800, 633.750 525.412 C 632.792 524.871, 632.772 525.001, 633.663 525.966 C 634.882 527.287, 637.406 526.466, 636.522 525.036 C 636.241 524.581, 636.731 523.934, 637.609 523.596 C 638.550 523.236, 638.964 522.348, 638.615 521.440 C 638.289 520.591, 638.417 520.140, 638.899 520.438 C 644.035 523.612, 646.442 493.643, 641.840 483.825 C 635.509 470.320, 614.743 458.169, 607.441 463.698 M 322.746 491.029 C 295.226 497.933, 282.916 530.388, 298.217 555.698 C 299.945 558.557, 301.651 560.715, 302.008 560.495 C 302.365 560.274, 303.747 561.861, 305.079 564.020 C 306.410 566.179, 308.261 567.958, 309.191 567.973 C 310.121 567.988, 311.203 568.520, 311.595 569.155 C 312.038 569.870, 311.870 570.038, 311.155 569.595 C 308.828 568.158, 310.086 569.687, 313.004 571.845 C 315.475 573.672, 316.384 573.865, 318.125 572.933 C 319.616 572.135, 320.040 572.126, 319.562 572.900 C 319.174 573.527, 319.578 574, 320.500 574 C 321.390 574, 321.872 573.601, 321.570 573.114 C 320.607 571.555, 325.220 570.843, 336 570.888 C 341.775 570.911, 345.989 570.701, 345.363 570.420 C 343.686 569.666, 347.496 560.304, 350.802 557.053 C 354.175 553.736, 356.928 550.275, 356.543 549.835 C 356.382 549.651, 357.622 548.150, 359.298 546.500 C 360.974 544.850, 361.705 544.374, 360.923 545.441 C 359.747 547.045, 360.058 546.974, 362.711 545.032 C 364.477 543.740, 365.645 542.234, 365.306 541.686 C 364.968 541.139, 365.177 540.991, 365.771 541.358 C 367.354 542.337, 371.986 539.940, 372.085 538.089 C 373.755 506.930, 349.933 484.208, 322.746 491.029 M 531.746 491.022 C 513.555 495.617, 489.938 529.613, 500.339 536.231 C 501.194 536.775, 501.170 536.973, 500.250 536.985 C 499.563 536.993, 499 537.348, 499 537.773 C 499 538.725, 506.085 542.595, 507.196 542.250 C 507.638 542.112, 508 542.434, 508 542.964 C 508 543.494, 509.617 545.027, 511.594 546.370 C 513.571 547.713, 516.348 550.542, 517.765 552.656 C 519.182 554.770, 520.950 556.865, 521.692 557.311 C 522.435 557.758, 522.814 558.492, 522.535 558.943 C 522.257 559.394, 523.173 561.449, 524.572 563.511 C 525.970 565.572, 526.883 567.862, 526.600 568.600 C 525.804 570.675, 528.965 573.256, 531.399 572.518 C 535.397 571.307, 544.353 570.953, 544.989 571.982 C 546.992 575.224, 560 573.444, 560 569.929 C 560 569.418, 560.695 569, 561.544 569 C 562.459 569, 562.968 568.288, 562.794 567.250 C 562.624 566.237, 563.049 565.613, 563.804 565.768 C 565.261 566.067, 568 563.693, 568 562.130 C 568 561.574, 568.526 560.793, 569.170 560.395 C 569.964 559.904, 570.128 560.224, 569.681 561.388 C 569.290 562.407, 569.424 562.856, 570.011 562.493 C 570.555 562.157, 571 561.271, 571 560.524 C 571 559.778, 571.357 559.017, 571.793 558.833 C 574.830 557.556, 579.786 545.027, 580.627 536.500 C 583.369 508.697, 557.405 484.540, 531.746 491.022 M 383.500 552.334 C 369.599 556.956, 360.797 568.986, 360.675 583.528 C 360.624 589.707, 364.441 601.464, 366.155 600.405 C 366.607 600.125, 366.727 600.548, 366.421 601.344 C 366.101 602.179, 366.847 603.480, 368.183 604.416 C 369.457 605.308, 370.500 606.354, 370.500 606.741 C 370.500 608.092, 375.809 612.859, 376.561 612.183 C 376.979 611.807, 377.012 612.038, 376.634 612.696 C 375.835 614.090, 382.531 619, 385.232 619 C 386.204 619, 387 619.408, 387 619.906 C 387 620.405, 388.012 620.591, 389.250 620.320 C 391.109 619.912, 391.239 620.027, 390 620.979 C 388.796 621.903, 388.994 621.987, 391 621.404 C 394.711 620.324, 399.007 620.202, 399.598 621.158 C 399.884 621.621, 400.568 622, 401.118 622 C 401.668 622, 401.796 621.479, 401.403 620.842 C 400.920 620.061, 401.342 619.856, 402.703 620.212 C 404.133 620.586, 404.686 620.269, 404.609 619.119 C 404.549 618.229, 404.842 617.397, 405.260 617.270 C 405.679 617.144, 407.309 616.374, 408.884 615.560 C 410.458 614.746, 412.052 614.386, 412.426 614.759 C 412.800 615.133, 412.809 614.665, 412.446 613.720 C 412.052 612.693, 412.261 612, 412.964 612 C 414.735 612, 417.103 609.279, 417.271 607.053 C 417.352 605.971, 417.610 605.277, 417.844 605.511 C 418.645 606.312, 424.074 598.635, 423.593 597.381 C 423.329 596.693, 423.635 595.955, 424.274 595.742 C 426.732 594.923, 426.212 577.142, 423.560 571.350 C 416.585 556.116, 398.272 547.422, 383.500 552.334 M 325.270 590.013 C 303.017 594.623, 292.056 618.716, 302.450 640.175 C 304.674 644.767, 311.405 654.099, 309.536 650 C 309.101 649.048, 309.376 649.139, 310.286 650.250 C 311.075 651.212, 312.233 652, 312.860 652 C 313.487 652, 314 652.477, 314 653.059 C 314 653.641, 313.480 653.797, 312.845 653.405 C 312.130 652.962, 311.962 653.130, 312.405 653.845 C 312.797 654.480, 313.766 655, 314.559 655 C 315.352 655, 316 655.434, 316 655.964 C 316 657.476, 323.209 661.990, 324.417 661.234 C 326.489 659.938, 327.866 660.186, 327.266 661.748 C 326.789 662.993, 327.185 663.170, 329.274 662.646 C 330.706 662.287, 332.157 662.444, 332.498 662.996 C 332.839 663.548, 332.304 664.045, 331.309 664.100 C 326.998 664.337, 334.905 665.801, 340.500 665.801 C 344.711 665.801, 345.754 665.578, 344 665.053 C 341.926 664.434, 342.445 664.180, 347.043 663.564 C 350.141 663.149, 353.669 661.941, 355.043 660.824 C 356.394 659.725, 356.825 659.177, 356 659.605 C 354.708 660.276, 354.691 660.149, 355.872 658.692 C 356.627 657.761, 357.865 657, 358.622 657 C 359.380 657, 359.888 656.438, 359.750 655.750 C 359.613 655.063, 360.046 654.607, 360.714 654.738 C 361.463 654.885, 361.685 654.343, 361.294 653.324 C 360.869 652.216, 361.045 651.910, 361.830 652.395 C 362.532 652.829, 363 652.495, 363 651.559 C 363 650.702, 363.436 650, 363.969 650 C 364.501 650, 364.650 649.251, 364.299 648.336 C 363.846 647.157, 364.030 646.901, 364.930 647.457 C 365.933 648.077, 365.960 647.794, 365.057 646.106 C 364.174 644.457, 364.195 644.032, 365.148 644.236 C 365.826 644.381, 366.573 643.600, 366.806 642.500 C 367.040 641.400, 367.604 640.264, 368.060 639.975 C 369.587 639.009, 370.993 630.789, 369.536 631.348 C 368.830 631.619, 367.678 630.767, 366.976 629.454 C 366.273 628.142, 365.399 627.253, 365.033 627.480 C 364.667 627.706, 363.584 626.566, 362.627 624.946 C 361.670 623.326, 360.538 622, 360.112 622 C 358.125 622, 349.538 606.327, 346.963 598 C 344.637 590.479, 336.854 587.613, 325.270 590.013 M 529.864 591.068 C 527.767 591.881, 526.673 593.653, 524.519 599.719 C 523.030 603.915, 520.085 610.187, 517.977 613.659 C 515.868 617.130, 514.556 620.226, 515.061 620.538 C 515.581 620.859, 515.441 621.689, 514.740 622.448 C 514.058 623.186, 513.223 623.623, 512.884 623.419 C 512.545 623.214, 511.472 623.926, 510.500 625 C 509.528 626.074, 508.422 626.761, 508.042 626.526 C 507.663 626.291, 507.385 627.044, 507.426 628.199 C 507.467 629.353, 506.825 630.529, 506 630.811 C 504.667 631.268, 504.667 631.123, 506 629.502 C 507.394 627.807, 507.359 627.767, 505.500 628.927 C 503.397 630.239, 502.303 636.530, 504.395 635.277 C 505.003 634.914, 504.882 635.377, 504.128 636.308 C 503.150 637.514, 503.097 638, 503.945 638 C 504.619 638, 504.899 638.759, 504.590 639.750 C 504.291 640.712, 504.528 642.175, 505.117 643 C 505.982 644.210, 506.063 644.114, 505.535 642.500 C 505.014 640.904, 505.134 640.751, 506.131 641.740 C 507.597 643.195, 508.245 646.270, 506.912 645.446 C 505.285 644.440, 505.949 646.237, 507.750 647.714 C 508.712 648.503, 508.943 648.867, 508.261 648.522 C 507.468 648.121, 507.223 648.419, 507.581 649.350 C 507.887 650.149, 509.007 651.030, 510.069 651.308 C 511.131 651.586, 511.993 652.417, 511.985 653.156 C 511.973 654.177, 511.736 654.139, 511 653 C 510.415 652.094, 510.025 651.973, 510.015 652.693 C 510.007 653.350, 511.350 654.684, 513 655.659 C 514.650 656.634, 516 657.811, 516 658.275 C 516 658.738, 515.438 658.780, 514.750 658.367 C 513.901 657.857, 513.940 658.158, 514.872 659.308 C 516.480 661.290, 517.399 661.544, 516.472 659.750 C 516.117 659.063, 516.805 659.625, 518 661 C 519.195 662.375, 519.909 662.980, 519.586 662.344 C 519.142 661.471, 519.591 661.467, 521.413 662.327 C 522.742 662.954, 523.586 663.860, 523.289 664.341 C 522.992 664.821, 523.762 664.893, 525 664.500 C 526.533 664.013, 527.032 664.139, 526.566 664.893 C 525.738 666.233, 536.425 666.321, 539.500 665 C 541.408 664.180, 541.397 664.137, 539.250 664.070 C 536.608 663.988, 536.118 660.992, 538.750 661.015 C 540.108 661.027, 540.197 661.223, 539.149 661.887 C 538.189 662.495, 538.690 662.874, 540.875 663.195 C 542.568 663.443, 544.526 663.257, 545.227 662.782 C 546.155 662.151, 546.043 661.996, 544.816 662.208 C 543.889 662.369, 543.131 662.050, 543.131 661.500 C 543.131 660.950, 543.889 660.670, 544.816 660.877 C 548.312 661.660, 549.491 661.458, 549.207 660.122 C 549.008 659.182, 549.563 658.914, 550.956 659.278 C 552.079 659.572, 553.293 659.335, 553.654 658.752 C 554.014 658.168, 553.864 657.966, 553.321 658.302 C 552.778 658.637, 552.333 658.281, 552.333 657.510 C 552.333 656.500, 552.809 656.363, 554.035 657.019 C 556.019 658.080, 557.080 657.373, 556.352 655.475 C 555.994 654.542, 556.462 654.308, 557.921 654.690 C 559.369 655.068, 560 654.761, 560 653.676 C 560 652.819, 560.520 651.797, 561.155 651.405 C 561.938 650.920, 562.037 651.142, 561.463 652.095 C 560.751 653.276, 560.877 653.289, 562.249 652.177 C 563.146 651.449, 563.635 650.212, 563.334 649.427 C 562.998 648.553, 563.414 648, 564.408 648 C 566.786 648, 570.226 641.978, 568.817 640.280 C 567.976 639.266, 568.061 639.086, 569.180 639.516 C 575.148 641.806, 576.200 618.249, 570.621 607.240 C 564.045 594.261, 543.073 585.940, 529.864 591.068" stroke="none" fill="#ffffff" fill-rule="evenodd"/><path d="M 388.159 150.472 C 384.672 151.264, 379.293 153.337, 376.207 155.079 C 370.858 158.097, 370.027 158.257, 358.547 158.471 C 333.690 158.936, 312.416 171.231, 301.780 191.278 C 298.500 197.461, 298.500 197.461, 290 197.167 C 261.520 196.181, 241.579 218.852, 246.943 246.118 C 248.309 253.057, 248.106 253.404, 242.065 254.484 C 219.105 258.586, 194.037 287.091, 193.993 309.144 C 193.990 310.990, 193.066 313.850, 191.941 315.500 C 183.648 327.663, 180.551 338.894, 181.311 354.052 C 181.840 364.604, 181.840 364.604, 174.689 368.052 C 143.787 382.952, 139.458 422.313, 165.855 448.371 C 171.802 454.242, 171.802 454.242, 168.252 458.871 C 151.877 480.223, 155.293 508.152, 176.787 528.653 C 180.335 532.037, 182.965 535.247, 182.632 535.787 C 170.693 555.104, 195.785 596.211, 221.633 599.678 C 225.363 600.178, 225.785 600.602, 229.266 607.354 C 236.144 620.691, 247.527 630.957, 262.809 637.606 C 270.500 640.952, 270.500 640.952, 270.605 650.153 C 270.809 668.044, 284.827 669.749, 285.830 652.005 C 286.300 643.678, 286.747 643.480, 289.904 650.200 C 299.591 670.825, 329.014 686.431, 349.523 681.820 C 352.481 681.155, 352.636 681.318, 356.832 689.512 C 367.992 711.307, 378.646 725.647, 398.052 744.993 C 412.604 759.500, 412.604 759.500, 415.322 769.968 C 423.114 799.971, 447.808 800.639, 456.993 771.095 C 460.562 759.611, 461.724 757.751, 469.992 750.271 C 486.371 735.456, 506.870 708.378, 515.627 689.992 C 519.500 681.861, 519.500 681.861, 526.600 682.502 C 548.950 684.519, 573.829 669.757, 584.324 648.250 C 587.231 642.293, 587.997 642.914, 588.022 651.250 C 588.079 669.917, 602.160 668.248, 602.846 649.493 C 603.192 640.038, 603.192 640.038, 609.216 637.841 C 623.311 632.702, 636.605 620.884, 642.812 607.974 C 646.500 600.304, 646.500 600.304, 652.111 599.142 C 679.139 593.541, 697.244 565.330, 691.026 538.505 C 690.100 534.510, 690.100 534.510, 696.413 528.505 C 718.027 507.944, 721.324 477.384, 704.051 457.711 C 701.087 454.335, 701.087 454.335, 707.312 447.918 C 732.701 421.744, 728.341 384.032, 698.087 368.112 C 690.793 364.274, 690.793 364.274, 690.606 350.887 C 690.396 335.812, 688.560 328.611, 682.603 319.500 C 680.184 315.801, 678.908 312.159, 677.697 305.500 C 673.324 281.456, 652.357 258.563, 631 254.514 C 623.838 253.156, 624.216 253.824, 625.904 245.538 C 631.325 218.923, 610.174 195.712, 581.805 197.145 C 574.247 197.526, 574.247 197.526, 570.500 190.874 C 558.940 170.350, 538.945 158.815, 514.500 158.568 C 502.715 158.448, 502.371 158.379, 495.278 154.725 C 474.635 144.087, 451.300 149.529, 438.527 167.961 C 435.790 171.911, 435.790 171.911, 432.645 167.244 C 423.276 153.342, 405.329 146.576, 388.159 150.472 M 391.250 165.088 C 387.032 166.346, 386.855 166.026, 395.269 172.359 C 407.962 181.912, 417 198.924, 417 213.262 C 417 225.540, 427.485 217.135, 427.783 204.619 C 428.455 176.372, 412.242 158.828, 391.250 165.088 M 465.173 165.484 C 455.640 168.459, 448.799 175.950, 445.588 186.932 C 443.577 193.810, 443.324 215.854, 445.250 216.448 C 453.093 218.865, 454.747 218.185, 455.468 212.244 C 457.579 194.838, 466.437 179.452, 479.546 170.424 C 487.663 164.833, 477.953 161.496, 465.173 165.484 M 345.489 174.321 C 322.186 180.295, 309.034 198.490, 310.220 223.111 C 310.767 234.473, 315.403 246.737, 318.752 245.682 C 319.713 245.379, 323.650 243.914, 327.500 242.427 C 337.093 238.721, 353.113 237.979, 363.726 240.748 C 370.952 242.633, 370.952 242.633, 374.726 238.741 C 379.494 233.823, 391.202 225.925, 397.437 223.419 C 402.212 221.500, 402.212 221.500, 401.708 214 C 399.880 186.802, 372.417 167.418, 345.489 174.321 M 506.715 174.040 C 480.758 178.404, 457.642 216.379, 476.076 224.374 C 483.842 227.742, 490.283 232.170, 496.160 238.182 C 500.821 242.949, 500.821 242.949, 509.112 240.852 C 520.565 237.956, 534.364 238.561, 545 242.425 C 549.125 243.924, 553.185 245.367, 554.023 245.632 C 555.068 245.963, 556.286 244.607, 557.907 241.307 C 575.377 205.740, 546.200 167.401, 506.715 174.040 M 277 213.307 C 257.177 219.556, 255.165 249.702, 274.156 255.921 C 280.445 257.980, 290.901 264.349, 293.803 267.887 C 294.867 269.185, 295.234 269.235, 295.682 268.143 C 295.988 267.396, 298.179 264.402, 300.552 261.490 C 304.865 256.194, 304.865 256.194, 301.009 248.519 C 296.462 239.468, 294.519 229.966, 295.218 220.200 C 295.719 213.194, 295.719 213.194, 292.735 212.597 C 288.338 211.718, 280.991 212.049, 277 213.307 M 579 212.922 C 577.840 213.699, 577.480 216.257, 577.410 224.214 C 577.313 235.232, 576.245 239.501, 570.775 250.737 C 567.540 257.380, 567.538 257.372, 576.054 267.333 C 576.445 267.791, 578.956 266.485, 581.633 264.432 C 587.081 260.252, 594.678 256.614, 601.593 254.872 C 616.589 251.096, 614.468 223.263, 598.561 215.077 C 593.227 212.332, 581.764 211.069, 579 212.922 M 408.945 235.344 C 396.745 238.957, 382.373 248.937, 386.240 251.111 C 389.611 253.004, 397.535 260.245, 400.590 264.222 C 403.154 267.559, 404.915 268.637, 410.914 270.539 C 414.893 271.800, 419.857 273.963, 421.945 275.345 C 427.786 279.210, 428 278.488, 428 254.907 C 428 236.960, 427.790 234.133, 426.418 233.607 C 423.370 232.437, 416.433 233.127, 408.945 235.344 M 445.250 233.662 C 443.606 234.326, 443.432 275.531, 445.070 276.543 C 445.658 276.907, 448.696 275.852, 451.820 274.199 C 454.944 272.546, 459.525 270.595, 462 269.864 C 465.354 268.874, 467.983 266.951, 472.320 262.315 C 475.522 258.894, 480.133 254.836, 482.569 253.297 C 487.750 250.024, 487.767 250.275, 482.054 245.527 C 471.960 237.136, 452.327 230.807, 445.250 233.662 M 336.105 255.583 C 315.686 261.073, 292.983 291.271, 307.623 293.466 C 318.192 295.051, 329.837 300.570, 338.244 307.979 C 342.989 312.160, 342.989 312.160, 344.021 309.330 C 346.642 302.147, 347.569 300.174, 350.520 295.500 C 355.624 287.417, 365.873 278.603, 375.695 273.848 C 393.652 265.157, 359.350 249.331, 336.105 255.583 M 511.773 255.555 C 492.552 260.214, 485.674 268.202, 496.188 273.656 C 510.895 281.284, 520.192 290.678, 526.196 303.976 C 527.804 307.538, 529.279 310.613, 529.474 310.808 C 529.669 311.003, 532.450 309.028, 535.653 306.419 C 542.881 300.531, 553.459 295.493, 562 293.870 C 570.551 292.245, 570.490 292.347, 567.579 284.615 C 559.073 262.016, 535.582 249.783, 511.773 255.555 M 245.912 269.011 C 226.755 272.253, 195.799 310.355, 214.614 307.536 C 219.500 306.804, 219.500 306.804, 214.500 310.222 C 197.796 321.643, 188.675 360.412, 201.705 364.606 C 208.111 366.668, 218.354 372.639, 222.803 376.904 C 228.015 381.901, 228.015 381.901, 233.257 379.460 C 236.141 378.117, 239.989 376.734, 241.810 376.387 C 244.103 375.949, 244.954 375.322, 244.579 374.345 C 232.197 342.078, 249.830 305.640, 283.250 294.432 C 304.225 287.398, 270.987 264.769, 245.912 269.011 M 608 269.098 C 595.781 271.484, 583.393 280.882, 584.401 287 C 584.718 288.925, 584.983 291.252, 584.989 292.171 C 584.996 293.244, 586.162 294.087, 588.250 294.529 C 619.609 301.166, 637.192 335.877, 628.315 373.621 C 627.901 375.381, 628.387 375.852, 631.158 376.381 C 632.996 376.731, 636.815 378.097, 639.645 379.415 C 644.791 381.811, 644.791 381.811, 648.145 378.274 C 652.563 373.617, 661.771 367.643, 667.966 365.415 C 683.869 359.696, 675.812 321.440, 656.038 308.782 C 651.300 305.749, 651.182 305.792, 659.500 307.519 C 666.458 308.964, 658.884 290.682, 648.709 281.475 C 636.703 270.610, 622.449 266.276, 608 269.098 M 388.754 284.027 C 360.839 291.030, 346.686 325.739, 360.572 353.142 C 363.039 358.011, 363.039 358.011, 366.770 356.408 C 386.893 347.761, 406.809 348.043, 422.333 357.196 C 428.835 361.030, 432.183 317.344, 426.486 303 C 420.771 288.612, 404.032 280.195, 388.754 284.027 M 465.951 284.362 C 447.851 289.244, 444 297.766, 444 332.948 C 444 361.386, 443.504 359.784, 451.113 355.943 C 466.691 348.079, 490.220 347.922, 503.937 355.588 C 509.516 358.706, 510.672 357.623, 514.497 345.698 C 525.555 311.229, 497.545 275.841, 465.951 284.362 M 566.500 308.183 C 544.456 311.397, 534.040 323.844, 527.949 354.251 C 524.795 370.002, 524.795 370.002, 528.020 373.676 C 531.675 377.838, 537.678 389.767, 538.605 394.709 C 539.333 398.590, 538.816 398.518, 547 395.876 C 555.868 393.013, 568.392 392.978, 576.259 395.794 C 582.019 397.855, 582.019 397.855, 585.153 395.178 C 586.877 393.705, 593.061 388.896, 598.894 384.490 C 634.858 357.330, 611.225 301.662, 566.500 308.183 M 286.500 309.337 C 254.177 320.056, 244.394 364.384, 270.469 381.979 C 274.498 384.698, 280.654 389.346, 284.147 392.309 C 290.500 397.695, 290.500 397.695, 296 395.710 C 303.643 392.952, 318.200 392.949, 326.614 395.704 C 332.728 397.705, 332.728 397.705, 334.484 392.103 C 336.955 384.224, 340.479 377.582, 344.625 372.993 C 348.180 369.058, 348.180 369.058, 346.652 364.279 C 345.811 361.651, 344.200 354.731, 343.071 348.903 C 338.868 327.198, 332.388 317.939, 316.500 310.937 C 310.233 308.175, 292.808 307.246, 286.500 309.337 M 382.105 366.583 C 370.648 369.663, 356.926 380.345, 351.986 390.027 C 344.655 404.397, 348.262 418.463, 357.500 411.531 C 375.858 397.758, 402.997 396.314, 421.978 408.101 C 427.675 411.639, 427.965 411.167, 427.985 398.337 C 428.022 373.818, 407.644 359.715, 382.105 366.583 M 462.593 367.476 C 448.682 373.195, 443.992 380.631, 444.015 396.929 C 444.036 411.235, 444.184 411.392, 453.213 406.746 C 472.303 396.924, 493.149 398.237, 512.031 410.451 C 532.431 423.648, 527.839 390.025, 507.154 374.744 C 493.983 365.015, 475.796 362.048, 462.593 367.476 M 183.698 380.383 C 158.169 389.898, 156.786 426.773, 181.463 439.980 C 183.938 441.305, 184.749 441.226, 190.344 439.117 C 193.730 437.841, 198.339 436.371, 200.586 435.852 C 204.672 434.908, 204.672 434.908, 204.681 424.704 C 204.690 413.362, 206.585 406.184, 211.990 397.017 C 215.692 390.739, 215.700 391.070, 211.750 387.247 C 205.013 380.728, 191.587 377.443, 183.698 380.383 M 673 380.315 C 662.223 383.405, 655.836 389.557, 658.916 393.883 C 665.525 403.163, 667.500 409.793, 667.500 422.693 C 667.500 434.886, 667.500 434.886, 672 435.994 C 674.475 436.603, 678.879 437.978, 681.788 439.050 C 689.234 441.796, 690.181 441.601, 696.212 436.089 C 721.594 412.892, 704.301 371.342, 673 380.315 M 237.500 393.390 C 215.432 403.853, 214.613 436.465, 236.060 450.659 C 239.879 453.186, 239.879 453.186, 246.258 450.634 C 249.766 449.230, 254.452 447.791, 256.670 447.437 C 260.704 446.792, 260.704 446.792, 261.814 437.776 C 263.029 427.906, 266.462 419.312, 271.865 412.612 C 281.545 400.610, 254.353 385.400, 237.500 393.390 M 612.497 393.349 C 599.770 399.276, 595.792 406.934, 601.501 414.520 C 607.255 422.164, 610.122 429.646, 610.751 438.660 C 611.251 445.820, 611.251 445.820, 617.747 447.452 C 621.320 448.349, 626.013 449.986, 628.176 451.090 C 636.159 455.163, 648.956 441.876, 652.013 426.340 C 656.559 403.233, 633.182 383.717, 612.497 393.349 M 301.929 409.310 C 274.286 417.110, 268.350 450.968, 290.789 472.854 C 300.257 482.090, 302.550 482.924, 309.678 479.725 C 316.821 476.519, 326.190 474, 330.960 474.001 C 334.500 474.003, 334.500 474.003, 334.166 462.602 C 333.790 449.720, 335.228 442.174, 339.869 432.699 C 346.320 419.526, 321.013 403.925, 301.929 409.310 M 552 409.935 C 537.071 414.493, 528.128 425.373, 532.393 433.789 C 537.656 444.175, 539.892 460.109, 537.570 470.682 C 536.895 473.756, 536.895 473.756, 543.353 474.447 C 550.599 475.223, 556.257 476.764, 563.843 480.028 C 577.144 485.750, 597.586 459.425, 595.730 438.964 C 593.874 418.495, 571.850 403.875, 552 409.935 M 379.936 416.384 C 351.213 424.655, 338.218 463.910, 358.770 480.320 C 365.989 486.084, 369.921 490.168, 376.995 499.250 C 382.336 506.107, 382.043 506.047, 384.948 500.879 C 391.849 488.601, 406.171 478.088, 422.250 473.499 C 432.628 470.537, 430.596 438.200, 419.260 425.928 C 410.383 416.316, 393.988 412.337, 379.936 416.384 M 468.500 416.402 C 445.657 423.645, 431.320 468.168, 450.155 473.372 C 465.993 477.749, 478.443 486.816, 486.469 499.818 C 490.228 505.910, 490.228 505.910, 494.739 499.782 C 500.358 492.150, 506.802 485.673, 514.226 480.196 C 543.301 458.748, 504.717 404.918, 468.500 416.402 M 193.500 454.351 C 168.921 465.813, 166.136 502.498, 188.644 518.318 C 192.763 521.213, 192.763 521.213, 198.113 517.610 C 201.056 515.628, 205.496 513.328, 207.981 512.499 C 212.500 510.991, 212.500 510.991, 212.603 500.245 C 212.724 487.586, 214.938 479.864, 221.090 470.636 C 225.769 463.619, 225.695 464.747, 221.798 459.898 C 215.001 451.440, 204.258 449.334, 193.500 454.351 M 658.494 453.388 C 650.024 457.079, 647.177 463.849, 651.539 469.922 C 657.923 478.808, 660.224 486.030, 660.899 499.305 C 661.500 511.110, 661.500 511.110, 667.270 513.451 C 670.443 514.739, 674.576 516.964, 676.453 518.396 C 685.293 525.139, 699.447 506.446, 699.482 487.982 C 699.526 464.612, 676.784 445.418, 658.494 453.388 M 256.203 463.115 C 235.717 466.525, 223.063 490.388, 229.866 512.785 C 234.307 527.406, 249.873 541.788, 258.336 539.089 C 260.076 538.534, 264.538 537.566, 268.250 536.937 C 275 535.795, 275 535.795, 275.006 531.647 C 275.021 520.679, 280.476 505.013, 287.152 496.768 C 289.363 494.036, 289.363 494.036, 282.806 487.244 C 276.238 480.441, 269.439 470.889, 267.038 465.091 C 265.640 461.718, 265.144 461.627, 256.203 463.115 M 606.702 463.441 C 605.805 464.338, 603.399 468.255, 601.354 472.146 C 599.197 476.250, 594.544 482.508, 590.270 487.051 C 582.904 494.882, 582.904 494.882, 587.015 500.904 C 593.092 509.808, 596.605 522.232, 596.982 536.156 C 596.992 536.517, 599.362 537.115, 602.250 537.486 C 605.138 537.857, 609.897 538.892, 612.828 539.787 C 632.334 545.745, 652.210 509.346, 642.956 484.612 C 637.640 470.403, 613.712 456.430, 606.702 463.441 M 423.776 488.415 C 400.985 494.997, 379.786 533.313, 397.750 535.455 C 413.318 537.312, 430.515 548.203, 435.393 559.295 C 435.732 560.064, 436.548 559.596, 437.652 558 C 445.217 547.059, 458.022 538.850, 471.983 535.993 C 480.500 534.250, 480.500 534.250, 480.175 527.461 C 478.898 500.830, 450.018 480.837, 423.776 488.415 M 322.251 490.481 C 286.449 500.560, 279.609 547.765, 310.564 571.136 C 316.090 575.309, 316.090 575.309, 324.596 574.043 C 329.598 573.299, 335.715 573.058, 339.447 573.457 C 345.794 574.137, 345.794 574.137, 347.534 568.819 C 351.438 556.886, 358.239 548.152, 367.860 542.714 C 392.535 528.768, 351.832 482.153, 322.251 490.481 M 531.500 490.409 C 508.069 496.215, 487.345 534.013, 503.167 542.085 C 512.351 546.771, 520.836 557.007, 524.568 567.905 C 526.033 572.180, 527.297 574.380, 528.163 574.159 C 532.809 572.973, 540.981 572.908, 548.001 574 C 557.389 575.461, 561.390 573.554, 570.035 563.500 C 597.652 531.383, 570.903 480.646, 531.500 490.409 M 207.936 529.750 C 188.987 539.359, 193.055 569.052, 214.776 579.679 C 220.940 582.694, 221.039 582.643, 222.103 575.911 C 223.182 569.088, 227.896 559.228, 232.533 554.095 C 236.756 549.421, 237.097 550.781, 229.629 542.500 C 228.141 540.850, 225.028 536.702, 222.712 533.282 C 217.754 525.961, 216.159 525.580, 207.936 529.750 M 650.608 533.940 C 648.138 537.757, 643.844 543.071, 641.065 545.750 C 636.013 550.620, 636.013 550.620, 639.597 554.060 C 644.425 558.694, 648.647 567.308, 650.056 575.401 C 651.346 582.806, 651.415 582.834, 659 578.952 C 680.552 567.924, 683.017 534.537, 662.724 528.511 C 655.453 526.352, 655.542 526.312, 650.608 533.940 M 385.500 550.953 C 351.693 559.384, 351.955 604.738, 385.906 621.147 C 409.490 632.545, 436.674 595.579, 423.634 569.845 C 416.373 555.514, 399.911 547.359, 385.500 550.953 M 468 552.590 C 443.418 561.400, 438.261 591.293, 457.460 613.689 C 480.939 641.077, 527.235 597.263, 507.631 566.208 C 499.830 553.851, 481.785 547.650, 468 552.590 M 254.500 556.353 C 224.207 570.489, 237.709 615.989, 274.752 624.600 C 281.611 626.194, 280.989 626.801, 282.560 616.989 C 284.229 606.564, 288.576 597.386, 295.125 590.461 C 300.347 584.940, 300.347 584.940, 296.846 581.220 C 291.601 575.646, 287.732 570.260, 283.528 562.677 C 279.104 554.696, 277.785 553.996, 267.185 554.010 C 261.244 554.017, 258.365 554.549, 254.500 556.353 M 594.725 554.639 C 593.749 554.924, 591.562 557.934, 589.866 561.328 C 586.606 567.854, 580.655 576.431, 575.791 581.616 C 572.867 584.732, 572.867 584.732, 578.032 590.616 C 585.951 599.637, 591 611.621, 591 621.394 C 591 625.487, 591.971 625.760, 600 623.920 C 634.694 615.971, 647.091 571.544, 618.723 556.822 C 614.550 554.656, 599.398 553.278, 594.725 554.639 M 318.174 591.227 C 295.493 600.162, 290.779 631.373, 309.086 651.403 C 332.120 676.606, 363.035 669.468, 370.350 637.258 C 371.644 631.561, 371.644 631.561, 363.941 624.031 C 355.819 616.091, 351.019 608.156, 347.438 596.746 C 344.867 588.555, 331.405 586.016, 318.174 591.227 M 530.132 590.248 C 527.147 591.357, 526.441 592.389, 523.931 599.310 C 520.102 609.865, 516.100 616.181, 507.967 624.500 C 499.359 633.306, 500.731 644.513, 511.990 657.336 C 537.631 686.539, 589.095 643.372, 571.503 607.417 C 564.838 593.795, 543.930 585.118, 530.132 590.248 M 422.488 627.500 C 419.182 630.800, 414.137 634.625, 411.277 636 C 404.213 639.397, 403.651 632.730, 416.634 699.500 C 429.374 765.017, 429.089 765.371, 428.758 684.442 C 428.500 621.500, 428.500 621.500, 422.488 627.500 M 444 684.772 C 444 719.547, 444.248 748, 444.551 748 C 447.520 748, 468.813 640.104, 466.028 639.176 C 462.740 638.080, 449.898 628.699, 447.194 625.419 C 444 621.544, 444 621.544, 444 684.772 M 481.498 639.329 C 481.290 639.973, 479.726 648.825, 478.023 659 C 474.344 680.979, 466.567 721.345, 464.586 728.750 C 460.394 744.416, 499.085 697.183, 506.700 677.339 C 506.974 676.626, 504.911 673.477, 502.117 670.342 C 496.788 664.363, 490.045 652.432, 487.103 643.779 C 485.443 638.893, 482.415 636.490, 481.498 639.329 M 386.023 641.250 C 385.509 642.487, 383.664 647.019, 381.922 651.319 C 380.181 655.620, 375.871 663.156, 372.345 668.066 C 364.261 679.324, 374.243 699.829, 401.399 727.750 C 410.385 736.990, 410.156 737.224, 406.788 722.250 C 405.210 715.237, 400.983 694.272, 397.394 675.661 C 389.676 635.638, 389.090 633.863, 386.023 641.250" stroke="none" fill="#911d2b" fill-rule="evenodd"/><path d="M 245.912 269.011 C 230.144 271.680, 213.178 288.540, 210.428 304.274 C 209.682 308.540, 213.232 308.816, 226.500 305.521 C 237.669 302.748, 255.752 306.308, 255.375 311.207 C 255.297 312.224, 256.978 311.155, 259.875 308.346 C 264.981 303.396, 275.898 296.898, 283.250 294.432 C 304.225 287.398, 270.987 264.769, 245.912 269.011 M 608 269.098 C 595.781 271.484, 583.393 280.882, 584.401 287 C 584.718 288.925, 584.983 291.252, 584.989 292.171 C 584.996 293.244, 586.162 294.087, 588.250 294.529 C 594.110 295.769, 605.314 302.364, 611.967 308.489 C 615.558 311.795, 617.851 313.678, 617.063 312.674 C 615.324 310.460, 615.872 310.005, 623.982 306.932 C 629.502 304.840, 651 304.250, 651 306.189 C 651 306.601, 651.749 306.650, 652.664 306.299 C 653.579 305.947, 654.074 306.074, 653.764 306.580 C 653.453 307.086, 655.180 307.512, 657.600 307.526 C 663.352 307.561, 663.555 304.377, 658.450 294.173 C 649.361 276.006, 627.717 265.247, 608 269.098 M 382.105 366.583 C 370.648 369.663, 356.926 380.345, 351.986 390.027 C 344.655 404.397, 348.262 418.463, 357.500 411.531 C 375.858 397.758, 402.997 396.314, 421.978 408.101 C 427.675 411.639, 427.965 411.167, 427.985 398.337 C 428.022 373.818, 407.644 359.715, 382.105 366.583 M 183.698 380.383 C 158.169 389.898, 156.786 426.773, 181.463 439.980 C 183.938 441.305, 184.749 441.226, 190.344 439.117 C 193.730 437.841, 198.339 436.371, 200.586 435.852 C 204.672 434.908, 204.672 434.908, 204.681 424.704 C 204.690 413.362, 206.585 406.184, 211.990 397.017 C 215.692 390.739, 215.700 391.070, 211.750 387.247 C 205.013 380.728, 191.587 377.443, 183.698 380.383 M 673 380.370 C 662.337 383.296, 655.827 389.543, 658.916 393.883 C 665.525 403.163, 667.500 409.793, 667.500 422.693 C 667.500 434.886, 667.500 434.886, 672 435.994 C 674.475 436.603, 678.879 437.978, 681.788 439.050 C 703.426 447.029, 718.515 405.326, 700.367 387.699 C 696.090 383.545, 688.619 379.674, 686.147 380.330 C 684.902 380.661, 684.995 380.796, 686.527 380.884 C 692.296 381.214, 694.883 386.618, 690.293 388.750 C 687.068 390.247, 682 390.400, 682 389 C 682 388.450, 681.380 388, 680.622 388 C 675.813 388, 677.183 382.122, 682.500 379.945 C 685.797 378.596, 678.232 378.934, 673 380.370 M 256.203 463.115 C 235.717 466.525, 223.063 490.388, 229.866 512.785 C 234.307 527.406, 249.873 541.788, 258.336 539.089 C 260.076 538.534, 264.538 537.566, 268.250 536.937 C 275 535.795, 275 535.795, 275.006 531.647 C 275.021 520.679, 280.476 505.013, 287.152 496.768 C 289.363 494.036, 289.363 494.036, 282.806 487.244 C 276.238 480.441, 269.439 470.889, 267.038 465.091 C 265.640 461.718, 265.144 461.627, 256.203 463.115 M 423.776 488.415 C 400.985 494.997, 379.786 533.313, 397.750 535.455 C 413.318 537.312, 430.515 548.203, 435.393 559.295 C 435.732 560.064, 436.548 559.596, 437.652 558 C 445.217 547.059, 458.022 538.850, 471.983 535.993 C 480.500 534.250, 480.500 534.250, 480.175 527.461 C 478.898 500.830, 450.018 480.837, 423.776 488.415 M 207.936 529.750 C 188.987 539.359, 193.055 569.052, 214.776 579.679 C 220.940 582.694, 221.039 582.643, 222.103 575.911 C 223.182 569.088, 227.896 559.228, 232.533 554.095 C 236.756 549.421, 237.097 550.781, 229.629 542.500 C 228.141 540.850, 225.028 536.702, 222.712 533.282 C 217.754 525.961, 216.159 525.580, 207.936 529.750 M 650.608 533.940 C 648.138 537.757, 643.844 543.071, 641.065 545.750 C 636.013 550.620, 636.013 550.620, 639.597 554.060 C 644.425 558.694, 648.647 567.308, 650.056 575.401 C 651.346 582.806, 651.415 582.834, 659 578.952 C 680.552 567.924, 683.017 534.537, 662.724 528.511 C 655.453 526.352, 655.542 526.312, 650.608 533.940 M 468 552.590 C 443.418 561.400, 438.261 591.293, 457.460 613.689 C 480.939 641.077, 527.235 597.263, 507.631 566.208 C 499.830 553.851, 481.785 547.650, 468 552.590 M 254.500 556.353 C 224.207 570.489, 237.709 615.989, 274.752 624.600 C 281.611 626.194, 280.989 626.801, 282.560 616.989 C 284.229 606.564, 288.576 597.386, 295.125 590.461 C 300.347 584.940, 300.347 584.940, 296.846 581.220 C 291.601 575.646, 287.732 570.260, 283.528 562.677 C 279.104 554.696, 277.785 553.996, 267.185 554.010 C 261.244 554.017, 258.365 554.549, 254.500 556.353 M 594.725 554.639 C 593.749 554.924, 591.562 557.934, 589.866 561.328 C 586.606 567.854, 580.655 576.431, 575.791 581.616 C 572.867 584.732, 572.867 584.732, 578.032 590.616 C 585.951 599.637, 591 611.621, 591 621.394 C 591 625.487, 591.971 625.760, 600 623.920 C 634.694 615.971, 647.091 571.544, 618.723 556.822 C 614.550 554.656, 599.398 553.278, 594.725 554.639" stroke="none" fill="#e84388" fill-rule="evenodd"/></svg>