<svg xmlns="http://www.w3.org/2000/svg" width="1024" height="1024" viewBox="0 0 1024 1024" version="1.1"><path d="M 482 68.974 C 455.904 69.644, 453.683 70.222, 446.502 78.209 C 438.608 86.989, 438.423 88.947, 439.686 150.500 C 440.274 179.170, 440.430 179.936, 446.668 184.698 C 450.327 187.492, 450.389 187.501, 468.169 187.813 L 486 188.126 486 215.169 L 486 242.211 483.587 245.079 C 480.894 248.279, 481.104 251.424, 484.137 253.317 C 485.885 254.409, 486 256.273, 485.999 283.491 L 485.998 312.500 481.093 315.255 C 478.395 316.770, 473.783 319.817, 470.844 322.026 L 465.500 326.042 465 280.771 C 464.634 247.643, 464.164 234.744, 463.249 232.682 C 460.817 227.203, 456.734 223.017, 451.150 220.275 L 445.500 217.500 402.750 217.191 L 360 216.883 360 213.406 C 360 211.494, 360.699 208.862, 361.554 207.557 C 362.588 205.980, 362.755 204.967, 362.054 204.534 C 360.646 203.663, 360.701 200, 362.122 200 C 362.868 200, 362.799 199.463, 361.920 198.403 C 360.725 196.964, 360.540 196.960, 360.047 198.368 C 359.746 199.227, 359.500 187.831, 359.500 173.045 C 359.500 147.453, 359.401 146.026, 357.438 143.392 C 352.516 136.783, 351.597 136.529, 331.341 136.187 L 312.822 135.874 313.309 130.687 C 313.577 127.834, 314.111 124.307, 314.496 122.848 C 315.072 120.667, 314.804 120.073, 312.986 119.496 C 309.757 118.471, 307.093 121.318, 308.770 124.003 C 309.446 125.086, 310 128.219, 310 130.964 L 310 135.954 270.750 136.227 C 249.162 136.377, 230.506 136.099, 229.291 135.608 C 227.714 134.971, 226.355 135.193, 224.541 136.381 C 221.459 138.401, 221.220 141.984, 224 144.500 C 225.797 146.126, 226.002 147.591, 226.015 158.905 C 226.024 165.832, 226.474 172.175, 227.017 173 C 227.688 174.021, 227.974 170.152, 227.914 160.882 C 227.828 147.514, 227.873 147.218, 230.413 144.678 C 231.836 143.255, 233 141.395, 233 140.545 C 233 139.178, 237.441 139, 271.500 139 L 310 139 310 207.040 C 310 272.847, 310.065 275.207, 311.977 278.956 C 313.065 281.087, 315.427 283.882, 317.227 285.166 C 320.299 287.356, 321.638 287.531, 339 288 L 357.500 288.500 357.760 335.250 L 358.020 382 304.855 382 L 251.690 382 252.345 368.342 C 252.705 360.830, 253 350.930, 253 346.342 L 253 338 274 338 L 295 338 295 267.200 C 295 197.033, 294.872 194, 291.907 194 C 291.526 194, 291.279 225.500, 291.357 264 L 291.500 333.999 287.250 334 L 283 334 282.980 308.250 C 282.969 294.087, 282.978 263.003, 283 239.173 C 283.022 215.343, 282.743 192.952, 282.381 189.415 L 281.722 182.984 225.111 183.242 L 168.500 183.500 167.824 188 C 166.695 195.519, 166.866 336.799, 168.005 337.503 C 168.558 337.845, 180.199 338.084, 193.875 338.035 L 218.738 337.946 219.456 348.066 C 220.124 357.487, 220.029 358.340, 218.087 360.408 C 215.275 363.401, 215.400 366.769, 218.374 368.124 C 221.814 369.692, 225 367.751, 225 364.087 C 225 362.524, 224.325 360.685, 223.500 360 C 221.910 358.681, 221.384 347.329, 222.625 341.125 L 223.250 338 236.625 338 L 250 338 250 360 L 250 382 228.750 382.006 C 217.063 382.009, 205.872 382.463, 203.882 383.016 C 198.182 384.599, 193.691 388.139, 191.250 392.970 C 189.270 396.889, 189 398.942, 189 410.073 L 189 422.723 169.481 423.213 C 150.342 423.694, 149.851 423.760, 144.264 426.617 C 139.955 428.820, 137.827 430.727, 135.533 434.438 L 132.500 439.345 132.500 492.423 L 132.500 545.500 134.803 549.517 C 137.370 553.995, 141.979 557.560, 147.095 559.027 C 149.005 559.575, 165.889 560, 185.743 560 L 221 560 221 577.378 C 221 591.604, 220.728 594.981, 219.500 596 C 217.676 597.513, 217.544 601.144, 219.250 602.850 C 219.938 603.537, 220.528 605.877, 220.562 608.050 L 220.625 612 208.012 612 C 199.536 612, 195.006 612.394, 194.200 613.200 C 193.344 614.056, 193 620.356, 193 635.200 L 193 656 180.329 656 C 169.930 656, 167.329 655.703, 165.825 654.341 C 161.895 650.785, 156.444 657.044, 160.200 660.800 C 161.844 662.444, 164.501 662.306, 166 660.500 C 166.989 659.308, 169.905 659, 180.202 659 L 193.159 659 192.883 669.250 L 192.607 679.500 209.303 679.774 L 226 680.048 226 708.024 C 226 726.008, 226.357 736, 227 736 C 227.637 736, 228.003 727.744, 228.009 713.250 C 228.013 700.737, 228.301 688.137, 228.648 685.250 L 229.279 680 240.139 680 L 251 680 251 702.378 C 251 721.049, 250.752 724.961, 249.500 726 C 246.034 728.877, 249.286 734.979, 253.436 733.386 C 255.660 732.533, 256.511 728.321, 254.862 726.333 C 253.740 724.981, 253.560 715.125, 253.843 670.454 C 254.089 631.505, 253.868 615.622, 253.058 614.108 C 251.991 612.115, 251.151 612, 237.601 612 L 223.273 612 223.273 608.055 C 223.273 605.646, 223.804 603.906, 224.636 603.586 C 226.470 602.882, 226.374 597.555, 224.500 596 C 223.272 594.981, 223 591.604, 223 577.378 L 223 560 307.394 560 L 391.788 560 392.573 569.250 C 393.271 577.474, 393.443 578.056, 394.121 574.500 C 394.541 572.300, 394.911 568.250, 394.944 565.500 L 395.003 560.500 406.119 560.500 L 417.235 560.500 416.800 575 C 416.317 591.131, 415.399 594.153, 409.765 598.171 L 406.500 600.500 337.093 600.770 C 268.567 601.037, 267.662 601.015, 265.804 599.020 C 262.035 594.975, 256.140 597.435, 257.416 602.521 C 258.325 606.144, 262.404 607.849, 264.855 605.631 C 266.564 604.084, 272.313 603.948, 334.609 603.974 C 379.203 603.993, 403.793 603.641, 406.269 602.949 C 411.089 601.602, 416.603 596.096, 417.924 591.313 C 418.490 589.264, 419.259 578.005, 419.633 566.294 L 420.313 545 429.406 545.206 L 438.500 545.411 429.750 545.745 L 421 546.078 421 549.678 L 421 553.279 426.045 552.681 C 431.155 552.076, 435.859 553.346, 436.157 555.411 C 436.244 556.010, 436.596 554.250, 436.940 551.500 C 437.819 544.475, 439.307 587.645, 438.836 606.500 C 438.508 619.593, 438.181 622.028, 436.259 625.653 C 433.251 631.330, 427.660 635.693, 421.779 636.954 C 419.020 637.546, 404.324 638, 387.951 638 L 359 638 359 631.429 C 359 626.921, 359.471 624.386, 360.500 623.357 C 362.543 621.314, 362.387 617.660, 360.171 615.655 C 357.889 613.589, 356.068 613.564, 353.223 615.557 C 350.264 617.629, 350.390 621.375, 353.500 623.821 C 355.674 625.531, 356 626.576, 356 631.827 L 356 637.866 326.250 638.186 C 293.131 638.542, 292.760 638.608, 285.046 645.578 C 280.121 650.027, 278.524 652.900, 277.586 659 C 276.642 665.142, 278.099 745, 279.155 745 C 279.620 745, 280 725.182, 280 700.960 C 280 659.718, 280.120 656.685, 281.894 653.210 C 284.174 648.743, 286.082 646.979, 292 643.867 C 296.401 641.552, 297.164 641.493, 326.750 641.196 L 357 640.892 357 649.879 C 357 657.989, 356.805 658.927, 354.999 659.500 C 353.898 659.850, 352.565 660.945, 352.035 661.935 C 351.188 663.517, 349.167 663.792, 335.286 664.214 C 317.293 664.761, 312.133 666.339, 307.198 672.804 L 304.500 676.340 304.201 701.891 C 303.921 725.726, 303.770 727.566, 301.951 729.261 C 299.473 731.569, 299.451 735.193, 301.900 737.410 C 303.360 738.731, 303.800 740.503, 303.800 745.064 L 303.800 751 262.511 751 C 223.536 751, 221.091 751.106, 218.891 752.887 C 216.980 754.435, 216.558 755.738, 216.545 760.137 C 216.537 763.087, 216.635 786.313, 216.765 811.750 C 216.992 856.502, 217.065 858.065, 219 860 C 220.918 861.918, 222.333 862, 253.500 862 C 278.873 862, 285.984 862.274, 285.926 863.250 C 285.885 863.938, 284.633 868.100, 283.144 872.500 L 280.437 880.500 266.769 880.778 C 253.380 881.050, 253.059 881.109, 251.051 883.663 C 249.923 885.097, 249 887.225, 249 888.392 C 249 890.295, 248.533 890.477, 244.481 890.155 C 238.911 889.712, 235 891.926, 235 895.523 C 235 897.746, 234.590 898, 231 898 C 227.667 898, 227 898.333, 227 900 C 227 901.978, 227.671 902, 289.250 902.014 C 323.488 902.022, 357.462 902.314, 364.750 902.664 L 378 903.300 378 900.650 C 378 898.288, 377.620 898, 374.500 898 C 371.455 898, 371 897.682, 371 895.557 C 371 891.715, 367.528 890, 359.752 890 C 352.976 890, 352.948 889.988, 352.343 886.964 C 351.336 881.929, 348.885 881.002, 336.527 880.985 C 330.462 880.976, 324.883 880.578, 324.129 880.101 C 323.374 879.623, 321.299 875.355, 319.516 870.616 L 316.275 862 349.065 862 L 381.855 862 383.998 859.275 C 386.096 856.609, 386.136 855.899, 385.902 826.025 L 385.663 795.500 411.811 795.196 L 437.959 794.892 441.480 798.413 L 445 801.933 445 865.499 C 445 916.923, 445.261 929.688, 446.364 932.329 C 448.120 936.531, 453.175 940.768, 457.279 941.476 C 459.051 941.782, 480.429 942.137, 504.787 942.266 C 548.570 942.497, 549.071 942.477, 548.787 940.500 C 548.534 938.736, 547.676 938.482, 541.500 938.344 C 537.650 938.258, 533.969 938.146, 533.320 938.094 C 532.670 938.042, 531.995 936.987, 531.820 935.750 C 531.574 934.024, 530.548 933.288, 527.409 932.591 C 524.238 931.887, 523.078 931.044, 522.246 928.841 L 521.174 926 534.515 926 C 545.311 926, 548.157 925.700, 549.429 924.429 C 550.790 923.067, 551 918.685, 551 891.629 C 551 868.673, 550.682 860.082, 549.800 859.200 C 549.140 858.540, 546.264 858, 543.409 858 L 538.219 858 537.802 854.432 C 537.487 851.732, 537.825 850.629, 539.193 849.897 C 541.630 848.593, 541.511 844.344, 539 843 C 537.015 841.938, 537.001 840.974, 537.132 713.215 C 537.242 606.514, 537.944 541.378, 538.821 556.608 L 539 559.716 547.992 559.608 L 556.984 559.500 557.167 553.500 C 557.279 549.840, 557.619 552.180, 558.040 559.500 C 559.084 577.691, 559.142 660.206, 558.109 659.568 C 557.620 659.265, 556.494 660.123, 555.609 661.474 C 554.125 663.739, 554.131 664.207, 555.685 667.465 C 556.612 669.409, 557.737 671, 558.185 671 C 558.633 671, 559 700.820, 559 737.266 C 559 812.608, 558.469 807.856, 567.525 813.500 L 572.339 816.500 627.920 817 C 678.595 817.456, 683.785 817.656, 686.733 819.267 C 691.689 821.976, 693.079 825.672, 693.095 836.192 C 693.117 849.785, 695.938 855.113, 705.500 859.623 C 710.394 861.930, 711.118 861.981, 739.601 861.990 C 770.159 862, 772.860 861.682, 778.655 857.383 C 784.178 853.287, 786.156 848.836, 787.384 837.744 C 788.119 831.102, 788.935 827.571, 789.775 827.404 C 790.476 827.264, 790.589 827.379, 790.025 827.658 C 789.461 827.938, 789 828.919, 789 829.839 C 789 831.325, 789.972 831.437, 797.750 830.843 C 802.563 830.475, 813.561 830.135, 822.191 830.087 C 840.960 829.983, 844.805 828.218, 827.289 827.747 C 815.828 827.439, 815.925 827.424, 830.750 827.215 L 846 827 846 764.611 C 846 704.040, 845.943 702.153, 844.033 699.861 C 842.073 697.508, 842.066 697.718, 842.033 760.250 L 842 823 838 823 L 834 823 833.750 777.250 C 833.612 752.087, 833.475 722.275, 833.445 711 C 833.415 699.725, 833.302 689.938, 833.195 689.250 C 833.043 688.273, 823.733 688, 790.519 688 L 748.038 688 747.364 690.686 C 746.993 692.163, 747.005 711.963, 747.389 734.686 L 748.089 776 745.995 776 C 742.313 776, 737.890 772.981, 736.421 769.466 C 735.244 766.649, 735 755.313, 735 703.532 L 735 641 757 640.850 C 769.100 640.768, 779.563 640.655, 780.250 640.600 C 781.214 640.523, 781.420 644.043, 781.151 656 C 780.959 664.525, 780.397 671.650, 779.901 671.833 C 779.406 672.017, 779 673.238, 779 674.548 C 779 677.564, 782.471 679.684, 784.564 677.947 C 786.208 676.582, 786.490 672.421, 785 671.500 C 784.407 671.133, 784 664.892, 784 656.148 L 784 641.415 788.250 640.277 C 795.046 638.458, 798.927 635.114, 805.610 625.314 C 810.481 618.170, 812.143 614.764, 813.081 609.992 L 814.288 603.857 828.394 604.179 C 845.358 604.565, 849.130 605.934, 852.750 613.020 L 855 617.424 855 696.295 C 855 758.948, 855.257 775.081, 856.250 774.750 C 857.851 774.217, 858.594 620.918, 857.024 615.087 C 855.849 610.725, 850.871 605.323, 846 603.125 C 843.568 602.027, 838.122 601.386, 828.147 601.023 L 813.795 600.500 813.945 575.526 C 814.067 555.249, 814.368 550.251, 815.548 548.947 C 818.538 545.643, 816.562 542, 811.779 542 C 809.736 542, 808.641 542.693, 807.814 544.510 C 806.840 546.646, 806.992 547.363, 808.835 549.324 C 810.934 551.559, 811 552.378, 811 576.314 L 811 601 797.500 601 L 784 601 783.994 588.250 C 783.986 569.838, 781.908 564.105, 773.666 559.757 C 769.946 557.795, 767.655 557.519, 752.250 557.181 L 735 556.802 735 547.401 C 735 541.800, 734.596 538, 734 538 C 733.404 538, 733 541.833, 733 547.500 L 733 557 708 557 L 683 557 683 545.083 C 683 536.534, 682.647 532.999, 681.750 532.572 C 681.063 532.245, 681.513 532.166, 682.751 532.396 C 683.990 532.625, 684.788 532.466, 684.525 532.040 C 684.262 531.615, 684.937 530.462, 686.024 529.479 C 688.235 527.477, 688.666 523.435, 686.750 522.662 C 685.750 522.259, 685.750 522.142, 686.750 522.079 C 687.438 522.036, 688 521.169, 688 520.153 C 688 519.137, 689.013 517.817, 690.250 517.220 C 691.842 516.453, 692.028 516.116, 690.885 516.068 C 689.997 516.030, 685.272 519.955, 680.385 524.789 C 672.613 532.477, 661.612 540.063, 658.360 539.977 C 657.887 539.965, 660.331 538.429, 663.791 536.564 C 672.106 532.083, 677.903 527.228, 683.609 519.965 L 688.295 514 715.179 514 C 738.370 514, 742.143 514.210, 742.649 515.528 C 742.971 516.368, 744.165 517.553, 745.301 518.161 C 747.017 519.079, 747.678 518.881, 749.210 516.989 C 750.799 515.027, 750.868 514.434, 749.709 512.689 C 748.405 510.724, 747.511 510.672, 719.127 510.908 L 689.890 511.151 692.332 506.326 C 693.676 503.672, 695.326 499.657, 695.999 497.404 L 697.224 493.308 715.862 492.657 C 743.418 491.694, 764.784 491.842, 765.500 493 C 766.409 494.470, 769.575 494.217, 770.947 492.564 C 771.832 491.498, 771.854 490.596, 771.034 489.064 C 769.882 486.910, 766.567 486.273, 765.500 488 C 765.108 488.635, 752.613 489, 731.310 489 L 697.738 489 698.358 485.250 C 698.699 483.188, 698.985 479.475, 698.993 477 L 699.008 472.500 719.506 472.129 C 734.433 471.859, 740.396 472.084, 741.447 472.956 C 743.373 474.555, 747.033 473.919, 748.393 471.750 C 750.810 467.894, 744.576 464.031, 741.847 467.693 C 740.601 469.364, 738.927 469.462, 719.566 469 L 698.633 468.500 697.313 460.678 C 696.587 456.376, 695.545 452.019, 694.997 450.994 C 694.449 449.970, 694 448.892, 694 448.599 C 694 448.306, 711.734 447.939, 733.408 447.783 L 772.817 447.500 776.658 444.429 C 783.245 439.163, 783.997 436.585, 783.998 419.250 L 784 404 798.500 404 L 813 404 812.978 425.750 C 812.957 445.797, 812.802 447.696, 811 450 C 808.472 453.232, 808.472 456.647, 811 458 C 812.100 458.589, 813 459.955, 813 461.035 C 813 462.901, 812.244 463, 798.057 463 C 783.748 463, 783.047 463.094, 781.557 465.223 C 780.264 467.068, 780 471.119, 780 489.100 C 780 513.465, 780.560 511.662, 771.641 516 C 767.841 517.848, 766.410 519.138, 766.155 520.944 C 765.445 525.976, 765.692 526, 817.723 526 C 860.694 526, 866.130 525.826, 866.664 524.433 C 867.670 521.812, 865.113 518.491, 859.443 515.054 C 852.658 510.942, 852.551 510.441, 853.246 485.896 C 853.681 470.512, 853.517 466.755, 852.332 465.063 C 850.964 463.110, 849.936 463, 833.037 463 L 815.187 463 815.753 460.750 C 816.064 459.512, 816.922 458.140, 817.659 457.700 C 819.670 456.501, 819.274 452.333, 816.944 450.162 C 814.972 448.326, 814.900 447.361, 815.194 426.705 C 815.362 414.856, 815.737 404.926, 816.027 404.638 C 816.316 404.349, 827.029 404.011, 839.833 403.885 C 865.007 403.639, 865.872 403.436, 863.914 398.250 C 862.793 395.280, 859.771 395.381, 856.405 398.500 C 853.726 400.983, 853.579 401, 834.854 401 L 816 401 816 384.107 C 816 369.709, 815.769 367.125, 814.437 366.614 C 813.577 366.284, 813.153 365.561, 813.496 365.007 C 814.433 363.490, 816 363.798, 816 365.500 C 816 366.325, 816.464 367, 817.031 367 C 817.599 367, 818.322 366.325, 818.638 365.500 C 818.955 364.675, 819.792 364, 820.499 364 C 821.205 364, 822.072 362.851, 822.424 361.447 C 823.461 357.317, 817.074 350.460, 815.720 354.250 C 815.461 354.977, 814.903 355.129, 814.387 354.613 C 813.871 354.097, 814.023 353.539, 814.750 353.280 C 815.724 352.932, 816 343.277, 816 309.574 L 816 266.315 813.672 261.907 C 812.150 259.024, 809.683 256.471, 806.541 254.525 C 801.969 251.693, 801.104 251.531, 788.619 251.165 L 775.500 250.781 775.500 221.543 C 775.500 198.231, 775.222 191.970, 774.128 190.653 C 772.900 189.174, 769.127 189, 738.378 189 L 704 189 704 180.241 C 704 172.564, 704.247 171.327, 706 170.232 C 708.557 168.635, 708.633 163.882, 706.136 161.623 C 704.867 160.475, 704.096 157.996, 703.721 153.857 C 703.101 147.020, 699.922 142.052, 693.894 138.500 C 690.616 136.569, 688.434 136.490, 630.250 136.220 L 570 135.940 570 129.520 C 570 125.258, 570.446 122.831, 571.325 122.300 C 573.702 120.866, 573.949 118.206, 571.944 115.656 C 570.211 113.452, 570 111.522, 569.998 97.842 C 569.997 85.212, 569.688 81.894, 568.248 79.071 C 565.665 74.004, 560.305 70.196, 554.104 69.020 C 548.579 67.972, 521.630 67.955, 482 68.974 M 458.340 73.435 C 452.380 75.299, 448.408 78.449, 445.254 83.815 L 442.500 88.500 442.231 131.500 C 441.971 173.072, 442.029 174.608, 443.972 177.759 C 448.015 184.315, 450.547 185.046, 469 184.976 C 478.075 184.941, 486.063 184.933, 486.750 184.957 C 487.720 184.990, 488 191.455, 488 213.826 L 488 242.651 490.500 245 C 491.875 246.292, 493 248.138, 493 249.102 C 493 250.066, 491.875 251.740, 490.500 252.821 L 488 254.788 488 282.894 C 488 298.352, 488.337 310.994, 488.750 310.987 C 489.163 310.980, 493.005 309.855, 497.288 308.487 C 501.572 307.119, 506.184 306, 507.538 306 L 510 306 510 238.925 L 510 171.850 487.710 172.114 C 475.451 172.259, 464.876 172.041, 464.210 171.630 C 463.296 171.065, 463.004 161.289, 463.015 131.691 C 463.024 110.136, 463.391 91.932, 463.832 91.237 C 464.459 90.250, 472.585 90.032, 501.067 90.237 L 537.500 90.500 537.769 113.250 L 538.038 136 553.019 136 L 568 136 568 129.622 C 568 125.173, 567.546 122.868, 566.500 122 C 564.543 120.376, 564.580 116.593, 566.570 114.942 C 567.932 113.812, 568.047 111.518, 567.440 97.570 C 566.668 79.841, 565.955 77.371, 560.656 74.097 C 557.333 72.042, 556.305 72.001, 509.882 72.067 C 473.939 72.118, 461.496 72.448, 458.340 73.435 M 466.680 93.654 C 466.306 94.027, 466 104.839, 466 117.680 L 466 141.026 500.250 140.763 L 534.500 140.500 534.441 117 L 534.382 93.500 500.871 93.237 C 482.439 93.092, 467.054 93.280, 466.680 93.654 M 399.807 123.747 C 406.576 123.921, 417.376 123.920, 423.807 123.746 C 430.238 123.572, 424.700 123.431, 411.500 123.431 C 398.300 123.432, 393.038 123.574, 399.807 123.747 M 225.408 139.378 C 224.599 141.487, 225.735 143, 228.129 143 C 229.639 143, 230.060 142.443, 229.820 140.760 C 229.447 138.146, 226.264 137.149, 225.408 139.378 M 313.230 207.750 C 313.493 274.706, 313.552 276.571, 315.500 279.217 C 318.960 283.917, 322.179 284.710, 340.770 285.442 L 358.039 286.122 357.770 264.311 L 357.500 242.500 351.056 242.197 C 346.321 241.975, 343.730 242.369, 341.291 243.683 C 337.454 245.749, 334.716 244.753, 334.173 241.093 C 333.532 236.767, 338.202 234.345, 341.269 237.412 C 342.142 238.285, 345.410 238.952, 349.843 239.162 L 357.005 239.500 357.002 229.750 L 357 220 346.750 219.985 C 341.113 219.976, 335.900 219.589, 335.166 219.124 C 332.843 217.651, 336.476 217, 347.021 217 L 356.879 217 357.190 213.250 C 357.447 210.137, 356.839 208.684, 353.613 204.698 L 349.726 199.895 352.613 196.734 C 354.201 194.995, 356.027 193.106, 356.671 192.536 C 357.508 191.795, 357.793 185.321, 357.671 169.825 C 357.512 149.627, 357.359 147.958, 355.429 145.325 C 351.363 139.779, 348.210 139.003, 329.730 139.002 L 312.960 139 313.230 207.750 M 537.517 201.920 C 537.108 236.527, 537.105 274.102, 537.509 285.420 L 538.244 306 540.912 306 C 543.215 306, 547.853 307.051, 556.692 309.577 L 558.884 310.203 559.192 281.685 L 559.500 253.167 562.509 248.888 C 564.328 246.301, 567.480 243.599, 570.480 242.055 L 575.441 239.500 606.719 239.500 L 637.997 239.500 637.999 216.885 C 638 195.521, 638.115 194.124, 640.073 191.635 L 642.145 189 672.098 189 L 702.051 189 701.464 180.484 C 700.969 173.307, 700.503 171.594, 698.503 169.594 C 695.672 166.762, 696.088 163.862, 699.739 160.991 C 701.995 159.216, 702.165 158.578, 701.528 154.265 C 700.645 148.283, 697.730 143.457, 693.653 141.226 C 690.783 139.655, 685.091 139.474, 630.250 139.213 L 570 138.926 570 175.418 L 570 211.909 572.545 214.455 L 575.091 217 597.423 217 C 616.054 217, 619.961 216.751, 621 215.500 C 623.697 212.250, 628.360 214.907, 627.271 219.073 C 626.662 221.401, 624.335 222.249, 621.993 220.996 C 619.283 219.546, 574.776 219.689, 571.551 221.159 C 569.432 222.124, 568.674 222.015, 567.004 220.504 C 564.626 218.351, 564.422 215.724, 566.500 214 C 567.784 212.935, 568 207.438, 568 175.878 L 568 139 553.130 139 L 538.259 139 537.517 201.920 M 466.667 144.667 C 466.300 145.033, 466 148.633, 466 152.667 L 466 160 500 160 L 534 160 534 152 L 534 144 500.667 144 C 482.333 144, 467.033 144.300, 466.667 144.667 M 498 149 C 495.322 151.678, 495.481 153.614, 498.541 155.619 C 502.222 158.030, 506 156.196, 506 151.997 C 506 149.647, 505.414 148.728, 503.435 147.975 C 500.118 146.714, 500.325 146.675, 498 149 M 700.531 163.612 C 699.363 164.780, 699.254 165.607, 700.069 167.130 C 701.531 169.860, 704.430 169.089, 704.804 165.869 C 705.172 162.703, 702.730 161.413, 700.531 163.612 M 751.452 164.433 C 750.212 166.325, 750.104 167.325, 750.964 168.933 C 753.031 172.795, 759 170.987, 759 166.500 C 759 161.809, 754.058 160.455, 751.452 164.433 M 466.667 164.667 C 466.300 165.033, 466 165.933, 466 166.667 C 466 167.752, 472.333 168, 500 168 C 533.333 168, 534 167.961, 534 166 C 534 164.040, 533.333 164, 500.667 164 C 482.333 164, 467.033 164.300, 466.667 164.667 M 513 238.438 L 513 304.875 524.015 305.188 L 535.030 305.500 534.988 238.750 L 534.945 172 523.973 172 L 513 172 513 238.438 M 171 232.936 L 171 278.873 224.250 279.186 C 253.538 279.359, 277.837 279.361, 278.250 279.191 C 278.663 279.021, 279 258.209, 279 232.941 L 279 187 225 187 L 171 187 171 232.936 M 360 194.167 C 360 195.358, 360.285 196.049, 360.633 195.701 C 360.981 195.353, 362.164 196.210, 363.261 197.605 C 364.744 199.490, 364.967 200.433, 364.129 201.271 C 362.136 203.264, 362.926 204.377, 365 202.500 C 367.641 200.110, 367.502 199.116, 363.985 195.250 C 360.499 191.418, 360 191.282, 360 194.167 M 675.500 192.979 L 642.500 193.500 642.237 228.250 L 641.974 263 706.987 263 L 772 263 772 228.117 L 772 193.233 769.750 192.630 C 767.352 191.988, 729.477 192.128, 675.500 192.979 M 354.604 197.200 C 352.943 199.736, 352.947 199.989, 354.677 202.630 C 356.222 204.988, 356.544 205.128, 356.844 203.570 C 357.038 202.563, 356.619 201.383, 355.913 200.946 C 354.869 200.301, 354.868 199.864, 355.909 198.610 C 356.613 197.761, 357 196.499, 356.768 195.804 C 356.507 195.022, 355.683 195.555, 354.604 197.200 M 250.373 205.469 C 250.050 206.311, 250.050 207.689, 250.373 208.531 C 250.865 209.812, 252.961 210.016, 263.230 209.781 L 275.500 209.500 275.500 207 L 275.500 204.500 263.230 204.219 C 252.961 203.984, 250.865 204.188, 250.373 205.469 M 360.214 229.750 L 360.500 239.500 393.500 240 C 428.818 240.535, 429.044 240.568, 434.739 245.944 C 440.579 251.457, 440.479 250.553, 440.747 299.914 C 440.883 324.891, 441.108 345.419, 441.247 345.531 C 441.386 345.643, 443.122 346.028, 445.105 346.385 C 448.513 347.001, 448.863 346.802, 451.506 342.768 C 453.043 340.421, 456.033 336.413, 458.151 333.861 L 462 329.222 461.978 282.861 C 461.954 231.284, 461.983 231.529, 455.095 225.733 C 448.695 220.348, 445.398 220, 400.782 220 L 359.928 220 360.214 229.750 M 360.230 264 L 360.500 285.500 376.500 286 C 393.474 286.530, 396.051 287.187, 400.702 292.169 C 405.521 297.329, 406 300.335, 406 325.391 L 406 348.847 408.750 347.479 C 412.697 345.516, 424.500 343.804, 431.500 344.179 L 437.500 344.500 437.500 298.921 L 437.500 253.343 434.767 249.761 C 429.956 243.454, 427.505 243.055, 391.730 242.761 L 359.961 242.500 360.230 264 M 576.905 242.932 C 571.360 244.016, 566.720 247.206, 564.280 251.612 C 562.142 255.471, 562.056 256.659, 561.969 283.420 L 561.878 311.219 566.953 313.569 C 580.022 319.625, 592.820 329.905, 601.027 340.943 L 606.047 347.693 616.024 347.213 C 624.784 346.791, 626 346.932, 626 348.366 C 626 349.724, 624.690 350.027, 618.250 350.158 C 613.987 350.244, 609.938 350.294, 609.250 350.269 C 607.564 350.206, 607.561 350.193, 611.161 357.279 C 612.900 360.700, 614.862 365.300, 615.521 367.500 L 616.719 371.500 635.005 371.773 C 650.672 372.007, 653.546 371.816, 655.071 370.435 C 658.460 367.369, 663.755 370.982, 661.393 374.750 C 660.085 376.836, 656.208 377.608, 654.685 376.085 C 653.985 375.385, 647.186 374.999, 635.550 374.997 L 617.500 374.995 618.428 388.587 L 619.356 402.179 622.303 401.589 C 623.924 401.265, 637.344 401, 652.125 401 L 679 401 679 381 C 679 368.333, 679.367 361, 680 361 C 680.633 361, 681 368.333, 681 381 L 681 401 731.500 401 L 782 401 782 382.212 C 782 364.717, 781.845 363.117, 779.750 358.962 C 778.106 355.702, 776.298 353.894, 773.038 352.250 L 768.576 350 704.788 350 C 652.006 350, 641 349.768, 641 348.654 C 641 347.539, 652.081 347.337, 705.750 347.473 C 778.166 347.658, 775.119 347.360, 780.806 354.810 L 783.500 358.338 783.805 379.669 L 784.110 401 798.555 401 L 813 401 813 384.853 L 813 368.706 809.378 364.285 L 805.755 359.865 808.628 356.698 C 810.207 354.957, 811.851 353.265, 812.281 352.938 C 812.710 352.611, 812.935 332.499, 812.781 308.244 C 812.509 265.493, 812.437 264.058, 810.435 261.322 C 806.623 256.111, 801.837 254.566, 788.250 254.160 L 776 253.794 776 262.963 C 776 277.124, 778.460 276, 747.465 276 C 732.909 276, 721 276.235, 721 276.522 C 721 276.809, 722.338 279.995, 723.973 283.601 C 726.869 289.988, 727.036 290.150, 730.403 289.860 C 732.611 289.670, 734.545 290.183, 735.758 291.281 C 737.134 292.527, 739.564 293.033, 744.579 293.118 C 754.586 293.289, 757.267 294.070, 758.795 297.258 C 759.899 299.562, 760.739 300, 764.055 300 C 767.338 300, 768 300.337, 768 302.008 C 768 303.999, 767.497 304.013, 706.764 303.758 C 649.356 303.516, 645.506 303.391, 645.190 301.750 C 644.905 300.269, 645.633 300, 649.927 300 C 653.510 300, 655 299.605, 655 298.655 C 655 297.915, 655.947 296.453, 657.105 295.405 C 658.819 293.854, 660.752 293.500, 667.500 293.500 C 673.869 293.500, 676.220 293.110, 677.651 291.815 C 678.712 290.856, 681.611 289.994, 684.380 289.815 C 689.131 289.507, 689.287 289.394, 690.992 285 C 691.952 282.525, 693.052 279.488, 693.436 278.250 L 694.135 276 667.639 276 C 644.885 276, 640.921 275.778, 639.571 274.429 C 638.279 273.136, 638 270.121, 638 257.429 L 638 242 609.250 242.115 C 593.438 242.178, 578.882 242.546, 576.905 242.932 M 484.591 247.625 C 483.742 249.835, 486.310 252.479, 488.493 251.641 C 489.508 251.252, 490.017 250.143, 489.820 248.754 C 489.421 245.946, 485.555 245.111, 484.591 247.625 M 250.362 255.500 C 248.868 259.392, 250.491 260, 262.362 260 C 274.233 260, 275.855 259.392, 274.362 255.500 C 273.896 254.288, 271.594 254, 262.362 254 C 253.129 254, 250.827 254.288, 250.362 255.500 M 666.250 266.767 L 642 267.035 642 269.517 L 642 272 707 272 L 772 272 772 269.500 L 772 267 741.617 267 C 712.074 267, 711.219 267.055, 710.710 269 C 709.999 271.721, 705.018 271.784, 704.311 269.081 C 703.678 266.660, 699.430 266.402, 666.250 266.767 M 698.180 277.283 C 696.933 278.786, 693 287.745, 693 289.083 C 693 289.597, 699.374 290, 707.500 290 C 715.475 290, 722 289.784, 722 289.520 C 722 289.256, 720.795 286.106, 719.323 282.520 L 716.645 276 707.945 276 C 702.084 276, 698.897 276.419, 698.180 277.283 M 172 288.500 L 172 293 224.750 293 L 277.500 293 277.500 288.500 L 277.500 284 224.750 284 L 172 284 172 288.500 M 174 288.250 L 174 290.500 220.500 290.500 L 267 290.500 267 288.250 L 267 286 220.500 286 L 174 286 174 288.250 M 270 288.500 C 270 290.333, 270.533 291, 272 291 C 273.467 291, 274 290.333, 274 288.500 C 274 286.667, 273.467 286, 272 286 C 270.533 286, 270 286.667, 270 288.500 M 360 335.500 L 360 382 364.418 382 C 366.848 382, 369.436 382.204, 370.168 382.453 C 371.015 382.741, 372.559 380.673, 374.409 376.772 C 377.993 369.213, 389.062 357.730, 397.442 352.877 L 403.385 349.437 403.120 324.468 C 402.821 296.328, 402.586 295.312, 395.444 291.267 C 391.828 289.219, 390.189 289.032, 375.750 289.016 L 360 289 360 335.500 M 679.794 295.635 C 678.481 296.948, 676.301 297.232, 668.708 297.079 C 661.713 296.938, 659.127 297.227, 658.756 298.194 C 658.348 299.258, 667.235 299.500, 706.628 299.500 C 738.435 299.500, 754.885 299.158, 754.662 298.500 C 754.471 297.934, 750.133 297.462, 744.670 297.412 C 737.163 297.344, 734.607 296.954, 733.179 295.662 C 731.570 294.206, 728.248 294, 706.386 294 C 684.621 294, 681.219 294.209, 679.794 295.635 M 171 311 L 171 325 225 325 L 279 325 279 311 L 279 297 225 297 L 171 297 171 311 M 511.430 308.978 C 488.598 312.218, 467.083 325.823, 454.728 344.835 C 450.243 351.737, 450.784 351.563, 441.500 349.106 C 430.306 346.144, 410.469 349.098, 400.113 355.268 C 387.455 362.811, 376.663 376.901, 372.497 391.323 C 370.361 398.720, 370.338 412.897, 372.452 418.876 C 373.304 421.282, 374 423.447, 374 423.686 C 374 423.925, 370.962 423.840, 367.250 423.496 C 359.273 422.757, 347.943 425.310, 339.675 429.711 C 331.435 434.097, 320.599 445.487, 316.927 453.621 C 305.958 477.926, 310.338 504.267, 328.380 522.499 C 333.515 527.689, 337.591 530.720, 343 533.374 C 358.570 541.012, 345.872 540.408, 497.918 540.745 C 651.674 541.087, 644.819 541.377, 659.989 533.890 C 676.505 525.738, 689.409 509.035, 693.542 490.458 C 694.853 484.564, 695.140 479.954, 694.748 471.110 C 694.176 458.227, 691.997 450.659, 685.877 440.301 C 681.143 432.288, 668.901 420.217, 659.848 414.634 C 649.194 408.064, 641.185 405.847, 627 405.543 L 615.500 405.297 614.863 391.788 C 613.870 370.740, 611.323 362.322, 601.423 347.377 C 589.576 329.493, 570.506 316.592, 547.500 310.897 C 538.384 308.641, 520.511 307.690, 511.430 308.978 M 171 331.500 L 171 334 225 334 L 279 334 279 331.500 L 279 329 225 329 L 171 329 171 331.500 M 629.605 344.299 C 626.980 346.219, 627.842 351.069, 631.135 352.909 C 633.495 354.227, 634.042 354.202, 636.385 352.667 C 639.960 350.325, 639.997 345.775, 636.453 344.161 C 633.182 342.670, 631.795 342.698, 629.605 344.299 M 631.180 348.250 C 631.390 349.727, 632.187 350.500, 633.500 350.500 C 634.813 350.500, 635.610 349.727, 635.820 348.250 C 636.082 346.404, 635.665 346, 633.500 346 C 631.335 346, 630.918 346.404, 631.180 348.250 M 816.514 355.977 C 816.162 356.547, 816.577 357.284, 817.437 357.614 C 819.433 358.380, 819.482 361, 817.500 361 C 816.675 361, 816 361.423, 816 361.941 C 816 363.899, 817.628 363.761, 819.680 361.629 L 821.808 359.418 819.482 357.179 C 818.060 355.810, 816.906 355.343, 816.514 355.977 M 810.540 357.956 C 808.944 359.720, 808.921 360.064, 810.313 361.456 C 812.452 363.595, 812.600 363.469, 812.600 359.500 C 812.600 357.575, 812.535 356, 812.455 356 C 812.375 356, 811.513 356.880, 810.540 357.956 M 202.684 386.449 C 193.702 389.652, 192 393.376, 192 409.825 L 192 422.750 195.125 423.375 C 199.540 424.258, 217.256 424.124, 218.715 423.197 C 219.520 422.686, 220.039 418.554, 220.252 410.962 L 220.572 399.500 220.786 411.111 L 221 422.721 225.999 423.314 C 235.259 424.410, 239.606 427.718, 245.231 437.948 C 246.289 439.872, 248.629 441.833, 251.250 442.992 C 255.098 444.695, 258.674 444.921, 286.098 445.195 L 316.658 445.500 319.864 441.246 C 326.509 432.427, 341.199 423.346, 352.671 420.965 L 358.081 419.841 357.791 412.171 L 357.500 404.500 310.985 404.405 C 278.206 404.338, 263.415 403.962, 260.900 403.132 C 254.653 401.070, 250 394.582, 250 387.935 L 250 385 228.250 385.044 C 212.536 385.076, 205.441 385.466, 202.684 386.449 M 252.343 388.727 C 253.023 392.918, 255.307 396.393, 259.384 399.438 C 262.068 401.443, 263.463 401.508, 310.072 401.795 L 358 402.091 358 393.545 L 358 385 304.869 385 L 251.738 385 252.343 388.727 M 360.210 393.227 L 360.500 401.454 363.640 401.706 C 366.651 401.948, 366.807 401.772, 367.463 397.396 C 367.840 394.886, 368.769 391.071, 369.529 388.917 L 370.911 385 365.415 385 L 359.919 385 360.210 393.227 M 656.655 409.021 C 662.891 412.136, 669.038 416.153, 672.853 419.605 L 679 425.168 679 414.584 L 679 404 662.802 404 L 646.604 404 656.655 409.021 M 681 415.947 L 681 427.894 685.913 434.385 C 688.615 437.955, 691.125 441.818, 691.491 442.971 C 692.153 445.057, 692.312 445.064, 732.006 444.783 C 770.728 444.508, 771.936 444.440, 774.678 442.395 C 780.519 438.039, 781.467 434.910, 781.842 418.750 L 782.183 404 731.592 404 L 681 404 681 415.947 M 360 412.500 L 360 420 364.607 420 C 368.594 420, 369.120 419.765, 368.514 418.250 C 368.129 417.288, 367.569 413.913, 367.268 410.750 L 366.722 405 363.361 405 L 360 405 360 412.500 M 165.924 426.939 C 147.655 427.491, 147.277 427.547, 143.095 430.316 C 134.871 435.763, 135.047 434.403, 135.022 492.849 C 134.997 550.548, 134.794 548.849, 142.332 553.839 L 146.351 556.500 183.675 556.785 L 221 557.070 221 541.535 L 221 526 188.700 526 C 155.397 526, 154 525.838, 154 521.974 C 154 519.769, 157.869 516.290, 161.875 514.894 L 165.165 513.747 164.832 490.838 C 164.549 471.315, 164.722 467.789, 166 466.980 C 166.847 466.444, 178.904 466.024, 193.677 466.015 C 217.758 466.001, 219.890 465.860, 220.311 464.250 C 220.746 462.583, 220.774 462.583, 220.884 464.250 C 220.988 465.824, 222.352 466, 234.465 466 C 246.754 466, 248.020 466.169, 248.965 467.934 C 249.591 469.104, 250 478.812, 250 492.502 C 250 513.983, 250.093 515.105, 251.831 514.554 C 252.977 514.190, 255.222 515.102, 257.831 516.993 C 261.110 519.368, 262 520.647, 262 522.985 L 262 525.957 242.750 526.228 L 223.500 526.500 223.224 541.750 L 222.948 557 307.474 557 L 392 557 392 551.132 L 392 545.264 376.250 544.734 C 365.486 544.372, 358.759 543.662, 355.002 542.490 C 341.372 538.239, 327.812 528.963, 319.893 518.474 L 315.760 513 302.035 513 C 289.580 513, 288.142 513.185, 286.500 515 C 282.252 519.694, 274.675 515.003, 277.278 509.290 C 278.813 505.920, 282.585 505.262, 285.370 507.878 C 287.438 509.821, 288.750 510, 300.921 510 C 313.197 510, 314.157 509.866, 313.472 508.250 C 313.065 507.288, 311.567 503.168, 310.143 499.096 L 307.556 491.693 283.278 492.355 C 262.135 492.932, 259 492.825, 259 491.526 C 259 490.254, 262.524 489.996, 283.043 489.768 L 307.086 489.500 307.293 480.820 L 307.500 472.141 287.801 472.042 C 268.799 471.946, 268.061 472.017, 266.984 474.030 C 265.260 477.252, 259.849 476.396, 258.556 472.697 C 257.258 468.983, 258.814 466.589, 262.784 466.192 C 265.070 465.963, 266.152 466.415, 266.969 467.942 C 268.024 469.913, 268.907 470, 287.846 470 L 307.622 470 308.943 464.750 C 309.669 461.863, 311.475 456.800, 312.955 453.500 L 315.647 447.500 284 447.500 L 252.352 447.500 248.392 444.879 C 246.099 443.361, 242.973 439.799, 240.966 436.418 C 236.904 429.574, 233.206 427.118, 226.425 426.760 L 221.500 426.500 221.500 443.750 C 221.500 453.238, 221.173 461, 220.774 461 C 220.374 461, 219.924 453.272, 219.774 443.826 L 219.500 426.653 205.750 426.235 L 192 425.817 192 436.408 C 192 445.667, 192.252 447.252, 194 449 C 195.100 450.100, 196 451.675, 196 452.500 C 196 453.325, 195.100 454.900, 194 456 C 192.900 457.100, 191.325 458, 190.500 458 C 188.562 458, 185 454.438, 185 452.500 C 185 451.675, 185.900 450.100, 187 449 C 188.746 447.254, 189 445.667, 189 436.500 C 189 426.222, 188.952 426.004, 186.750 426.189 C 185.512 426.293, 176.141 426.630, 165.924 426.939 M 845.405 442.500 C 845.406 451.300, 845.559 454.766, 845.745 450.203 C 845.930 445.639, 845.929 438.439, 845.742 434.203 C 845.555 429.966, 845.404 433.700, 845.405 442.500 M 188.623 451.541 C 187.778 453.741, 188.690 455, 191.129 455 C 192.639 455, 193.060 454.443, 192.820 452.760 C 192.437 450.078, 189.510 449.228, 188.623 451.541 M 812.701 452.632 C 811.127 454.207, 812.061 456.130, 814.250 455.820 C 815.487 455.644, 816.500 454.831, 816.500 454.014 C 816.500 452.425, 813.866 451.467, 812.701 452.632 M 784.667 466.667 C 784.300 467.033, 784 476.483, 784 487.667 L 784 508 792.250 508.046 C 796.788 508.072, 811.605 508.331, 825.178 508.623 L 849.857 509.153 849.959 488.077 C 850.029 473.688, 849.722 467, 848.990 467 C 848.254 467, 848.009 473.115, 848.209 486.501 L 848.500 506.002 816.844 506.001 L 785.188 506 785.745 486 C 786.051 475, 786.084 466, 785.817 466 C 785.551 466, 785.033 466.300, 784.667 466.667 M 789.682 467.651 C 789.307 468.026, 789 475.858, 789 485.055 L 789 501.776 812.250 502.480 C 825.038 502.868, 837.525 503.030, 840 502.842 L 844.500 502.500 844.500 485 L 844.500 467.500 817.432 467.234 C 802.545 467.088, 790.058 467.276, 789.682 467.651 M 260.465 470.056 C 259.688 471.314, 261.859 473.171, 263.500 472.650 C 264.050 472.476, 264.500 471.702, 264.500 470.930 C 264.500 469.161, 261.430 468.496, 260.465 470.056 M 168 489.559 C 168 502.344, 168.346 508.904, 169 508.500 C 169.607 508.125, 170 500.770, 170 489.781 L 170 471.681 192.662 472.340 C 205.125 472.703, 221.775 473, 229.662 473 L 244 473 244 489.941 C 244 500.156, 244.397 507.127, 245 507.500 C 245.653 507.904, 246 501.510, 246 489.059 L 246 470 207 470 L 168 470 168 489.559 M 174 490.369 L 174 506 207.500 506 L 241 506 241 502.514 L 241 499.027 208.250 498.764 C 179.923 498.536, 175.500 498.297, 175.500 497 C 175.500 495.703, 179.923 495.464, 208.250 495.236 C 240.093 494.980, 241 494.918, 241 493 C 241 491.082, 240.093 491.020, 208.250 490.764 C 181.210 490.546, 175.500 490.260, 175.500 489.121 C 175.500 487.973, 180.992 487.774, 208.250 487.930 C 237.327 488.097, 241 487.943, 241 486.559 C 241 485.702, 241.113 484.663, 241.250 484.250 C 241.387 483.837, 226.650 483.275, 208.500 483 C 180.593 482.577, 175.500 482.277, 175.500 481.052 C 175.500 479.812, 180.264 479.645, 208.750 479.889 C 241.886 480.173, 242 480.167, 242 478.087 C 242 476.017, 241.750 476, 211.750 475.989 C 195.113 475.983, 179.813 475.699, 177.750 475.358 L 174 474.738 174 490.369 M 174.999 502.090 C 175 503.496, 178.675 503.761, 206.670 504.370 C 237.545 505.042, 242.152 504.719, 239.450 502.068 C 238.918 501.546, 224.543 500.996, 206.749 500.818 C 178.258 500.533, 174.999 500.663, 174.999 502.090 M 279.473 510.044 C 278.679 511.329, 280.765 514, 282.563 514 C 284.344 514, 285.138 512.523, 284.396 510.590 C 283.711 508.804, 280.462 508.444, 279.473 510.044 M 170.056 511.896 L 168.930 514 191.215 513.815 C 203.472 513.713, 211.035 513.461, 208.022 513.255 C 205.009 513.048, 202.263 512.426, 201.920 511.871 C 201.571 511.305, 194.678 510.627, 186.239 510.327 C 171.683 509.810, 171.144 509.862, 170.056 511.896 M 215 512.473 L 215 515 230.622 515 L 246.244 515 244.752 512.750 C 243.337 510.618, 242.521 510.485, 229.130 510.223 L 215 509.945 215 512.473 M 781.774 513.145 C 781.310 514.355, 786.519 514.613, 816.614 514.870 C 841.596 515.083, 852 514.853, 852 514.086 C 852 513.333, 844.085 513, 826.154 513 C 811.938 513, 796.260 512.713, 791.314 512.362 C 784.033 511.845, 782.216 511.994, 781.774 513.145 M 160.060 519.750 C 157.994 521.422, 159.849 521.488, 201.699 521.236 C 225.789 521.091, 248.425 520.964, 252 520.954 C 257.932 520.938, 258.330 520.808, 256.559 519.468 C 254.917 518.226, 247.492 518, 208.420 518 C 165.912 518, 162.049 518.140, 160.060 519.750 M 788.330 519 C 755.335 519.961, 770.045 521, 816.083 520.960 C 855.410 520.926, 862.118 520.716, 860 519.584 C 857.375 518.181, 825.400 517.921, 788.330 519 M 679.056 533 C 678.895 533.825, 678.835 535.059, 678.924 535.743 C 679.012 536.429, 677.052 537.529, 674.542 538.200 C 671.336 539.058, 670 539.932, 670 541.173 C 670 542.530, 668.848 543.084, 664.948 543.601 C 660.402 544.204, 659.838 544.558, 659.323 547.136 C 659.008 548.711, 658.131 550, 657.375 550 C 656.619 550, 656 550.404, 656 550.897 C 656 552.480, 643.554 554.029, 625.637 554.677 C 609.054 555.277, 608.182 555.215, 607.719 553.404 C 607.371 552.044, 607.199 552.287, 607.116 554.250 L 607 557 643.750 557.002 L 680.500 557.005 680.232 548.252 C 679.890 537.067, 679.429 531.091, 679.056 533 M 533.183 551 L 533.005 558.500 524.861 558.169 C 519.084 557.935, 516.491 558.205, 515.938 559.100 C 515.090 560.472, 514.239 556.669, 513.678 549 C 513.497 546.525, 513.271 613.237, 513.175 697.250 C 513.020 832.283, 512.826 850, 511.500 850 C 510.174 850, 509.986 832.475, 509.881 698.750 C 509.802 597.780, 509.440 549.270, 508.793 552.823 C 507.993 557.220, 507.535 558.024, 506.162 557.445 C 502.741 556, 500.189 555.854, 496.443 556.888 C 493.642 557.661, 492.399 557.646, 491.896 556.831 C 491.457 556.122, 491.024 556.406, 490.717 557.605 C 490.450 558.647, 490.180 556.433, 490.116 552.684 L 490 545.867 500.002 546.184 C 505.503 546.358, 510.003 546.163, 510.002 545.750 C 510.001 545.337, 505.347 545, 499.660 545 L 489.320 545 488.662 569.750 C 488.300 583.362, 488.003 622.907, 488.002 657.628 C 488 712.523, 488.196 720.917, 489.500 722 C 490.325 722.685, 491 724.485, 491 726 C 491 727.515, 490.325 729.315, 489.500 730 C 488.200 731.079, 488 738.500, 488 785.563 C 488 820.697, 488.353 840.100, 489 840.500 C 490.650 841.520, 490.129 846.573, 488.194 848.325 C 486.561 849.802, 486.176 849.812, 484.194 848.423 C 481.523 846.552, 481.268 841.938, 483.750 840.389 C 485.346 839.394, 485.475 837.345, 485.213 817.149 L 484.926 795 469.603 795 L 454.280 795 450.727 798.351 L 447.174 801.702 447.555 865.399 C 447.849 914.497, 448.230 929.706, 449.218 931.761 C 449.923 933.226, 452.029 935.455, 453.898 936.713 C 457.001 938.801, 458.414 939, 470.173 939 C 482.849 939, 483.064 938.963, 483.963 936.597 C 485.144 933.492, 486.582 932.660, 490.513 932.808 C 493.020 932.902, 493.959 932.386, 494.856 930.417 C 495.485 929.036, 496 927.477, 496 926.953 C 496 926.408, 491.386 926, 485.223 926 C 468.631 926, 469.997 929.082, 470.015 891.693 C 470.024 874.402, 470.442 859.850, 470.953 859.042 C 471.636 857.962, 473.575 857.647, 478.438 857.826 L 485 858.069 485 854.534 C 485 849.865, 487.740 849.621, 488.187 854.250 L 488.500 857.500 499.250 857.599 L 510 857.699 510 854.908 C 510 853.374, 510.403 851.869, 510.895 851.565 C 511.919 850.932, 513 853.253, 513 856.082 C 513 857.851, 513.816 858, 523.500 858 L 534 858 534 854.965 C 534 853.295, 533.261 850.802, 532.358 849.424 C 531.046 847.422, 530.942 846.424, 531.837 844.459 C 532.453 843.107, 533.417 842, 533.979 842 C 535.139 842, 535.199 586.486, 534.045 559.500 C 533.668 550.679, 533.281 546.865, 533.183 551 M 810.323 545.601 C 809.615 547.445, 812.034 549.366, 813.374 548.026 C 814.466 546.934, 813.464 544, 812 544 C 811.415 544, 810.661 544.720, 810.323 545.601 M 404.808 545.747 L 415.116 546.071 414.808 549.786 L 414.500 553.500 408 553.201 C 398.221 552.752, 396.180 552.169, 395.697 549.684 C 395.463 548.483, 395.211 549.638, 395.136 552.250 L 395 557 405.750 557.002 L 416.500 557.004 416.161 551.002 L 415.822 545 405.161 545.211 L 394.500 545.422 404.808 545.747 M 446.750 545.737 C 449.637 545.939, 454.363 545.939, 457.250 545.737 C 460.137 545.535, 457.775 545.370, 452 545.370 C 446.225 545.370, 443.863 545.535, 446.750 545.737 M 464.811 595.963 L 464.355 646.926 461.417 652.670 C 458.149 659.061, 452.145 664.310, 446.225 665.954 C 440.435 667.562, 368 667.362, 368 665.739 C 368 664.751, 376.090 664.414, 405.250 664.186 C 425.738 664.026, 444.075 663.479, 446 662.972 C 451.074 661.635, 456.439 656.766, 459.410 650.805 L 462 645.607 461.912 601.554 C 461.864 577.324, 461.474 555.250, 461.046 552.500 C 460.343 547.987, 460.254 547.855, 460.134 551.146 L 460 554.792 452.054 555.495 C 445.901 556.040, 444.010 556.571, 443.670 557.849 C 443.429 558.757, 443.099 556.575, 442.935 553 C 442.502 543.490, 441.296 574.804, 441.126 600 C 440.989 620.300, 440.849 621.781, 438.633 626.541 C 437.342 629.313, 434.759 632.869, 432.893 634.442 C 425.878 640.357, 425.289 640.446, 390.653 640.813 L 358.807 641.150 359.153 649.986 C 359.477 658.240, 359.681 658.963, 362.250 660.983 C 363.901 662.281, 365 664.115, 365 665.573 C 365 666.908, 365.536 668, 366.191 668 C 366.942 668, 366.824 668.462, 365.871 669.250 C 365.040 669.938, 363.594 671.737, 362.657 673.250 C 360.594 676.581, 358.972 676.808, 359.079 673.750 C 359.122 672.513, 359.393 672.086, 359.680 672.803 C 360.071 673.778, 360.546 673.652, 361.569 672.303 C 363.538 669.706, 363.306 668.766, 361 670 C 359.178 670.975, 359 670.760, 359 667.594 C 359 663.827, 360.420 662.045, 361.395 664.588 C 362.303 666.954, 362.096 667.695, 361 666 C 360.172 664.718, 360.028 664.754, 360.015 666.250 C 360.007 667.212, 360.675 668, 361.500 668 C 363.837 668, 363.442 662.928, 361.056 662.304 C 359.987 662.025, 358.921 660.829, 358.687 659.648 C 358.453 658.467, 358.384 662.450, 358.534 668.500 C 358.683 674.550, 358.849 684.788, 358.903 691.250 L 359 703 408.250 702.990 L 457.500 702.980 462.500 700.617 C 467.899 698.064, 471.304 694.788, 475.091 688.500 C 477.260 684.898, 477.533 683.156, 477.836 671 C 478.295 652.569, 480 651.673, 480 669.863 C 480 683.346, 479.852 684.429, 477.288 689.665 C 475.796 692.711, 472.621 696.924, 470.232 699.027 C 462.286 706.021, 462.475 706, 407.822 706 L 359 706 359 715.878 C 359 723.438, 359.352 726.047, 360.500 727 C 362.409 728.585, 362.436 732.394, 360.548 733.960 C 358.588 735.587, 356.035 734.947, 354.352 732.407 C 353.131 730.565, 353.207 730.007, 354.982 727.749 C 356.668 725.607, 357 723.697, 357 716.151 C 357 711.183, 356.560 706.846, 356.023 706.514 C 354.494 705.569, 346.883 707.900, 342.778 710.570 C 336.814 714.450, 335.677 717.699, 335.190 732.250 C 334.955 739.263, 334.367 745, 333.882 745 C 332.628 745, 332.784 720.703, 334.060 717.315 C 336.552 710.694, 345.123 704.887, 354 703.805 L 356.500 703.500 356.484 691.340 C 356.469 679.392, 356.415 679.104, 353.402 674.840 C 348.934 668.516, 348.701 668, 350.324 668 C 351.118 668, 351.994 668.868, 352.271 669.928 C 352.548 670.988, 353.488 671.751, 354.359 671.624 C 356.911 671.249, 357.532 670, 355.167 670 C 353.975 670, 353 669.550, 353 669 C 353 668.450, 353.675 668, 354.500 668 C 355.516 668, 356 666.983, 356 664.845 C 356 661.766, 355.952 661.733, 354.024 663.479 C 352.937 664.462, 352.232 665.567, 352.459 665.934 C 352.951 666.730, 350.663 666.891, 332.946 667.312 C 320.819 667.600, 318.925 667.890, 314.946 670.067 C 311.823 671.776, 309.831 673.827, 308.250 676.962 C 306.111 681.204, 306 682.558, 306 704.490 C 306 726.318, 306.107 727.647, 308 729.268 C 310.501 731.410, 310.545 734.035, 308.130 737.115 C 306.815 738.792, 306.246 741.206, 306.212 745.250 L 306.164 751 343.360 751 C 375.406 751, 380.863 751.216, 382.777 752.557 C 384.941 754.072, 385 754.615, 385 773.057 L 385 792 411.599 792 L 438.198 792 441.101 788.892 C 443.488 786.337, 444.492 785.906, 446.752 786.470 C 450.020 787.286, 453 789.771, 453 791.680 C 453 792.795, 455.945 792.999, 468.750 792.775 L 484.500 792.500 484.765 762.128 L 485.030 731.757 482.575 729.303 C 479.966 726.693, 480.066 724.931, 483.020 721.500 C 484.606 719.658, 484.779 713.626, 485.225 645 C 485.491 604.025, 485.402 565.325, 485.027 559 C 484.622 552.161, 484.276 549.845, 484.173 553.285 C 484.012 558.673, 483.867 558.999, 482.066 558.035 C 481.002 557.466, 477.210 557, 473.639 557 C 468.297 557, 467.066 557.310, 466.689 558.750 C 466.438 559.712, 466.180 557.207, 466.116 553.181 L 466 545.863 475.502 546.181 C 480.728 546.357, 485.003 546.163, 485.002 545.750 C 485.001 545.337, 480.560 545, 475.133 545 L 465.267 545 464.811 595.963 M 585.432 585 C 585.499 624.933, 585.531 625.550, 587.701 629.038 C 588.911 630.984, 591.836 633.684, 594.201 635.038 C 598.248 637.356, 599.539 637.519, 616.206 637.830 L 633.913 638.161 634.255 630.330 L 634.598 622.500 634.799 630.250 L 635 638 684 638 L 733 638 733 621 L 733 604 707.531 604 L 682.062 604 681.747 616.250 L 681.432 628.500 681.216 616.288 L 681 604.077 647.572 603.788 C 615.607 603.513, 614.022 603.410, 611.383 601.438 C 604.808 596.526, 604.605 595.774, 603.783 573.202 C 602.877 548.318, 602.414 542, 602.175 551.250 C 602.067 555.413, 601.576 558, 600.893 558 C 600.284 558, 600 558.563, 600.262 559.250 C 600.609 560.163, 598.762 560.586, 593.410 560.819 L 586.083 561.137 585.723 552.819 C 585.526 548.243, 585.394 562.725, 585.432 585 M 623.750 545.732 C 626.087 545.943, 629.913 545.943, 632.250 545.732 C 634.587 545.522, 632.675 545.349, 628 545.349 C 623.325 545.349, 621.413 545.522, 623.750 545.732 M 387.244 547.664 C 385.473 548.378, 386.733 550, 389.059 550 C 390.127 550, 391 549.325, 391 548.500 C 391 547.006, 389.632 546.701, 387.244 547.664 M 581.203 550 C 580.677 555.709, 579.870 557, 576.826 557 C 572.712 557, 564.647 559.107, 563.765 560.412 C 563.361 561.010, 562.943 559.250, 562.835 556.500 C 562.390 545.100, 561.246 591.153, 561.128 625.250 C 561.022 655.736, 560.765 662, 559.622 662 C 556.992 662, 556.065 664.336, 557.637 667.003 L 559.110 669.500 558.711 666.841 C 558.424 664.929, 558.687 664.327, 559.648 664.695 C 560.382 664.977, 561.292 664.373, 561.669 663.354 C 562.046 662.334, 562.833 661.181, 563.419 660.792 C 564.152 660.303, 564.097 659.697, 563.242 658.842 C 562.559 658.159, 562.002 657.127, 562.005 656.550 C 562.007 655.972, 563.661 657.298, 565.679 659.496 L 569.349 663.492 601.674 663.857 L 634 664.222 634 652.611 L 634 641 617.750 640.994 C 608.813 640.991, 599.872 640.537, 597.882 639.984 C 591.979 638.344, 587.670 634.837, 585 629.499 L 582.500 624.500 581.966 586 C 581.673 564.825, 581.329 548.625, 581.203 550 M 627.860 560.770 L 607.221 561.040 606.511 573.795 C 605.655 589.190, 606.562 593.530, 611.549 597.909 L 615.070 601 648.085 601 L 681.099 601 680.800 580.750 L 680.500 560.500 664.500 560.500 C 655.700 560.500, 639.212 560.621, 627.860 560.770 M 682.761 579.750 C 682.478 590.612, 682.442 599.837, 682.682 600.250 C 682.922 600.663, 694.341 601, 708.059 601 L 733 601 733 580.500 L 733 560 708.139 560 L 683.277 560 682.761 579.750 M 735 580.417 L 735 601 758.070 601 L 781.141 601 780.820 585.569 C 780.533 571.732, 780.283 569.848, 778.395 567.319 C 773.885 561.277, 771.162 560.532, 752.250 560.167 L 735 559.835 735 580.417 M 192.425 583 C 192.425 594.825, 192.569 599.663, 192.746 593.750 C 192.923 587.837, 192.923 578.163, 192.746 572.250 C 192.569 566.337, 192.425 571.175, 192.425 583 M 260.431 601.112 C 259.677 602.332, 261.923 604.166, 263.202 603.375 C 263.641 603.104, 264 602.234, 264 601.441 C 264 599.744, 261.423 599.506, 260.431 601.112 M 735 621 L 735 638 758 638 L 781 638 781 621 L 781 604 758 604 L 735 604 735 621 M 784 620.975 L 784 637.950 787.250 637.337 C 792.101 636.421, 795.051 634.353, 799.646 628.648 C 806.343 620.333, 809.933 613.825, 810.625 608.750 L 811.272 604 797.636 604 L 784 604 784 620.975 M 197 635.500 L 197 655 223.500 655 L 250 655 250 635.500 L 250 616 223.500 616 L 197 616 197 635.500 M 354.667 617.667 C 353.487 618.846, 353.955 621.046, 355.513 621.643 C 357.487 622.401, 360.035 620.256, 359.334 618.427 C 358.770 616.958, 355.850 616.483, 354.667 617.667 M 635.352 646.250 C 635.699 649.138, 635.987 654.313, 635.991 657.750 L 636 664 658.250 664.022 C 677.741 664.041, 680.996 664.273, 684.500 665.890 C 689.128 668.026, 692.417 671.312, 693.933 675.315 C 694.640 677.180, 695 696.008, 695 731.100 C 695 778.451, 695.174 784.335, 696.635 786.566 C 697.535 787.939, 697.969 789.364, 697.600 789.733 C 696.057 791.276, 681.327 791.900, 645.315 791.949 C 607.398 792, 602 791.583, 602 788.603 C 602 786.907, 609.758 780, 611.663 780 C 612.692 780, 613.022 774.693, 613.233 754.750 L 613.500 729.500 647.500 729.226 C 681.165 728.955, 681.517 728.973, 683.250 731.087 C 684.800 732.978, 685 735.759, 685 755.436 C 685 777.207, 685.045 777.692, 687.250 779.677 C 688.487 780.791, 690.063 782.021, 690.750 782.410 C 691.743 782.973, 692 772.094, 692 729.441 L 692 675.765 688.238 672.003 C 683.006 666.771, 677.863 665.891, 654.481 666.227 L 635.500 666.500 635.184 680.536 C 634.889 693.665, 635.002 694.692, 636.934 696.441 C 639.333 698.612, 639.601 701.670, 637.589 703.921 C 636.814 704.790, 635.749 709.100, 635.223 713.500 L 634.267 721.500 634.134 714.055 C 634.015 707.432, 633.703 706.300, 631.312 703.804 L 628.625 700.999 631.062 697.749 C 633.332 694.724, 633.524 693.518, 633.845 680.250 L 634.190 666 600.536 666 C 581.222 666, 567.115 665.622, 567.430 665.113 C 567.731 664.626, 567.224 663.613, 566.302 662.863 C 564.838 661.673, 564.709 661.722, 565.281 663.250 C 565.887 664.865, 564.567 665.563, 561.750 665.118 C 561.337 665.053, 561 686.375, 561 712.500 L 561 760 577.845 760 C 593.420 760, 594.826 759.849, 596.500 758 C 598.830 755.426, 600.515 755.470, 602.396 758.155 C 603.482 759.705, 603.628 760.826, 602.917 762.155 C 601.949 763.963, 597.567 764.730, 596.656 763.250 C 596.402 762.837, 588.276 762.633, 578.597 762.795 L 561 763.089 561.022 781.795 C 561.047 803.462, 561.951 806.943, 568.632 811.095 L 572.500 813.500 628 814 C 680.982 814.477, 683.679 814.591, 687.435 816.500 C 694.360 820.019, 695.424 822.481, 695.996 836.318 C 696.438 847.006, 696.786 848.901, 698.829 851.765 C 703.509 858.326, 704.273 858.466, 737.500 858.819 C 757.252 859.029, 768.766 858.764, 771.205 858.043 C 776.002 856.624, 780.914 852.450, 782.636 848.329 C 784.213 844.555, 784.565 826.533, 783.044 827.473 C 782.518 827.798, 782.323 828.679, 782.612 829.431 C 782.900 830.183, 782.656 831.095, 782.068 831.458 C 781.481 831.821, 781 831.641, 781 831.059 C 781 830.477, 780.212 829.968, 779.250 829.930 C 777.739 829.869, 777.767 829.755, 779.455 829.095 C 780.572 828.658, 774.622 828.050, 765.571 827.676 C 756.116 827.286, 749.177 826.562, 748.354 825.879 C 747.243 824.956, 747.027 820.315, 747.238 801.856 C 747.424 785.593, 747.183 779.098, 746.405 779.397 C 744.212 780.240, 737.015 776.074, 735.024 772.808 C 733.057 769.582, 733.007 767.916, 733.004 705.250 L 733 641 683.861 641 L 634.721 641 635.352 646.250 M 197 663.500 L 197 668 223.500 668 L 250 668 250 663.500 L 250 659 236.777 659 C 224.525 659, 223.718 659.114, 225.777 660.557 C 228.549 662.498, 228.620 664.598, 225.962 666.020 C 221.389 668.468, 217.144 663.921, 221.050 660.759 C 223.148 659.059, 222.779 659, 210.111 659 L 197 659 197 663.500 M 563.724 667.752 C 562.776 668.800, 562 670.470, 562 671.464 C 562 672.936, 562.384 672.782, 564.080 670.625 C 566.546 667.491, 566.235 664.978, 563.724 667.752 M 197 674.156 L 197 676.313 219.250 675.664 C 231.488 675.308, 243.412 675.013, 245.750 675.008 C 248.857 675.002, 250 674.597, 250 673.500 C 250 672.204, 246.389 672, 223.500 672 C 197.026 672, 197 672.002, 197 674.156 M 664.428 701 C 664.428 713.375, 664.571 718.438, 664.747 712.250 C 664.922 706.063, 664.922 695.938, 664.747 689.750 C 664.571 683.563, 664.428 688.625, 664.428 701 M 751 753 L 751 814 790.500 814 L 830 814 830 803.750 L 830 793.500 791.264 793.500 C 755.168 793.500, 752.505 793.381, 752.191 791.750 C 751.874 790.108, 754.228 790, 790.427 790 L 829 790 829 786.643 L 829 783.287 820.250 782.681 C 815.438 782.347, 798.096 782.170, 781.714 782.287 C 752.439 782.496, 751.933 782.466, 752.214 780.500 C 752.494 778.545, 753.363 778.494, 791.250 778.238 L 830 777.977 830 734.988 L 830 692 790.500 692 L 751 692 751 753 M 812.910 699.608 C 811.777 700.974, 811.859 701.424, 813.456 702.591 C 814.846 703.608, 815.683 703.678, 816.668 702.861 C 818.467 701.367, 818.349 699.348, 816.418 698.607 C 814.321 697.802, 814.436 697.769, 812.910 699.608 M 819.910 699.608 C 818.776 700.975, 818.863 701.427, 820.492 702.618 C 822.139 703.822, 822.611 703.818, 823.841 702.587 C 825.492 700.936, 824.732 698, 822.654 698 C 821.879 698, 820.644 698.724, 819.910 699.608 M 632.446 700.087 C 632.077 700.685, 632.256 701.656, 632.845 702.245 C 634.093 703.493, 637.339 701.357, 636.430 699.887 C 635.669 698.655, 633.256 698.777, 632.446 700.087 M 484 726 C 484 727.646, 484.518 728.065, 486.250 727.820 C 487.488 727.644, 488.500 726.825, 488.500 726 C 488.500 725.175, 487.488 724.356, 486.250 724.180 C 484.518 723.935, 484 724.354, 484 726 M 303.180 733.250 C 303.356 734.487, 304.175 735.500, 305 735.500 C 305.825 735.500, 306.644 734.487, 306.820 733.250 C 307.065 731.518, 306.646 731, 305 731 C 303.354 731, 302.935 731.518, 303.180 733.250 M 813.565 732.928 C 809.871 737.010, 814.927 741.459, 820.890 739.375 C 824.634 738.067, 824.999 733.776, 821.502 732.183 C 817.812 730.502, 815.570 730.712, 813.565 732.928 M 616 755 L 616 777 630.750 776.985 C 640.643 776.974, 645.006 776.650, 644 776 C 642.943 775.317, 644.346 775.026, 648.750 775.015 C 652.260 775.007, 655 775.438, 655 776 C 655 776.615, 659.965 777, 667.895 777 L 680.791 777 680.942 755 C 681.025 742.900, 680.725 733, 680.275 733 C 679.825 733, 679.631 742.225, 679.844 753.500 L 680.230 774 648.865 774.001 L 617.500 774.002 617.824 753.501 C 618.047 739.361, 617.814 733, 617.074 733 C 616.341 733, 616 739.993, 616 755 M 621 751.500 L 621 770 648.500 770 L 676 770 676 751.500 L 676 733 648.500 733 L 621 733 621 751.500 M 221.206 756.194 C 220.301 757.099, 220 768.457, 220 801.700 L 220 846 301.010 846 L 382.020 846 381.760 800.750 L 381.500 755.500 301.956 755.244 C 240.918 755.048, 222.131 755.269, 221.206 756.194 M 814.750 763.080 C 812.729 764.257, 812.459 767.059, 814.200 768.800 C 816.870 771.470, 824 769.433, 824 766 C 824 762.637, 818.494 760.899, 814.750 763.080 M 615 781 C 617.075 782.341, 685.329 782.341, 684.500 781 C 684.107 780.364, 671.090 780.006, 648.691 780.015 C 625.601 780.025, 614.016 780.364, 615 781 M 753 785.817 C 753 787.940, 753.093 787.947, 785.500 788.223 C 815.892 788.482, 818.001 788.386, 818 786.750 C 818 785.509, 817.200 784.998, 815.250 784.994 C 813.737 784.990, 799.112 784.695, 782.750 784.337 L 753 783.687 753 785.817 M 608 786 C 607.019 786.634, 621.634 786.975, 650.250 786.985 C 678.760 786.995, 694 786.652, 694 786 C 694 784.659, 610.075 784.659, 608 786 M 820.673 786.410 C 820.272 787.455, 820.935 787.779, 823.234 787.660 C 824.941 787.572, 826.523 786.938, 826.752 786.250 C 827.343 784.468, 821.357 784.626, 820.673 786.410 M 443.750 790.080 C 441.731 791.256, 441.407 795.512, 443.250 796.662 C 445.528 798.084, 447.867 797.990, 449.443 796.414 C 451.602 794.256, 451.389 792.386, 448.777 790.557 C 446.193 788.746, 446.061 788.734, 443.750 790.080 M 751 820.500 L 751 823 790.500 823 L 830 823 830 820.500 L 830 818 790.500 818 L 751 818 751 820.500 M 534.688 844.646 C 533.272 846.061, 534.073 848, 536.073 848 C 537.471 848, 538.041 847.457, 537.823 846.333 C 537.466 844.492, 535.759 843.574, 534.688 844.646 M 220 852.878 C 220 854.460, 220.605 856.257, 221.344 856.870 C 222.779 858.061, 375.354 858.540, 379.750 857.367 C 381.522 856.894, 382 856.048, 382 853.383 L 382 850 343.566 850 L 305.133 850 304.816 852.750 C 304.551 855.054, 303.962 855.552, 301.189 855.818 C 298.288 856.096, 297.734 855.756, 296.720 853.068 L 295.562 850 257.781 850 L 220 850 220 852.878 M 474 886.500 L 474 912 510.500 912 L 547 912 547 886.500 L 547 861 510.500 861 L 474 861 474 886.500 M 288.443 867.750 C 287.531 870.913, 286.194 875.188, 285.473 877.250 L 284.161 881 301.687 881 C 315.298 881, 319.107 880.721, 318.735 879.750 C 318.471 879.063, 316.999 874.788, 315.462 870.250 L 312.669 862 301.386 862 L 290.102 862 288.443 867.750 M 253.989 887.021 C 253.394 888.132, 253.180 889.482, 253.513 890.021 C 253.894 890.638, 271.678 891, 301.559 891 C 351.898 891, 350.152 891.165, 348.393 886.582 C 347.852 885.171, 342.778 885, 301.428 885 C 255.936 885, 255.050 885.038, 253.989 887.021 M 239 896.250 C 239 897.898, 242.714 898, 303 898 C 363.286 898, 367 897.898, 367 896.250 C 367 894.602, 363.285 894.500, 303 894.500 C 242.714 894.500, 239 894.602, 239 896.250 M 474.184 918.750 L 474.500 921.500 508.500 921.779 C 527.200 921.933, 543.513 921.812, 544.750 921.510 C 546.331 921.125, 547 920.225, 547 918.481 L 547 916 529.500 916 L 512 916 512 918.500 C 512 920.706, 511.574 921, 508.383 921 C 505.065 921, 504.806 920.794, 505.245 918.500 L 505.723 916 489.795 916 L 473.867 916 474.184 918.750 M 499.975 928.565 C 499.439 929.976, 499 931.326, 499 931.565 C 499 931.804, 503.500 932, 509 932 C 514.500 932, 519 931.796, 519 931.547 C 519 931.298, 518.478 929.948, 517.839 928.547 C 516.739 926.132, 516.272 926, 508.815 926 C 501.293 926, 500.908 926.112, 499.975 928.565 M 492 935.731 C 490.075 935.958, 488.072 936.561, 487.550 937.071 C 486.965 937.644, 494.544 938, 507.300 938 C 526.122 938, 531.848 937.265, 525.750 935.630 C 523.322 934.980, 497.745 935.056, 492 935.731" stroke="none" fill="#6b7c90" fill-rule="evenodd"/></svg>