<svg xmlns="http://www.w3.org/2000/svg" width="1024" height="1024" viewBox="0 0 1024 1024" version="1.1"><path d="M 304.827 463.176 C 302.806 464.347, 300.900 466.249, 300.590 467.403 C 300.281 468.556, 300.021 492.721, 300.014 521.102 C 300 572.704, 300 572.704, 302.288 576.099 C 303.693 578.184, 305.718 579.738, 307.538 580.128 C 309.167 580.478, 315 580.806, 320.500 580.858 C 326 580.910, 332.288 580.538, 334.473 580.031 C 336.658 579.524, 339.021 578.324, 339.723 577.364 C 340.425 576.403, 341 574.454, 341 573.031 C 341 571.609, 340.299 569.445, 339.443 568.223 C 337.989 566.146, 337.135 566, 326.443 566 C 315 566, 315 566, 314.993 556.250 C 314.990 550.888, 314.737 534.350, 314.433 519.500 C 314.128 504.650, 314.244 488.900, 314.689 484.500 C 315.500 476.500, 315.500 476.500, 326.748 476.217 C 337.481 475.947, 338.072 475.821, 339.626 473.448 C 340.761 471.716, 341.072 469.830, 340.651 467.234 C 340.318 465.184, 339.274 462.943, 338.332 462.253 C 337.147 461.387, 332.280 461.007, 322.559 461.023 C 310.056 461.043, 308.094 461.282, 304.827 463.176 M 692.114 462.750 C 690.955 463.712, 689.744 465.857, 689.425 467.516 C 689.001 469.714, 689.426 471.272, 690.994 473.266 C 693.114 475.960, 693.313 476, 704.573 476 C 716 476, 716 476, 716 520.500 C 716 555.369, 715.729 565.026, 714.750 565.120 C 714.063 565.187, 708.775 565.390, 703 565.572 C 693.671 565.867, 692.305 566.145, 690.750 568.063 C 689.788 569.250, 689 571.677, 689 573.456 C 689 575.319, 689.775 577.392, 690.829 578.345 C 692.367 579.737, 695.154 580, 708.394 580 C 717.755 580, 724.950 579.562, 726.150 578.920 C 727.261 578.325, 728.806 576.315, 729.585 574.452 C 730.742 571.683, 731 561.865, 731 520.681 C 731 486.386, 730.646 469.283, 729.892 467.119 C 729.272 465.340, 727.531 463.292, 725.941 462.470 C 723.826 461.376, 719.406 461, 708.660 461 C 696.379 461, 693.907 461.261, 692.114 462.750 M 416.078 470.421 C 409.714 476.842, 409.714 476.842, 416.078 483.424 C 422.441 490.005, 422.441 490.005, 428.720 483.782 C 432.174 480.358, 435 477.233, 435 476.836 C 435 476.439, 432.477 473.388, 429.392 470.057 C 426.308 466.726, 423.483 464, 423.113 464 C 422.744 464, 419.578 466.889, 416.078 470.421 M 596 470.166 C 592.975 473.381, 590.384 476.357, 590.242 476.779 C 590.100 477.202, 592.688 480.223, 595.993 483.493 C 602.002 489.440, 602.002 489.440, 608.500 483 C 614.997 476.560, 614.997 476.560, 609.749 471.206 C 606.862 468.262, 603.825 465.508, 603 465.086 C 601.930 464.540, 599.922 465.997, 596 470.166 M 350.223 467.557 C 348 469.113, 348 469.113, 348 512.446 C 348 553.474, 348.101 555.903, 349.893 558.116 C 351.334 559.896, 352.790 560.455, 355.990 560.455 C 358.981 560.455, 360.599 559.901, 361.597 558.536 C 362.665 557.075, 363 552.720, 363 540.277 C 363 528.652, 363.398 522.983, 364.379 520.636 C 365.137 518.821, 366.998 516.360, 368.514 515.168 C 370.495 513.610, 372.657 513, 376.201 513 C 378.913 513, 382.040 513.486, 383.150 514.080 C 384.261 514.675, 385.850 516.790, 386.682 518.782 C 387.887 521.666, 388.125 525.939, 387.852 539.793 C 387.511 557.046, 387.527 557.199, 389.865 559.092 C 391.161 560.141, 393.747 561, 395.611 561 C 397.697 561, 399.790 560.210, 401.055 558.945 C 403.019 556.981, 403.096 555.959, 402.805 535.695 C 402.542 517.449, 402.242 513.980, 400.642 510.764 C 399.621 508.708, 397.371 505.632, 395.642 503.928 C 393.914 502.223, 391.150 500.088, 389.500 499.184 C 387.482 498.078, 384.044 497.533, 379 497.520 C 372.861 497.504, 370.819 497.923, 367.750 499.832 C 364 502.163, 364 502.163, 364 486.716 C 364 472.604, 363.821 471.042, 361.927 468.635 C 360.355 466.635, 358.961 466, 356.150 466 C 354.112 466, 351.445 466.701, 350.223 467.557 M 528.635 468.073 C 526 470.145, 526 470.145, 526 513.384 C 526 555.516, 526.052 556.679, 528.039 558.811 C 529.474 560.351, 531.252 561, 534.039 561 C 536.667 561, 538.673 560.327, 540 559 C 541.854 557.146, 542 555.667, 542 538.723 C 542 523.778, 542.285 520.039, 543.561 518.217 C 544.419 516.991, 546.422 515.316, 548.011 514.494 C 549.600 513.672, 552.983 513, 555.527 513 C 559.308 513, 560.689 513.535, 563.077 515.923 C 566 518.846, 566 518.846, 566 537.735 C 566 555.361, 566.136 556.769, 568.039 558.811 C 569.527 560.408, 571.242 561, 574.384 561 C 577.364 561, 579.226 560.407, 580.432 559.075 C 581.997 557.345, 582.139 554.991, 581.829 535.825 C 581.531 517.402, 581.232 514.024, 579.628 511 C 578.607 509.075, 576.586 506.221, 575.136 504.658 C 573.686 503.096, 570.733 500.908, 568.572 499.797 C 566.412 498.687, 562.137 497.558, 559.072 497.289 C 555.516 496.978, 552.053 497.331, 549.500 498.266 C 547.300 499.071, 544.745 500.052, 543.822 500.445 C 542.299 501.093, 542.113 499.718, 541.822 485.681 C 541.540 472.138, 541.262 469.941, 539.595 468.102 C 538.413 466.798, 536.471 466, 534.480 466 C 532.714 466, 530.084 466.933, 528.635 468.073 M 449.315 496.007 C 448.114 496.491, 446.651 497.783, 446.065 498.878 C 445.360 500.197, 445 515.196, 445 543.323 C 445 582.287, 445.144 585.952, 446.750 587.886 C 447.712 589.045, 449.857 590.256, 451.516 590.575 C 453.714 590.999, 455.272 590.574, 457.266 589.006 C 460 586.855, 460 586.855, 460 571.427 C 460 562.942, 460.393 556, 460.873 556 C 461.353 556, 463.906 556.955, 466.546 558.123 C 470.304 559.786, 472.595 560.133, 477.102 559.724 C 480.733 559.395, 484.804 558.150, 488.128 556.351 C 491.994 554.259, 494.520 551.851, 497.616 547.307 C 500.293 543.377, 502.258 539.075, 502.992 535.537 C 503.810 531.596, 503.860 528.096, 503.161 523.609 C 502.618 520.117, 501.185 515.288, 499.979 512.880 C 498.772 510.471, 496.370 506.998, 494.642 505.162 C 492.914 503.327, 489.700 500.859, 487.500 499.679 C 484.400 498.017, 481.812 497.543, 476 497.573 C 470.941 497.599, 467.458 498.163, 465.300 499.306 C 463.539 500.238, 461.904 501, 461.666 501 C 461.428 501, 460.999 500.105, 460.713 499.012 C 460.427 497.919, 458.996 496.569, 457.532 496.012 C 456.068 495.455, 454.112 495.029, 453.185 495.063 C 452.258 495.098, 450.517 495.523, 449.315 496.007 M 629.465 495.930 C 628.346 496.395, 626.863 497.461, 626.168 498.297 C 625.199 499.465, 624.889 509.646, 624.830 542.234 C 624.788 565.563, 625.050 585.581, 625.410 586.718 C 625.771 587.855, 627.402 589.338, 629.033 590.014 C 631.391 590.990, 632.624 590.984, 635.038 589.984 C 636.709 589.292, 638.509 587.917, 639.038 586.929 C 639.567 585.940, 640 578.352, 640 570.066 C 640 561.780, 640.243 555, 640.540 555 C 640.837 555, 642.844 555.900, 645 557 C 647.826 558.442, 650.894 559, 655.992 559 C 659.882 559, 664.512 558.393, 666.282 557.652 C 668.052 556.910, 670.959 555.073, 672.743 553.569 C 674.578 552.021, 677.780 547.162, 680.119 542.374 C 684.097 534.232, 684.235 533.624, 683.805 526.187 C 683.486 520.682, 682.618 516.885, 680.785 512.980 C 679.371 509.966, 676.970 506.206, 675.450 504.624 C 673.930 503.043, 670.619 500.802, 668.093 499.646 C 664.795 498.136, 661.520 497.548, 656.475 497.560 C 650.762 497.574, 648.568 498.070, 644.725 500.218 C 641.482 502.031, 640 502.446, 640 501.540 C 640 500.815, 639.212 499.291, 638.250 498.153 C 637.288 497.016, 635.375 495.860, 634 495.584 C 632.625 495.309, 630.584 495.465, 629.465 495.930 M 418 499 C 416.108 500.892, 415.994 502.416, 415.885 527.250 C 415.822 541.688, 415.849 554.400, 415.945 555.500 C 416.041 556.600, 417.043 558.288, 418.171 559.250 C 419.299 560.212, 421.747 561, 423.611 561 C 425.667 561, 427.787 560.213, 429 559 C 430.906 557.094, 431 555.667, 431 528.655 C 431 502.465, 430.861 500.184, 429.171 498.655 C 428.165 497.745, 425.690 497, 423.671 497 C 421.333 497, 419.274 497.726, 418 499 M 597.635 499.073 C 595 501.145, 595 501.145, 595 529.516 C 595 557.700, 595.015 557.897, 597.223 559.443 C 598.445 560.299, 600.940 561, 602.768 561 C 604.963 561, 606.924 560.167, 608.545 558.545 C 611 556.091, 611 556.091, 611 529 C 611 501.909, 611 501.909, 608.545 499.455 C 607.064 497.973, 604.937 497, 603.180 497 C 601.579 497, 599.084 497.933, 597.635 499.073 M 466.640 515.599 C 464.536 517.028, 462.182 519.714, 461.408 521.567 C 460.633 523.420, 460 526.383, 460 528.152 C 460 529.921, 460.900 533.228, 462 535.500 C 463.275 538.133, 465.410 540.424, 467.886 541.816 C 470.024 543.017, 473.217 544, 474.982 544 C 476.747 544, 479.529 543.212, 481.165 542.250 C 482.800 541.288, 485.082 538.976, 486.236 537.112 C 487.734 534.693, 488.333 532.071, 488.333 527.941 C 488.333 524.101, 487.731 521.207, 486.542 519.329 C 485.556 517.773, 483.794 515.723, 482.625 514.772 C 481.253 513.657, 478.722 513.037, 475.482 513.022 C 471.702 513.005, 469.521 513.641, 466.640 515.599 M 647.241 514.995 C 645.448 516.088, 643.088 518.448, 641.995 520.241 C 640.902 522.033, 640.006 525.133, 640.004 527.128 C 640.002 529.123, 640.641 532.291, 641.425 534.167 C 642.209 536.043, 644.065 538.792, 645.549 540.276 C 647.033 541.760, 649.775 543.396, 651.643 543.912 C 653.680 544.474, 656.286 544.492, 658.157 543.955 C 659.872 543.463, 662.160 542.261, 663.240 541.283 C 664.321 540.305, 665.834 538.289, 666.602 536.802 C 667.371 535.316, 667.998 531.489, 667.996 528.300 C 667.994 524.153, 667.387 521.507, 665.870 519.018 C 664.702 517.102, 663.016 514.979, 662.123 514.299 C 661.231 513.620, 658.250 513.051, 655.500 513.036 C 652.230 513.017, 649.372 513.695, 647.241 514.995" stroke="none" fill="#ed3821" fill-rule="evenodd"/></svg>