<svg xmlns="http://www.w3.org/2000/svg" width="1024" height="1024" viewBox="0 0 1024 1024" version="1.1"><path d="M 625 148.629 C 615.245 150.540, 602.184 154.733, 594.191 158.519 C 568.246 170.810, 548.615 194.091, 540.625 222.046 C 529.519 260.906, 540.203 300.751, 569.748 330.665 C 583.036 344.119, 595.682 351.718, 614.589 357.613 C 624.204 360.611, 624.181 359.437, 614.823 369.826 C 608.375 376.985, 606.988 380.806, 609.464 384.585 C 613.105 390.143, 621.460 389.808, 626.426 383.905 L 629 380.847 629 442.786 L 629 504.725 622.457 507.947 C 606.635 515.735, 601.724 532.006, 610.101 548.882 L 613.585 555.899 610.858 566.352 C 609.359 572.101, 606.966 579.107, 605.540 581.921 C 602.983 586.967, 591.208 600, 589.206 600 C 588.640 600, 587.880 598.248, 587.518 596.106 C 585.976 586.977, 577.454 573.517, 568.500 566.068 C 558.111 557.424, 547.200 553.999, 530.066 554.001 L 520.500 554.003 520.843 548.501 L 521.185 543 526.882 543 C 537.475 543, 550.369 538.442, 558.921 531.675 C 564.958 526.897, 571.552 518.528, 575.575 510.534 C 579.519 502.700, 580.223 502.037, 584.624 502.015 C 592.081 501.979, 602.115 496.447, 606.360 490.032 C 611.157 482.783, 612.197 476.640, 611.832 457.712 C 611.514 441.217, 611.383 440.262, 608.700 434.797 C 603.507 424.224, 592.657 417, 581.968 417 C 578.460 417, 578.156 416.717, 575.020 410.540 C 566.527 393.807, 550.137 380, 531.500 373.877 C 524.785 371.671, 522.953 371.563, 486.488 371.226 C 442.299 370.817, 439.080 371.199, 424.003 378.643 C 416.137 382.527, 413.022 384.816, 405.874 391.964 C 398.984 398.854, 396.461 402.228, 393.371 408.685 L 389.500 416.774 384 417.200 C 373.803 417.990, 365.057 424.195, 360.068 434.179 L 357 440.319 357 459.500 L 357 478.681 360.068 484.821 C 361.772 488.231, 364.961 492.523, 367.239 494.473 C 372.065 498.603, 380.499 502, 385.929 502 C 389.301 502, 389.869 502.344, 390.468 504.750 C 392.619 513.387, 405.476 528.892, 415.491 534.926 C 422.321 539.041, 435.376 543, 442.113 543 L 447 543 447 548.500 L 447 554 436.636 554 C 423.174 554, 417.145 555.191, 408.074 559.640 C 398.442 564.366, 388.754 573.912, 384.243 583.123 C 382.459 586.765, 381 590.436, 381 591.280 C 381 592.264, 379.018 593.437, 375.471 594.553 C 358.090 600.020, 335.787 620.427, 326.127 639.703 C 316.255 659.403, 314.023 690.221, 321 710.501 L 322.822 715.796 319.914 718.582 C 314.131 724.123, 311.293 737.693, 314.159 746.101 C 316.995 754.422, 325.782 762.915, 333.254 764.556 C 337.507 765.490, 339 763.184, 339 755.680 C 339 750.299, 338.672 749.379, 335.500 745.868 C 331.394 741.323, 330.946 737.240, 334.004 732.225 C 338.789 724.378, 351.479 725.646, 355.648 734.388 C 357.693 738.677, 356.854 742.331, 353.015 745.846 C 350.418 748.223, 350.093 749.210, 349.898 755.305 C 349.739 760.288, 350.089 762.517, 351.202 763.631 C 355.147 767.575, 368.246 758.962, 372.634 749.538 C 375.805 742.728, 375.901 731.515, 372.845 725 C 370.915 720.887, 370.749 718.952, 370.917 702.500 C 371.113 683.328, 372.253 676.082, 376.561 666.609 L 378.885 661.500 378.942 684.114 C 378.974 696.551, 379.457 709.151, 380.015 712.114 C 382.014 722.718, 389.564 734.303, 399.788 742.451 L 406 747.401 406 786.371 L 406 825.340 399.639 831.929 C 392.830 838.982, 388.823 845.797, 386.883 853.627 C 386.219 856.307, 385.186 858.831, 384.588 859.235 C 383.990 859.639, 374.367 859.976, 363.205 859.985 C 342.999 860, 342.898 860.011, 340.455 862.455 C 337.276 865.633, 337.260 870.028, 340.413 873.694 L 342.827 876.500 478.959 876.761 C 571.798 876.938, 615.710 876.690, 617.036 875.981 C 619.957 874.418, 622.231 869.330, 621.499 865.996 C 620.361 860.815, 619.266 860.539, 597.712 860 L 577.725 859.500 576.348 854.112 C 574.383 846.426, 569.332 837.476, 563.250 830.905 L 558 825.233 558 786.637 L 558 748.041 561.967 746.017 C 568.341 742.765, 578.342 732.711, 581.966 725.913 C 587.668 715.215, 588.199 711.921, 588.878 683.057 L 589.500 656.614 596 655.405 C 614.926 651.883, 629.391 643.900, 642.595 629.689 C 650.927 620.722, 655.264 613.701, 659.598 602.161 C 664.040 590.334, 665.492 578.829, 664.044 566.919 C 663.426 561.837, 662.669 557.274, 662.362 556.777 C 662.055 556.280, 662.490 555.115, 663.328 554.187 C 666.376 550.813, 670.998 539.512, 670.999 535.432 C 671.002 522.320, 661.190 508.915, 649.254 505.723 L 645 504.585 645 442.293 C 645 408.032, 645.150 380, 645.334 380 C 645.517 380, 647.590 381.775, 649.939 383.944 C 655.095 388.703, 659.077 389.835, 662.585 387.536 C 668.925 383.382, 667.647 378.255, 657.481 367.065 L 650.726 359.629 656.613 358.426 C 679.698 353.708, 703.434 336.841, 718.844 314.204 C 737.531 286.755, 742.975 258.067, 735.418 226.860 C 728.082 196.564, 707.986 171.801, 679.500 157.956 C 665.442 151.123, 656.368 148.921, 640.500 148.491 C 633.350 148.298, 626.375 148.360, 625 148.629 M 594.977 184.674 C 582.379 193.840, 569 210.791, 569 217.584 C 569 223.237, 573.981 226.480, 579.444 224.383 C 580.329 224.044, 582.145 221.456, 583.481 218.633 C 586.835 211.544, 594.735 202.994, 603.023 197.485 C 613.148 190.754, 615.394 186.394, 611 182 C 607.466 178.466, 602.330 179.323, 594.977 184.674 M 664.250 182.222 C 659.843 186.936, 661.410 190.091, 671.688 197.194 C 680.449 203.248, 688.313 212.221, 693.317 221.872 C 699.391 233.587, 700.498 238.184, 700.449 251.500 C 700.411 262.054, 700.080 264.358, 697.703 270.621 C 696.216 274.538, 695 278.925, 695 280.371 C 695 285.887, 701.853 288.893, 706.696 285.501 C 711.015 282.476, 715.010 265.389, 714.983 250.066 C 714.933 222.892, 702.882 200.466, 679.841 184.672 C 672.594 179.705, 667.371 178.884, 664.250 182.222 M 457 391.088 C 441.148 391.731, 436.357 392.996, 426.981 399.012 C 420.704 403.040, 412.617 411.850, 409.439 418.120 C 404.869 427.138, 404.031 433.554, 404.015 459.614 C 403.999 486.051, 404.677 491.813, 408.765 499.932 C 412.432 507.215, 422.083 516.787, 429.504 520.500 L 435.500 523.500 485.500 523.500 L 535.500 523.500 541.833 520.066 C 552.747 514.149, 561.966 500.956, 564.042 488.281 C 565.321 480.472, 565.243 442.089, 563.931 434 C 561.418 418.499, 549.469 403.492, 533.565 395.860 C 525.170 391.832, 524.285 391.626, 514.135 391.331 C 489.581 390.616, 470.625 390.535, 457 391.088 M 381 435.201 C 374.904 439.275, 374.003 442.446, 374.002 459.849 C 374 477.278, 374.894 480.535, 380.659 484.098 C 382.554 485.270, 384.314 486.019, 384.569 485.764 C 384.825 485.508, 384.914 473.501, 384.767 459.080 L 384.500 432.861 381 435.201 M 584 460.066 L 584 487.184 587.250 485.291 C 593.030 481.924, 595.012 476.732, 595.694 463.163 C 596.550 446.131, 594.121 438.182, 586.921 434.459 L 584 432.949 584 460.066 M 443.684 441.416 C 434.056 444.932, 430.340 454.687, 435.271 463.500 C 438.165 468.674, 444.891 472.325, 450.287 471.653 C 458.034 470.687, 465.977 460.908, 464.389 454.290 C 461.885 443.857, 452.678 438.132, 443.684 441.416 M 517.970 442.250 C 507.194 447.694, 505.997 459.522, 515.386 467.766 C 518.550 470.544, 519.819 471, 524.387 471 C 530.759 471, 535.589 468.217, 538.305 462.980 C 540.566 458.622, 540.095 450.971, 537.331 447.176 C 535.149 444.179, 527.676 440, 524.500 440 C 523.358 440, 520.420 441.012, 517.970 442.250 M 468.592 476.898 C 466.331 479.396, 466.985 482.640, 470.619 486.959 C 478.738 496.608, 493.507 495.653, 500.750 485.010 C 505.284 478.348, 502.486 473.875, 495.157 476.071 C 491.306 477.225, 476.424 476.890, 472.461 475.561 C 471.059 475.091, 469.850 475.509, 468.592 476.898 M 627.250 527.344 C 622.384 538.049, 634.331 549.017, 644.901 543.551 C 651.376 540.203, 653.100 531.859, 648.250 527.345 L 645.500 524.786 645.194 528.317 C 644.807 532.790, 643.630 533.728, 637.475 534.475 C 631.248 535.231, 629.805 534.270, 629.079 528.882 L 628.500 524.594 627.250 527.344 M 628.561 565.225 C 627.398 568.971, 624.814 581.133, 625.131 581.367 C 625.334 581.517, 627.750 582.572, 630.500 583.712 C 633.250 584.852, 638.033 586.928, 641.130 588.326 L 646.760 590.868 647.369 587.184 C 647.704 585.158, 647.983 579.450, 647.989 574.500 L 648 565.500 641.250 565.500 C 637.538 565.500, 633.253 565.151, 631.728 564.725 C 629.797 564.186, 628.836 564.338, 628.561 565.225 M 422.500 574.379 C 413.161 577.378, 405.688 583.739, 401.267 592.454 C 397.763 599.360, 397.126 609.756, 397.069 661 C 397.018 705.691, 397.197 707.541, 402.431 716.473 C 405.814 722.246, 413.112 728.693, 419.825 731.840 L 425.500 734.500 484.500 734.500 L 543.500 734.500 549.041 731.779 C 556.493 728.119, 563.595 721.096, 566.835 714.186 L 569.500 708.500 569.500 654 L 569.500 599.500 566.580 593.734 C 563.103 586.869, 554.842 578.738, 548.251 575.694 C 543.549 573.522, 542.903 573.498, 485 573.297 C 439.649 573.140, 425.601 573.384, 422.500 574.379 M 616.943 595.189 C 616.287 596.460, 614.916 598.419, 613.896 599.542 C 612.065 601.558, 612.154 601.695, 620.963 610.463 C 631.073 620.526, 630.258 620.496, 636.877 611.059 L 641.037 605.129 630.297 599.314 C 624.389 596.116, 619.237 593.360, 618.846 593.189 C 618.455 593.018, 617.599 593.918, 616.943 595.189 M 524.791 594.988 C 517.440 597.205, 513 603.403, 513 611.451 C 513 617.096, 514.928 621.083, 519.249 624.370 C 525.620 629.219, 532.638 629.012, 538.572 623.802 C 545.177 618.003, 546.727 611.304, 543.106 604.210 C 540.690 599.475, 538.096 597.153, 533.316 595.449 C 528.962 593.896, 528.498 593.871, 524.791 594.988 M 371.194 614.474 L 363.944 617.949 370.624 626.474 C 374.297 631.163, 377.685 635, 378.151 635 C 378.618 635, 379 629.600, 379 623 C 379 616.400, 378.875 611, 378.722 611 C 378.569 611, 375.181 612.563, 371.194 614.474 M 600 612.181 C 600 614.703, 606.545 635.992, 607.322 635.996 C 608.781 636.003, 617 630.840, 617 629.916 C 617 629.424, 614.858 626.654, 612.239 623.761 C 609.620 620.867, 606.192 616.813, 604.620 614.750 C 601.740 610.970, 600 610.003, 600 612.181 M 450.500 614.127 C 445.907 616.703, 444.515 622.434, 447.460 626.640 C 450.286 630.674, 453.477 631.127, 476.762 630.805 C 498.559 630.504, 498.876 630.469, 501.422 628.076 C 504.613 625.075, 504.926 619.366, 502.090 615.861 C 500.190 613.513, 500.051 613.499, 476.340 613.253 C 460.143 613.085, 451.859 613.365, 450.500 614.127 M 349.023 634.090 C 346.810 636.890, 345 639.481, 345 639.848 C 345 640.675, 363.424 652.399, 364.629 652.339 C 365.108 652.316, 366.346 650.850, 367.380 649.083 C 369.243 645.899, 369.241 645.857, 367.125 644.375 C 365.951 643.552, 362.302 639.757, 359.018 635.940 L 353.045 629.001 349.023 634.090 M 589.076 634.750 C 589.020 637.895, 589.390 639, 590.500 639 C 592.271 639, 592.271 638.600, 590.500 634 L 589.152 630.500 589.076 634.750 M 532.595 653.522 C 528.579 655.624, 527.069 657.910, 527.032 661.945 C 526.959 669.829, 536.993 674.098, 542.545 668.545 C 545.918 665.173, 545.919 659.283, 542.548 655.646 C 541.199 654.191, 539.661 653, 539.130 653 C 538.598 653, 537.564 652.775, 536.832 652.501 C 536.099 652.226, 534.193 652.686, 532.595 653.522 M 449.077 655.589 C 446.629 657.648, 446 658.960, 446 662 C 446 665.040, 446.629 666.352, 449.077 668.411 L 452.153 671 478.354 671 C 507.052 671, 507.554 670.906, 509.984 665.040 C 510.996 662.596, 510.996 661.404, 509.984 658.960 C 507.554 653.094, 507.052 653, 478.354 653 L 452.153 653 449.077 655.589 M 337.488 655.250 C 336.581 657.770, 334.029 669.552, 334.015 671.283 C 334.001 672.904, 335.009 673.040, 345.151 672.783 L 356.302 672.500 357.583 668.796 C 358.742 665.443, 358.690 665.036, 357.032 664.510 C 356.025 664.191, 351.484 661.695, 346.941 658.965 C 342.398 656.234, 338.513 654, 338.309 654 C 338.105 654, 337.735 654.563, 337.488 655.250 M 334 689.472 C 334 690.831, 334.721 695.218, 335.603 699.222 L 337.207 706.500 346.223 706.586 L 355.240 706.671 354.629 701.586 C 354.292 698.789, 354.013 694.362, 354.009 691.750 L 354 687 344 687 C 334.031 687, 334 687.008, 334 689.472 M 416.357 693.970 C 413.429 695.181, 411 698.888, 411 702.146 C 411 705.204, 415.066 710.569, 418.118 711.537 C 421.277 712.540, 425.701 710.150, 427.430 706.507 C 429.600 701.934, 429.419 700.486, 426.250 697.051 C 423.198 693.744, 419.607 692.626, 416.357 693.970 M 532.110 694.396 C 529.452 695.869, 527.090 699.548, 527.035 702.300 C 526.973 705.491, 529.824 709.685, 532.933 710.972 C 538.913 713.449, 545 709.647, 545 703.434 C 545 698.582, 543.469 696.094, 539.452 694.415 C 535.380 692.714, 535.145 692.713, 532.110 694.396 M 450.357 694.992 C 447.733 696.051, 445 699.788, 445 702.318 C 445 705.138, 448.025 709.690, 450.712 710.915 C 453.997 712.412, 502.051 712.390, 505.343 710.890 C 510.731 708.435, 511.605 700.528, 506.923 696.589 L 503.847 694 478.173 694.063 C 464.053 694.098, 451.536 694.516, 450.357 694.992 M 424 760 L 424 766 438 766 L 452 766 452 760 L 452 754 438 754 L 424 754 424 760 M 469 795.529 L 469 837.057 472.046 843.091 C 473.721 846.410, 475.584 851.572, 476.184 854.563 L 477.276 860 482.509 860 L 487.742 860 488.373 855.250 C 488.719 852.638, 490.352 847.647, 492.001 844.160 L 495 837.820 495 795.910 L 495 754 482 754 L 469 754 469 795.529 M 512.014 757.750 C 512.045 766.286, 511.520 766, 527.117 766 L 541 766 541 760 L 541 754 526.500 754 L 512 754 512.014 757.750 M 423 787 L 423 793 434.375 793 C 440.631 793, 447.156 793.281, 448.875 793.625 L 452 794.250 452 787.625 L 452 781 437.500 781 L 423 781 423 787 M 512.202 787.250 L 512.500 793.500 526.750 793.777 L 541 794.055 541 787.527 L 541 781 526.452 781 L 511.905 781 512.202 787.250 M 423.667 808.667 C 423.300 809.033, 423 811.171, 423 813.417 L 423 817.500 431.750 817.598 C 438.155 817.669, 441.974 818.272, 446 819.847 C 449.025 821.031, 451.613 821.999, 451.750 821.999 C 451.887 822, 452 819.131, 452 815.625 C 452 809.285, 451.983 809.247, 448.875 808.625 C 444.699 807.790, 424.510 807.823, 423.667 808.667 M 512.698 808.636 C 511.934 809.399, 511.713 822, 512.463 822 C 512.718 822, 515.209 821.100, 518 820 C 521.739 818.526, 525.432 818, 532.037 818 L 541 818 541 813.500 L 541 809 528.582 809 C 521.752 809, 515.541 808.761, 514.780 808.469 C 514.018 808.177, 513.082 808.252, 512.698 808.636 M 423.571 840.571 C 421.542 842.601, 421.548 846.612, 423.582 847.393 C 425.666 848.193, 434.834 847.993, 438 847.078 C 439.902 846.529, 440.436 845.775, 440.231 843.928 C 440.083 842.593, 439.209 840.938, 438.290 840.250 C 435.829 838.410, 425.507 838.636, 423.571 840.571 M 525.553 841.559 C 522.565 846.119, 523.733 847.463, 530.979 847.803 C 540.167 848.235, 542.200 847.566, 541.813 844.238 C 541.417 840.835, 537.987 839.034, 531.865 839.015 C 527.987 839.002, 526.956 839.418, 525.553 841.559 M 311.455 862.455 C 307.015 866.894, 308.978 874.589, 315.040 876.513 C 318.100 877.484, 322.866 875.160, 324.568 871.868 C 328.737 863.806, 317.890 856.019, 311.455 862.455 M 637 862 C 632.959 866.041, 635.569 875.764, 640.789 876.115 C 646.962 876.531, 650.400 873.824, 650.400 868.550 C 650.400 861.356, 641.832 857.168, 637 862" stroke="none" fill="#252f2d" fill-rule="evenodd"/></svg>